ISO-10303-21;
HEADER;
/*Generated by software containing ST-Developer
 * from STEP Tools, Inc. (www.steptools.com) 
 */
/*OPTION: using custom renumber hook */
/*description */
/*implementation_level */
FILE_DESCRIPTION(('STEP AP242 Edition 2','STEP AP242 Edition 2''CAx-IF Rec.Pracs.---Representation and Presentation of Product Manufa
cturing Information (PMI)---4.0---2014-10-13','STEP AP242 Edition 2''CAx-IF Rec.Pracs.---Representation and Presentation of Product Manufa
cturing Information (PMI)---4.0---2014-10-13''CAx-IF Rec.Pracs.---3D Tessellated Geometry---0.4---2014-09-14','STEP AP242 Edition 2''CAx-IF Rec.Pracs.---Representation and Presentation of Product Manufa
cturing Information (PMI)---4.0---2014-10-13''CAx-IF Rec.Pracs.---3D Tessellated Geometry---0.4---2014-09-14''2;1','STEP AP242 Edition 2''CAx-IF Rec.Pracs.---Representation and Presentation of Product Manufa
cturing Information (PMI)---4.0---2014-10-13''CAx-IF Rec.Pracs.---3D Tessellated Geometry---0.4---2014-09-14''2;1''CAx-IF Rec.Pracs.---User Defined Attributes---1.5---2016-08-15'),'2;1');
/*name */
/*time_stamp */
/*author */
/*organization */
/*preprocessor_version */
/*originating_system */
/*authorisation */
FILE_NAME('/vol/tmp/translate-610083237384807554/Pill Tray.step','2026-03-10T15:40:43',(''),(''),'ST-DEVELOPER v20','ONSHAPE BY PTC INC, 1.211','  ');
FILE_SCHEMA(('AP242_MANAGED_MODEL_BASED_3D_ENGINEERING_MIM_LF { 1 0 10303 442 3 1 4 }'));
ENDSEC;
DATA;
#10=SHAPE_REPRESENTATION_RELATIONSHIP('','',#508,#11);
#11=ADVANCED_BREP_SHAPE_REPRESENTATION('',(#506),#886);
#12=B_SPLINE_CURVE_WITH_KNOTS('',3,(#741,#742,#743,#744),.UNSPECIFIED.,.F.,.F.,(4,4),(0.248280623872244,0.277464301054919),.UNSPECIFIED.);
#13=B_SPLINE_CURVE_WITH_KNOTS('',3,(#748,#749,#750,#751),.UNSPECIFIED.,.F.,.F.,(4,4),(0.,0.0292694967588785),.UNSPECIFIED.);
#14=B_SPLINE_CURVE_WITH_KNOTS('',3,(#754,#755,#756,#757),.UNSPECIFIED.,.F.,.F.,(4,4),(0.,1.),.UNSPECIFIED.);
#15=B_SPLINE_CURVE_WITH_KNOTS('',3,(#759,#760,#761,#762),.UNSPECIFIED.,.F.,.F.,(4,4),(0.,1.),.UNSPECIFIED.);
#16=B_SPLINE_CURVE_WITH_KNOTS('',3,(#763,#764,#765,#766),.UNSPECIFIED.,.F.,.F.,(4,4),(0.,1.),.UNSPECIFIED.);
#17=B_SPLINE_CURVE_WITH_KNOTS('',3,(#768,#769,#770,#771),.UNSPECIFIED.,.F.,.F.,(4,4),(0.,1.),.UNSPECIFIED.);
#18=B_SPLINE_CURVE_WITH_KNOTS('',3,(#773,#774,#775,#776),.UNSPECIFIED.,.F.,.F.,(4,4),(0.,1.),.UNSPECIFIED.);
#19=B_SPLINE_CURVE_WITH_KNOTS('',3,(#778,#779,#780,#781),.UNSPECIFIED.,.F.,.F.,(4,4),(0.0354796116684116,0.0355021636857887),.UNSPECIFIED.);
#20=B_SPLINE_CURVE_WITH_KNOTS('',3,(#785,#786,#787,#788),.UNSPECIFIED.,.F.,.F.,(4,4),(0.0355128588667138,0.0355354190517034),.UNSPECIFIED.);
#21=B_SPLINE_CURVE_WITH_KNOTS('',3,(#809,#810,#811,#812),.UNSPECIFIED.,.F.,.F.,(4,4),(0.230138527428849,0.263203778334234),.UNSPECIFIED.);
#22=B_SPLINE_CURVE_WITH_KNOTS('',3,(#814,#815,#816,#817),.UNSPECIFIED.,.F.,.F.,(4,4),(0.0236227331390827,0.0237623062160096),.UNSPECIFIED.);
#23=B_SPLINE_CURVE_WITH_KNOTS('',3,(#821,#822,#823,#824),.UNSPECIFIED.,.F.,.F.,(4,4),(0.0220206489831684,0.0221602136104179),.UNSPECIFIED.);
#24=B_SPLINE_CURVE_WITH_KNOTS('',3,(#826,#827,#828,#829),.UNSPECIFIED.,.F.,.F.,(4,4),(0.255231587927088,0.288221227780194),.UNSPECIFIED.);
#25=CONICAL_SURFACE('',#523,0.035,1.4121410646085);
#26=CONICAL_SURFACE('',#526,0.07,1.42889927219073);
#27=CONICAL_SURFACE('',#536,0.0696464466094066,1.42889927219073);
#28=PLANE('',#515);
#29=PLANE('',#518);
#30=PLANE('',#528);
#31=PLANE('',#530);
#32=PLANE('',#532);
#33=PLANE('',#533);
#34=PLANE('',#538);
#35=PLANE('',#541);
#36=PLANE('',#542);
#37=PLANE('',#543);
#38=PLANE('',#548);
#39=PLANE('',#552);
#40=PLANE('',#556);
#41=PLANE('',#557);
#42=PLANE('',#558);
#43=CIRCLE('',#511,0.07);
#44=CIRCLE('',#512,0.07);
#45=CIRCLE('',#513,0.07);
#46=CIRCLE('',#514,0.07);
#47=CIRCLE('',#516,0.03);
#48=CIRCLE('',#517,0.0178);
#49=CIRCLE('',#519,0.0178);
#50=CIRCLE('',#520,0.03875);
#51=CIRCLE('',#521,0.0153);
#52=CIRCLE('',#522,0.03875);
#53=CIRCLE('',#524,0.0675);
#54=CIRCLE('',#525,0.03875);
#55=CIRCLE('',#527,0.035);
#56=CIRCLE('',#529,0.0153);
#57=CIRCLE('',#535,0.0675);
#58=CIRCLE('',#537,0.0348223304703362);
#59=CIRCLE('',#539,0.032);
#60=CIRCLE('',#544,0.032);
#61=CIRCLE('',#545,0.03);
#62=CIRCLE('',#550,0.005);
#63=CIRCLE('',#551,0.005);
#64=CIRCLE('',#554,0.005);
#65=CIRCLE('',#555,0.005);
#66=ORIENTED_EDGE('',*,*,#212,.F.);
#67=ORIENTED_EDGE('',*,*,#213,.F.);
#68=ORIENTED_EDGE('',*,*,#214,.T.);
#69=ORIENTED_EDGE('',*,*,#215,.T.);
#70=ORIENTED_EDGE('',*,*,#216,.F.);
#71=ORIENTED_EDGE('',*,*,#217,.T.);
#72=ORIENTED_EDGE('',*,*,#218,.T.);
#73=ORIENTED_EDGE('',*,*,#219,.F.);
#74=ORIENTED_EDGE('',*,*,#220,.F.);
#75=ORIENTED_EDGE('',*,*,#221,.F.);
#76=ORIENTED_EDGE('',*,*,#222,.F.);
#77=ORIENTED_EDGE('',*,*,#223,.T.);
#78=ORIENTED_EDGE('',*,*,#224,.T.);
#79=ORIENTED_EDGE('',*,*,#225,.T.);
#80=ORIENTED_EDGE('',*,*,#226,.T.);
#81=ORIENTED_EDGE('',*,*,#227,.F.);
#82=ORIENTED_EDGE('',*,*,#228,.F.);
#83=ORIENTED_EDGE('',*,*,#229,.T.);
#84=ORIENTED_EDGE('',*,*,#230,.T.);
#85=ORIENTED_EDGE('',*,*,#231,.F.);
#86=ORIENTED_EDGE('',*,*,#226,.F.);
#87=ORIENTED_EDGE('',*,*,#232,.T.);
#88=ORIENTED_EDGE('',*,*,#233,.F.);
#89=ORIENTED_EDGE('',*,*,#234,.T.);
#90=ORIENTED_EDGE('',*,*,#230,.F.);
#91=ORIENTED_EDGE('',*,*,#235,.F.);
#92=ORIENTED_EDGE('',*,*,#236,.F.);
#93=ORIENTED_EDGE('',*,*,#237,.F.);
#94=ORIENTED_EDGE('',*,*,#213,.T.);
#95=ORIENTED_EDGE('',*,*,#238,.F.);
#96=ORIENTED_EDGE('',*,*,#239,.F.);
#97=ORIENTED_EDGE('',*,*,#215,.F.);
#98=ORIENTED_EDGE('',*,*,#240,.F.);
#99=ORIENTED_EDGE('',*,*,#241,.T.);
#100=ORIENTED_EDGE('',*,*,#242,.F.);
#101=ORIENTED_EDGE('',*,*,#243,.F.);
#102=ORIENTED_EDGE('',*,*,#244,.T.);
#103=ORIENTED_EDGE('',*,*,#245,.T.);
#104=ORIENTED_EDGE('',*,*,#242,.T.);
#105=ORIENTED_EDGE('',*,*,#246,.F.);
#106=ORIENTED_EDGE('',*,*,#235,.T.);
#107=ORIENTED_EDGE('',*,*,#247,.T.);
#108=ORIENTED_EDGE('',*,*,#236,.T.);
#109=ORIENTED_EDGE('',*,*,#248,.T.);
#110=ORIENTED_EDGE('',*,*,#228,.T.);
#111=ORIENTED_EDGE('',*,*,#249,.F.);
#112=ORIENTED_EDGE('',*,*,#244,.F.);
#113=ORIENTED_EDGE('',*,*,#212,.T.);
#114=ORIENTED_EDGE('',*,*,#239,.T.);
#115=ORIENTED_EDGE('',*,*,#243,.T.);
#116=ORIENTED_EDGE('',*,*,#245,.F.);
#117=ORIENTED_EDGE('',*,*,#249,.T.);
#118=ORIENTED_EDGE('',*,*,#227,.T.);
#119=ORIENTED_EDGE('',*,*,#238,.T.);
#120=ORIENTED_EDGE('',*,*,#237,.T.);
#121=ORIENTED_EDGE('',*,*,#247,.F.);
#122=ORIENTED_EDGE('',*,*,#229,.F.);
#123=ORIENTED_EDGE('',*,*,#248,.F.);
#124=ORIENTED_EDGE('',*,*,#246,.T.);
#125=ORIENTED_EDGE('',*,*,#241,.F.);
#126=ORIENTED_EDGE('',*,*,#240,.T.);
#127=ORIENTED_EDGE('',*,*,#214,.F.);
#128=ORIENTED_EDGE('',*,*,#250,.T.);
#129=ORIENTED_EDGE('',*,*,#251,.F.);
#130=ORIENTED_EDGE('',*,*,#252,.F.);
#131=ORIENTED_EDGE('',*,*,#233,.T.);
#132=ORIENTED_EDGE('',*,*,#253,.T.);
#133=ORIENTED_EDGE('',*,*,#254,.T.);
#134=ORIENTED_EDGE('',*,*,#255,.T.);
#135=ORIENTED_EDGE('',*,*,#256,.F.);
#136=ORIENTED_EDGE('',*,*,#257,.T.);
#137=ORIENTED_EDGE('',*,*,#251,.T.);
#138=ORIENTED_EDGE('',*,*,#258,.F.);
#139=ORIENTED_EDGE('',*,*,#259,.T.);
#140=ORIENTED_EDGE('',*,*,#260,.T.);
#141=ORIENTED_EDGE('',*,*,#255,.F.);
#142=ORIENTED_EDGE('',*,*,#261,.F.);
#143=ORIENTED_EDGE('',*,*,#222,.T.);
#144=ORIENTED_EDGE('',*,*,#262,.T.);
#145=ORIENTED_EDGE('',*,*,#224,.F.);
#146=ORIENTED_EDGE('',*,*,#263,.F.);
#147=ORIENTED_EDGE('',*,*,#264,.F.);
#148=ORIENTED_EDGE('',*,*,#265,.T.);
#149=ORIENTED_EDGE('',*,*,#258,.T.);
#150=ORIENTED_EDGE('',*,*,#254,.F.);
#151=ORIENTED_EDGE('',*,*,#253,.F.);
#152=ORIENTED_EDGE('',*,*,#250,.F.);
#153=ORIENTED_EDGE('',*,*,#232,.F.);
#154=ORIENTED_EDGE('',*,*,#225,.F.);
#155=ORIENTED_EDGE('',*,*,#262,.F.);
#156=ORIENTED_EDGE('',*,*,#221,.T.);
#157=ORIENTED_EDGE('',*,*,#266,.T.);
#158=ORIENTED_EDGE('',*,*,#267,.T.);
#159=ORIENTED_EDGE('',*,*,#223,.F.);
#160=ORIENTED_EDGE('',*,*,#261,.T.);
#161=ORIENTED_EDGE('',*,*,#231,.T.);
#162=ORIENTED_EDGE('',*,*,#234,.F.);
#163=ORIENTED_EDGE('',*,*,#252,.T.);
#164=ORIENTED_EDGE('',*,*,#257,.F.);
#165=ORIENTED_EDGE('',*,*,#256,.T.);
#166=ORIENTED_EDGE('',*,*,#260,.F.);
#167=ORIENTED_EDGE('',*,*,#268,.F.);
#168=ORIENTED_EDGE('',*,*,#269,.T.);
#169=ORIENTED_EDGE('',*,*,#264,.T.);
#170=ORIENTED_EDGE('',*,*,#270,.F.);
#171=ORIENTED_EDGE('',*,*,#266,.F.);
#172=ORIENTED_EDGE('',*,*,#270,.T.);
#173=ORIENTED_EDGE('',*,*,#263,.T.);
#174=ORIENTED_EDGE('',*,*,#220,.T.);
#175=ORIENTED_EDGE('',*,*,#267,.F.);
#176=ORIENTED_EDGE('',*,*,#265,.F.);
#177=ORIENTED_EDGE('',*,*,#269,.F.);
#178=ORIENTED_EDGE('',*,*,#268,.T.);
#179=ORIENTED_EDGE('',*,*,#259,.F.);
#180=ORIENTED_EDGE('',*,*,#271,.F.);
#181=ORIENTED_EDGE('',*,*,#272,.F.);
#182=ORIENTED_EDGE('',*,*,#273,.T.);
#183=ORIENTED_EDGE('',*,*,#216,.T.);
#184=ORIENTED_EDGE('',*,*,#274,.T.);
#185=ORIENTED_EDGE('',*,*,#275,.F.);
#186=ORIENTED_EDGE('',*,*,#276,.F.);
#187=ORIENTED_EDGE('',*,*,#272,.T.);
#188=ORIENTED_EDGE('',*,*,#277,.F.);
#189=ORIENTED_EDGE('',*,*,#278,.F.);
#190=ORIENTED_EDGE('',*,*,#279,.T.);
#191=ORIENTED_EDGE('',*,*,#275,.T.);
#192=ORIENTED_EDGE('',*,*,#280,.T.);
#193=ORIENTED_EDGE('',*,*,#281,.F.);
#194=ORIENTED_EDGE('',*,*,#282,.F.);
#195=ORIENTED_EDGE('',*,*,#278,.T.);
#196=ORIENTED_EDGE('',*,*,#283,.T.);
#197=ORIENTED_EDGE('',*,*,#218,.F.);
#198=ORIENTED_EDGE('',*,*,#284,.F.);
#199=ORIENTED_EDGE('',*,*,#281,.T.);
#200=ORIENTED_EDGE('',*,*,#217,.F.);
#201=ORIENTED_EDGE('',*,*,#273,.F.);
#202=ORIENTED_EDGE('',*,*,#276,.T.);
#203=ORIENTED_EDGE('',*,*,#279,.F.);
#204=ORIENTED_EDGE('',*,*,#282,.T.);
#205=ORIENTED_EDGE('',*,*,#284,.T.);
#206=ORIENTED_EDGE('',*,*,#219,.T.);
#207=ORIENTED_EDGE('',*,*,#283,.F.);
#208=ORIENTED_EDGE('',*,*,#280,.F.);
#209=ORIENTED_EDGE('',*,*,#277,.T.);
#210=ORIENTED_EDGE('',*,*,#274,.F.);
#211=ORIENTED_EDGE('',*,*,#271,.T.);
#212=EDGE_CURVE('',#285,#286,#335,.F.);
#213=EDGE_CURVE('',#287,#285,#43,.T.);
#214=EDGE_CURVE('',#287,#288,#336,.F.);
#215=EDGE_CURVE('',#288,#286,#44,.T.);
#216=EDGE_CURVE('',#289,#290,#337,.T.);
#217=EDGE_CURVE('',#289,#291,#45,.T.);
#218=EDGE_CURVE('',#291,#292,#338,.T.);
#219=EDGE_CURVE('',#290,#292,#46,.T.);
#220=EDGE_CURVE('',#293,#294,#47,.F.);
#221=EDGE_CURVE('',#295,#293,#339,.T.);
#222=EDGE_CURVE('',#296,#295,#48,.T.);
#223=EDGE_CURVE('',#296,#294,#340,.T.);
#224=EDGE_CURVE('',#297,#298,#49,.T.);
#225=EDGE_CURVE('',#298,#299,#341,.T.);
#226=EDGE_CURVE('',#299,#300,#50,.T.);
#227=EDGE_CURVE('',#301,#300,#342,.F.);
#228=EDGE_CURVE('',#302,#301,#51,.T.);
#229=EDGE_CURVE('',#302,#303,#343,.F.);
#230=EDGE_CURVE('',#303,#304,#52,.T.);
#231=EDGE_CURVE('',#297,#304,#344,.T.);
#232=EDGE_CURVE('',#299,#305,#12,.T.);
#233=EDGE_CURVE('',#306,#305,#53,.T.);
#234=EDGE_CURVE('',#306,#304,#13,.T.);
#235=EDGE_CURVE('',#307,#303,#54,.T.);
#236=EDGE_CURVE('',#308,#307,#14,.F.);
#237=EDGE_CURVE('',#287,#308,#15,.T.);
#238=EDGE_CURVE('',#300,#285,#16,.T.);
#239=EDGE_CURVE('',#286,#309,#17,.T.);
#240=EDGE_CURVE('',#310,#288,#18,.T.);
#241=EDGE_CURVE('',#310,#311,#19,.T.);
#242=EDGE_CURVE('',#312,#311,#55,.F.);
#243=EDGE_CURVE('',#309,#312,#20,.T.);
#244=EDGE_CURVE('',#313,#314,#56,.T.);
#245=EDGE_CURVE('',#314,#312,#345,.F.);
#246=EDGE_CURVE('',#313,#311,#346,.F.);
#247=EDGE_CURVE('',#303,#308,#347,.F.);
#248=EDGE_CURVE('',#313,#302,#348,.T.);
#249=EDGE_CURVE('',#314,#301,#349,.T.);
#250=EDGE_CURVE('',#305,#315,#350,.F.);
#251=EDGE_CURVE('',#316,#315,#57,.T.);
#252=EDGE_CURVE('',#306,#316,#351,.F.);
#253=EDGE_CURVE('',#315,#317,#21,.T.);
#254=EDGE_CURVE('',#317,#318,#22,.T.);
#255=EDGE_CURVE('',#318,#319,#58,.F.);
#256=EDGE_CURVE('',#320,#319,#23,.T.);
#257=EDGE_CURVE('',#320,#316,#24,.T.);
#258=EDGE_CURVE('',#321,#318,#352,.T.);
#259=EDGE_CURVE('',#321,#322,#59,.F.);
#260=EDGE_CURVE('',#322,#319,#353,.T.);
#261=EDGE_CURVE('',#296,#297,#354,.T.);
#262=EDGE_CURVE('',#295,#298,#355,.T.);
#263=EDGE_CURVE('',#323,#293,#356,.T.);
#264=EDGE_CURVE('',#324,#323,#357,.T.);
#265=EDGE_CURVE('',#324,#321,#358,.T.);
#266=EDGE_CURVE('',#325,#326,#359,.T.);
#267=EDGE_CURVE('',#326,#294,#360,.T.);
#268=EDGE_CURVE('',#325,#322,#361,.T.);
#269=EDGE_CURVE('',#325,#324,#60,.T.);
#270=EDGE_CURVE('',#326,#323,#61,.T.);
#271=EDGE_CURVE('',#327,#290,#362,.T.);
#272=EDGE_CURVE('',#328,#327,#363,.T.);
#273=EDGE_CURVE('',#328,#289,#364,.T.);
#274=EDGE_CURVE('',#327,#329,#62,.T.);
#275=EDGE_CURVE('',#330,#329,#365,.T.);
#276=EDGE_CURVE('',#328,#330,#63,.T.);
#277=EDGE_CURVE('',#331,#329,#366,.T.);
#278=EDGE_CURVE('',#332,#331,#367,.T.);
#279=EDGE_CURVE('',#332,#330,#368,.T.);
#280=EDGE_CURVE('',#331,#333,#64,.T.);
#281=EDGE_CURVE('',#334,#333,#369,.T.);
#282=EDGE_CURVE('',#332,#334,#65,.T.);
#283=EDGE_CURVE('',#333,#292,#370,.T.);
#284=EDGE_CURVE('',#334,#291,#371,.T.);
#285=VERTEX_POINT('',#699);
#286=VERTEX_POINT('',#700);
#287=VERTEX_POINT('',#702);
#288=VERTEX_POINT('',#704);
#289=VERTEX_POINT('',#707);
#290=VERTEX_POINT('',#708);
#291=VERTEX_POINT('',#710);
#292=VERTEX_POINT('',#712);
#293=VERTEX_POINT('',#716);
#294=VERTEX_POINT('',#717);
#295=VERTEX_POINT('',#719);
#296=VERTEX_POINT('',#721);
#297=VERTEX_POINT('',#725);
#298=VERTEX_POINT('',#726);
#299=VERTEX_POINT('',#728);
#300=VERTEX_POINT('',#730);
#301=VERTEX_POINT('',#732);
#302=VERTEX_POINT('',#734);
#303=VERTEX_POINT('',#736);
#304=VERTEX_POINT('',#738);
#305=VERTEX_POINT('',#745);
#306=VERTEX_POINT('',#747);
#307=VERTEX_POINT('',#753);
#308=VERTEX_POINT('',#758);
#309=VERTEX_POINT('',#772);
#310=VERTEX_POINT('',#777);
#311=VERTEX_POINT('',#782);
#312=VERTEX_POINT('',#784);
#313=VERTEX_POINT('',#791);
#314=VERTEX_POINT('',#792);
#315=VERTEX_POINT('',#804);
#316=VERTEX_POINT('',#806);
#317=VERTEX_POINT('',#813);
#318=VERTEX_POINT('',#818);
#319=VERTEX_POINT('',#820);
#320=VERTEX_POINT('',#825);
#321=VERTEX_POINT('',#832);
#322=VERTEX_POINT('',#834);
#323=VERTEX_POINT('',#841);
#324=VERTEX_POINT('',#843);
#325=VERTEX_POINT('',#847);
#326=VERTEX_POINT('',#848);
#327=VERTEX_POINT('',#858);
#328=VERTEX_POINT('',#860);
#329=VERTEX_POINT('',#864);
#330=VERTEX_POINT('',#866);
#331=VERTEX_POINT('',#870);
#332=VERTEX_POINT('',#872);
#333=VERTEX_POINT('',#876);
#334=VERTEX_POINT('',#878);
#335=LINE('',#698,#372);
#336=LINE('',#703,#373);
#337=LINE('',#706,#374);
#338=LINE('',#711,#375);
#339=LINE('',#718,#376);
#340=LINE('',#722,#377);
#341=LINE('',#727,#378);
#342=LINE('',#731,#379);
#343=LINE('',#735,#380);
#344=LINE('',#739,#381);
#345=LINE('',#793,#382);
#346=LINE('',#794,#383);
#347=LINE('',#796,#384);
#348=LINE('',#798,#385);
#349=LINE('',#799,#386);
#350=LINE('',#803,#387);
#351=LINE('',#807,#388);
#352=LINE('',#831,#389);
#353=LINE('',#835,#390);
#354=LINE('',#837,#391);
#355=LINE('',#838,#392);
#356=LINE('',#840,#393);
#357=LINE('',#842,#394);
#358=LINE('',#844,#395);
#359=LINE('',#846,#396);
#360=LINE('',#849,#397);
#361=LINE('',#850,#398);
#362=LINE('',#857,#399);
#363=LINE('',#859,#400);
#364=LINE('',#861,#401);
#365=LINE('',#865,#402);
#366=LINE('',#869,#403);
#367=LINE('',#871,#404);
#368=LINE('',#873,#405);
#369=LINE('',#877,#406);
#370=LINE('',#881,#407);
#371=LINE('',#882,#408);
#372=VECTOR('',#563,1.);
#373=VECTOR('',#566,1.);
#374=VECTOR('',#569,1.);
#375=VECTOR('',#572,1.);
#376=VECTOR('',#579,1.);
#377=VECTOR('',#582,1.);
#378=VECTOR('',#587,1.);
#379=VECTOR('',#590,1.);
#380=VECTOR('',#593,1.);
#381=VECTOR('',#596,1.);
#382=VECTOR('',#611,1.);
#383=VECTOR('',#612,1.);
#384=VECTOR('',#615,1.);
#385=VECTOR('',#618,1.);
#386=VECTOR('',#619,1.);
#387=VECTOR('',#626,1.);
#388=VECTOR('',#629,1.);
#389=VECTOR('',#636,1.);
#390=VECTOR('',#639,1.);
#391=VECTOR('',#642,1.);
#392=VECTOR('',#643,1.);
#393=VECTOR('',#646,1.);
#394=VECTOR('',#647,1.);
#395=VECTOR('',#648,1.);
#396=VECTOR('',#651,1.);
#397=VECTOR('',#652,1.);
#398=VECTOR('',#653,1.);
#399=VECTOR('',#666,1.);
#400=VECTOR('',#667,1.);
#401=VECTOR('',#668,1.);
#402=VECTOR('',#673,1.);
#403=VECTOR('',#678,1.);
#404=VECTOR('',#679,1.);
#405=VECTOR('',#680,1.);
#406=VECTOR('',#685,1.);
#407=VECTOR('',#690,1.);
#408=VECTOR('',#691,1.);
#409=EDGE_LOOP('',(#66,#67,#68,#69));
#410=EDGE_LOOP('',(#70,#71,#72,#73));
#411=EDGE_LOOP('',(#74,#75,#76,#77));
#412=EDGE_LOOP('',(#78,#79,#80,#81,#82,#83,#84,#85));
#413=EDGE_LOOP('',(#86,#87,#88,#89,#90,#91,#92,#93,#94,#95));
#414=EDGE_LOOP('',(#96,#97,#98,#99,#100,#101));
#415=EDGE_LOOP('',(#102,#103,#104,#105));
#416=EDGE_LOOP('',(#106,#107,#108));
#417=EDGE_LOOP('',(#109,#110,#111,#112));
#418=EDGE_LOOP('',(#113,#114,#115,#116,#117,#118,#119));
#419=EDGE_LOOP('',(#120,#121,#122,#123,#124,#125,#126,#127));
#420=EDGE_LOOP('',(#128,#129,#130,#131));
#421=EDGE_LOOP('',(#132,#133,#134,#135,#136,#137));
#422=EDGE_LOOP('',(#138,#139,#140,#141));
#423=EDGE_LOOP('',(#142,#143,#144,#145));
#424=EDGE_LOOP('',(#146,#147,#148,#149,#150,#151,#152,#153,#154,#155,#156));
#425=EDGE_LOOP('',(#157,#158,#159,#160,#161,#162,#163,#164,#165,#166,#167));
#426=EDGE_LOOP('',(#168,#169,#170,#171));
#427=EDGE_LOOP('',(#172,#173,#174,#175));
#428=EDGE_LOOP('',(#176,#177,#178,#179));
#429=EDGE_LOOP('',(#180,#181,#182,#183));
#430=EDGE_LOOP('',(#184,#185,#186,#187));
#431=EDGE_LOOP('',(#188,#189,#190,#191));
#432=EDGE_LOOP('',(#192,#193,#194,#195));
#433=EDGE_LOOP('',(#196,#197,#198,#199));
#434=EDGE_LOOP('',(#200,#201,#202,#203,#204,#205));
#435=EDGE_LOOP('',(#206,#207,#208,#209,#210,#211));
#436=FACE_BOUND('',#409,.T.);
#437=FACE_BOUND('',#410,.T.);
#438=FACE_BOUND('',#411,.T.);
#439=FACE_BOUND('',#412,.T.);
#440=FACE_BOUND('',#413,.T.);
#441=FACE_BOUND('',#414,.T.);
#442=FACE_BOUND('',#415,.T.);
#443=FACE_BOUND('',#416,.T.);
#444=FACE_BOUND('',#417,.T.);
#445=FACE_BOUND('',#418,.T.);
#446=FACE_BOUND('',#419,.T.);
#447=FACE_BOUND('',#420,.T.);
#448=FACE_BOUND('',#421,.T.);
#449=FACE_BOUND('',#422,.T.);
#450=FACE_BOUND('',#423,.T.);
#451=FACE_BOUND('',#424,.T.);
#452=FACE_BOUND('',#425,.T.);
#453=FACE_BOUND('',#426,.T.);
#454=FACE_BOUND('',#427,.T.);
#455=FACE_BOUND('',#428,.T.);
#456=FACE_BOUND('',#429,.T.);
#457=FACE_BOUND('',#430,.T.);
#458=FACE_BOUND('',#431,.T.);
#459=FACE_BOUND('',#432,.T.);
#460=FACE_BOUND('',#433,.T.);
#461=FACE_BOUND('',#434,.T.);
#462=FACE_BOUND('',#435,.T.);
#463=CYLINDRICAL_SURFACE('',#510,0.07);
#464=CYLINDRICAL_SURFACE('',#531,0.0153);
#465=CYLINDRICAL_SURFACE('',#534,0.0675);
#466=CYLINDRICAL_SURFACE('',#540,0.0178);
#467=CYLINDRICAL_SURFACE('',#546,0.03);
#468=CYLINDRICAL_SURFACE('',#547,0.032);
#469=CYLINDRICAL_SURFACE('',#549,0.005);
#470=CYLINDRICAL_SURFACE('',#553,0.005);
#471=ADVANCED_FACE('',(#436,#437),#463,.T.);
#472=ADVANCED_FACE('',(#438),#28,.T.);
#473=ADVANCED_FACE('',(#439),#29,.T.);
#474=ADVANCED_FACE('',(#440),#25,.F.);
#475=ADVANCED_FACE('',(#441),#26,.T.);
#476=ADVANCED_FACE('',(#442),#30,.F.);
#477=ADVANCED_FACE('',(#443),#31,.T.);
#478=ADVANCED_FACE('',(#444),#464,.F.);
#479=ADVANCED_FACE('',(#445),#32,.F.);
#480=ADVANCED_FACE('',(#446),#33,.T.);
#481=ADVANCED_FACE('',(#447),#465,.F.);
#482=ADVANCED_FACE('',(#448),#27,.F.);
#483=ADVANCED_FACE('',(#449),#34,.T.);
#484=ADVANCED_FACE('',(#450),#466,.T.);
#485=ADVANCED_FACE('',(#451),#35,.T.);
#486=ADVANCED_FACE('',(#452),#36,.F.);
#487=ADVANCED_FACE('',(#453),#37,.T.);
#488=ADVANCED_FACE('',(#454),#467,.F.);
#489=ADVANCED_FACE('',(#455),#468,.T.);
#490=ADVANCED_FACE('',(#456),#38,.T.);
#491=ADVANCED_FACE('',(#457),#469,.T.);
#492=ADVANCED_FACE('',(#458),#39,.T.);
#493=ADVANCED_FACE('',(#459),#470,.T.);
#494=ADVANCED_FACE('',(#460),#40,.F.);
#495=ADVANCED_FACE('',(#461),#41,.T.);
#496=ADVANCED_FACE('',(#462),#42,.F.);
#497=CLOSED_SHELL('',(#471,#472,#473,#474,#475,#476,#477,#478,#479,#480,#481,#482,#483,#484,#485,#486,#487,#488,#489,#490,#491,#492,#493,#494,#495,#496));
#498=STYLED_ITEM('',(#499),#506);
#499=PRESENTATION_STYLE_ASSIGNMENT((#500));
#500=SURFACE_STYLE_USAGE(.BOTH.,#501);
#501=SURFACE_SIDE_STYLE('',(#502));
#502=SURFACE_STYLE_FILL_AREA(#503);
#503=FILL_AREA_STYLE('',(#504));
#504=FILL_AREA_STYLE_COLOUR('',#505);
#505=COLOUR_RGB('',0.615686274509804,0.811764705882353,0.929411764705882);
#506=MANIFOLD_SOLID_BREP('Pill Tray',#497);
#507=SHAPE_DEFINITION_REPRESENTATION(#891,#508);
#508=SHAPE_REPRESENTATION('Pill Tray',(#509),#886);
#509=AXIS2_PLACEMENT_3D('',#696,#559,#560);
#510=AXIS2_PLACEMENT_3D('',#697,#561,#562);
#511=AXIS2_PLACEMENT_3D('',#701,#564,#565);
#512=AXIS2_PLACEMENT_3D('',#705,#567,#568);
#513=AXIS2_PLACEMENT_3D('',#709,#570,#571);
#514=AXIS2_PLACEMENT_3D('',#713,#573,#574);
#515=AXIS2_PLACEMENT_3D('',#714,#575,#576);
#516=AXIS2_PLACEMENT_3D('',#715,#577,#578);
#517=AXIS2_PLACEMENT_3D('',#720,#580,#581);
#518=AXIS2_PLACEMENT_3D('',#723,#583,#584);
#519=AXIS2_PLACEMENT_3D('',#724,#585,#586);
#520=AXIS2_PLACEMENT_3D('',#729,#588,#589);
#521=AXIS2_PLACEMENT_3D('',#733,#591,#592);
#522=AXIS2_PLACEMENT_3D('',#737,#594,#595);
#523=AXIS2_PLACEMENT_3D('',#740,#597,#598);
#524=AXIS2_PLACEMENT_3D('',#746,#599,#600);
#525=AXIS2_PLACEMENT_3D('',#752,#601,#602);
#526=AXIS2_PLACEMENT_3D('',#767,#603,#604);
#527=AXIS2_PLACEMENT_3D('',#783,#605,#606);
#528=AXIS2_PLACEMENT_3D('',#789,#607,#608);
#529=AXIS2_PLACEMENT_3D('',#790,#609,#610);
#530=AXIS2_PLACEMENT_3D('',#795,#613,#614);
#531=AXIS2_PLACEMENT_3D('',#797,#616,#617);
#532=AXIS2_PLACEMENT_3D('',#800,#620,#621);
#533=AXIS2_PLACEMENT_3D('',#801,#622,#623);
#534=AXIS2_PLACEMENT_3D('',#802,#624,#625);
#535=AXIS2_PLACEMENT_3D('',#805,#627,#628);
#536=AXIS2_PLACEMENT_3D('',#808,#630,#631);
#537=AXIS2_PLACEMENT_3D('',#819,#632,#633);
#538=AXIS2_PLACEMENT_3D('',#830,#634,#635);
#539=AXIS2_PLACEMENT_3D('',#833,#637,#638);
#540=AXIS2_PLACEMENT_3D('',#836,#640,#641);
#541=AXIS2_PLACEMENT_3D('',#839,#644,#645);
#542=AXIS2_PLACEMENT_3D('',#845,#649,#650);
#543=AXIS2_PLACEMENT_3D('',#851,#654,#655);
#544=AXIS2_PLACEMENT_3D('',#852,#656,#657);
#545=AXIS2_PLACEMENT_3D('',#853,#658,#659);
#546=AXIS2_PLACEMENT_3D('',#854,#660,#661);
#547=AXIS2_PLACEMENT_3D('',#855,#662,#663);
#548=AXIS2_PLACEMENT_3D('',#856,#664,#665);
#549=AXIS2_PLACEMENT_3D('',#862,#669,#670);
#550=AXIS2_PLACEMENT_3D('',#863,#671,#672);
#551=AXIS2_PLACEMENT_3D('',#867,#674,#675);
#552=AXIS2_PLACEMENT_3D('',#868,#676,#677);
#553=AXIS2_PLACEMENT_3D('',#874,#681,#682);
#554=AXIS2_PLACEMENT_3D('',#875,#683,#684);
#555=AXIS2_PLACEMENT_3D('',#879,#686,#687);
#556=AXIS2_PLACEMENT_3D('',#880,#688,#689);
#557=AXIS2_PLACEMENT_3D('',#883,#692,#693);
#558=AXIS2_PLACEMENT_3D('',#884,#694,#695);
#559=DIRECTION('',(0.,0.,1.));
#560=DIRECTION('',(1.,0.,0.));
#561=DIRECTION('',(0.,-1.,0.));
#562=DIRECTION('',(0.,0.,-1.));
#563=DIRECTION('',(0.,-1.,0.));
#564=DIRECTION('',(0.,-1.,0.));
#565=DIRECTION('',(0.,0.,-1.));
#566=DIRECTION('',(0.,-1.,0.));
#567=DIRECTION('',(0.,-1.,0.));
#568=DIRECTION('',(0.,0.,-1.));
#569=DIRECTION('',(0.,1.,0.));
#570=DIRECTION('',(0.,-1.,0.));
#571=DIRECTION('',(0.,0.,-1.));
#572=DIRECTION('',(0.,1.,0.));
#573=DIRECTION('',(0.,-1.,0.));
#574=DIRECTION('',(0.,0.,-1.));
#575=DIRECTION('',(0.,-1.,0.));
#576=DIRECTION('',(1.,0.,0.));
#577=DIRECTION('',(0.,-1.,0.));
#578=DIRECTION('',(0.,0.,-1.));
#579=DIRECTION('',(0.707106781186548,0.,-0.707106781186548));
#580=DIRECTION('',(0.,-1.,0.));
#581=DIRECTION('',(0.,0.,-1.));
#582=DIRECTION('',(-6.10092185396849E-17,0.,-1.));
#583=DIRECTION('',(0.,-1.,0.));
#584=DIRECTION('',(1.,0.,0.));
#585=DIRECTION('',(0.,-1.,0.));
#586=DIRECTION('',(0.,0.,-1.));
#587=DIRECTION('',(0.707106781186548,0.,-0.707106781186548));
#588=DIRECTION('',(0.,-1.,0.));
#589=DIRECTION('',(0.,0.,-1.));
#590=DIRECTION('',(-0.707106781186548,0.,0.707106781186548));
#591=DIRECTION('',(0.,-1.,0.));
#592=DIRECTION('',(0.,0.,-1.));
#593=DIRECTION('',(6.10092185396849E-17,0.,1.));
#594=DIRECTION('',(0.,-1.,0.));
#595=DIRECTION('',(0.,0.,-1.));
#596=DIRECTION('',(-6.10092185396849E-17,0.,-1.));
#597=DIRECTION('',(0.,-1.,0.));
#598=DIRECTION('',(0.,0.,-1.));
#599=DIRECTION('',(0.,-1.,0.));
#600=DIRECTION('',(0.,0.,-1.));
#601=DIRECTION('',(0.,-1.,0.));
#602=DIRECTION('',(0.,0.,-1.));
#603=DIRECTION('',(0.,-1.,0.));
#604=DIRECTION('',(0.,0.,-1.));
#605=DIRECTION('',(0.,-1.,0.));
#606=DIRECTION('',(0.,0.,-1.));
#607=DIRECTION('',(0.,-1.,0.));
#608=DIRECTION('',(1.,0.,0.));
#609=DIRECTION('',(0.,-1.,0.));
#610=DIRECTION('',(0.,0.,-1.));
#611=DIRECTION('',(-0.707106781186548,0.,0.707106781186548));
#612=DIRECTION('',(6.10092185396849E-17,0.,1.));
#613=DIRECTION('',(0.,1.,0.));
#614=DIRECTION('',(0.707106781186548,0.,-0.707106781186548));
#615=DIRECTION('',(6.10092185396849E-17,0.,1.));
#616=DIRECTION('',(0.,-1.,0.));
#617=DIRECTION('',(0.,0.,-1.));
#618=DIRECTION('',(0.,-1.,0.));
#619=DIRECTION('',(0.,-1.,0.));
#620=DIRECTION('',(-0.707106781186548,0.,-0.707106781186547));
#621=DIRECTION('',(-0.707106781186548,0.,0.707106781186548));
#622=DIRECTION('',(-1.,0.,6.10092185396849E-17));
#623=DIRECTION('',(6.10092185396849E-17,0.,1.));
#624=DIRECTION('',(0.,-1.,0.));
#625=DIRECTION('',(0.,0.,-1.));
#626=DIRECTION('',(0.,-1.,0.));
#627=DIRECTION('',(0.,-1.,0.));
#628=DIRECTION('',(0.,0.,-1.));
#629=DIRECTION('',(0.,-1.,0.));
#630=DIRECTION('',(0.,-1.,0.));
#631=DIRECTION('',(0.,0.,-1.));
#632=DIRECTION('',(0.,-1.,0.));
#633=DIRECTION('',(0.,0.,-1.));
#634=DIRECTION('',(0.,-1.,0.));
#635=DIRECTION('',(1.,0.,0.));
#636=DIRECTION('',(0.707106781186548,0.,-0.707106781186548));
#637=DIRECTION('',(0.,-1.,0.));
#638=DIRECTION('',(0.,0.,-1.));
#639=DIRECTION('',(-6.10092185396849E-17,0.,-1.));
#640=DIRECTION('',(0.,-1.,0.));
#641=DIRECTION('',(0.,0.,-1.));
#642=DIRECTION('',(0.,-1.,0.));
#643=DIRECTION('',(0.,-1.,0.));
#644=DIRECTION('',(-0.707106781186548,0.,-0.707106781186547));
#645=DIRECTION('',(-0.707106781186548,0.,0.707106781186548));
#646=DIRECTION('',(0.,1.,0.));
#647=DIRECTION('',(-0.707106781186548,0.,0.707106781186548));
#648=DIRECTION('',(0.,1.,0.));
#649=DIRECTION('',(-1.,0.,6.10092185396849E-17));
#650=DIRECTION('',(6.10092185396849E-17,0.,1.));
#651=DIRECTION('',(6.10092185396849E-17,0.,1.));
#652=DIRECTION('',(0.,1.,0.));
#653=DIRECTION('',(0.,1.,0.));
#654=DIRECTION('',(0.,-1.,0.));
#655=DIRECTION('',(1.,0.,0.));
#656=DIRECTION('',(0.,-1.,0.));
#657=DIRECTION('',(0.,0.,-1.));
#658=DIRECTION('',(0.,-1.,0.));
#659=DIRECTION('',(0.,0.,-1.));
#660=DIRECTION('',(0.,1.,0.));
#661=DIRECTION('',(0.,0.,1.));
#662=DIRECTION('',(0.,1.,0.));
#663=DIRECTION('',(0.,0.,1.));
#664=DIRECTION('',(-0.923879532511287,0.,-0.38268343236509));
#665=DIRECTION('',(-0.38268343236509,0.,0.923879532511287));
#666=DIRECTION('',(-0.38268343236509,0.,0.923879532511287));
#667=DIRECTION('',(0.,1.,0.));
#668=DIRECTION('',(-0.38268343236509,0.,0.923879532511287));
#669=DIRECTION('',(0.,1.,0.));
#670=DIRECTION('',(0.,0.,1.));
#671=DIRECTION('',(0.,-1.,0.));
#672=DIRECTION('',(0.,0.,-1.));
#673=DIRECTION('',(0.,1.,0.));
#674=DIRECTION('',(0.,-1.,0.));
#675=DIRECTION('',(0.,0.,-1.));
#676=DIRECTION('',(0.382683432365091,0.,-0.923879532511287));
#677=DIRECTION('',(-0.923879532511287,0.,-0.382683432365091));
#678=DIRECTION('',(-0.923879532511287,0.,-0.382683432365091));
#679=DIRECTION('',(0.,1.,0.));
#680=DIRECTION('',(-0.923879532511287,0.,-0.382683432365091));
#681=DIRECTION('',(0.,1.,0.));
#682=DIRECTION('',(0.,0.,1.));
#683=DIRECTION('',(0.,-1.,0.));
#684=DIRECTION('',(0.,0.,-1.));
#685=DIRECTION('',(0.,1.,0.));
#686=DIRECTION('',(0.,-1.,0.));
#687=DIRECTION('',(0.,0.,-1.));
#688=DIRECTION('',(-0.923879532511287,0.,-0.38268343236509));
#689=DIRECTION('',(-0.38268343236509,0.,0.923879532511287));
#690=DIRECTION('',(-0.38268343236509,0.,0.923879532511287));
#691=DIRECTION('',(-0.38268343236509,0.,0.923879532511287));
#692=DIRECTION('',(0.,-1.,0.));
#693=DIRECTION('',(1.,0.,0.));
#694=DIRECTION('',(0.,-1.,0.));
#695=DIRECTION('',(1.,0.,0.));
#696=CARTESIAN_POINT('',(0.,0.,0.));
#697=CARTESIAN_POINT('',(-0.00213665315437038,0.045,0.00557963634089098));
#698=CARTESIAN_POINT('',(0.0453413087097432,0.045,-0.0458581234978672));
#699=CARTESIAN_POINT('',(0.0453453318134453,0.0056,-0.0458619805934223));
#700=CARTESIAN_POINT('',(0.0453453318521813,0.04,-0.0458619796309448));
#701=CARTESIAN_POINT('',(-0.00213665315437038,0.0056,0.00557963634089098));
#702=CARTESIAN_POINT('',(0.000663229477720596,0.0056,-0.0643699133997223));
#703=CARTESIAN_POINT('',(0.000663346845629583,0.045,-0.064364341241171));
#704=CARTESIAN_POINT('',(0.000663228752174475,0.04,-0.0643699127303155));
#705=CARTESIAN_POINT('',(-0.00213665315437038,0.04,0.00557963634089098));
#706=CARTESIAN_POINT('',(0.0151376374433641,0.02,-0.0622554495980611));
#707=CARTESIAN_POINT('',(0.0151376374433641,0.02,-0.0622554495980611));
#708=CARTESIAN_POINT('',(0.0151376374433641,0.025,-0.0622554495980611));
#709=CARTESIAN_POINT('',(-0.00213665315437018,0.02,0.00557963634089051));
#710=CARTESIAN_POINT('',(0.0336152280935898,0.02,-0.0546017809507593));
#711=CARTESIAN_POINT('',(0.0336152280935898,0.02,-0.0546017809507593));
#712=CARTESIAN_POINT('',(0.0336152280935898,0.025,-0.0546017809507593));
#713=CARTESIAN_POINT('',(-0.00213665315437018,0.025,0.00557963634089051));
#714=CARTESIAN_POINT('',(-0.0159572953201749,0.0425,0.00557963634089108));
#715=CARTESIAN_POINT('',(-0.00213665315437044,0.0425,0.00557963634089115));
#716=CARTESIAN_POINT('',(0.0149952163407858,0.0425,-0.0190475650348426));
#717=CARTESIAN_POINT('',(0.00316334684562959,0.0425,-0.0239484858479647));
#718=CARTESIAN_POINT('',(-0.0127946401775614,0.0425,0.00874229148350463));
#719=CARTESIAN_POINT('',(0.00613129574603878,0.0425,-0.0101836444400955));
#720=CARTESIAN_POINT('',(-0.00213665315437042,0.0425,0.00557963634089109));
#721=CARTESIAN_POINT('',(0.00316334684562959,0.0425,-0.0114130091270753));
#722=CARTESIAN_POINT('',(0.00316334684562959,0.0425,0.00557963634089108));
#723=CARTESIAN_POINT('',(-0.0159572953201749,0.0106,0.00557963634089108));
#724=CARTESIAN_POINT('',(-0.00213665315437042,0.0106,0.00557963634089109));
#725=CARTESIAN_POINT('',(0.00316334684562959,0.0106,-0.0114130091270753));
#726=CARTESIAN_POINT('',(0.00613129574603879,0.0106,-0.0101836444400955));
#727=CARTESIAN_POINT('',(-0.0127946401775614,0.0106,0.00874229148350463));
#728=CARTESIAN_POINT('',(0.0212585667135964,0.0106,-0.0253109154076532));
#729=CARTESIAN_POINT('',(-0.00213665315437042,0.0106,0.00557963634089112));
#730=CARTESIAN_POINT('',(0.0232196606460114,0.0105991999697416,-0.0237359714835662));
#731=CARTESIAN_POINT('',(0.0116822821024501,0.0106,-0.0121990968905741));
#732=CARTESIAN_POINT('',(0.00651947155139856,0.0106,-0.00703628633952258));
#733=CARTESIAN_POINT('',(-0.00213665315437042,0.0106,0.00557963634089109));
#734=CARTESIAN_POINT('',(0.000663346845629585,0.0106,-0.00946197261560024));
#735=CARTESIAN_POINT('',(0.000663346845629587,0.0106,-0.0167632893168602));
#736=CARTESIAN_POINT('',(0.000663346845629586,0.0106,-0.0330690699763972));
#737=CARTESIAN_POINT('',(-0.00213665315437042,0.0106,0.00557963634089112));
#738=CARTESIAN_POINT('',(0.00316334684562959,0.0106,-0.0328062008910881));
#739=CARTESIAN_POINT('',(0.00316334684562959,0.0106,0.00557963634089108));
#740=CARTESIAN_POINT('',(-0.00213665315437042,0.0112,0.00557963634089112));
#741=CARTESIAN_POINT('',(0.0212585667135964,0.0106,-0.0253109154076532));
#742=CARTESIAN_POINT('',(0.0280723497047048,0.00907270619953639,-0.0321246983987616));
#743=CARTESIAN_POINT('',(0.0348852533283569,0.00753679620324635,-0.0389376020224137));
#744=CARTESIAN_POINT('',(0.0416980305740992,0.00600000000000001,-0.045750379268156));
#745=CARTESIAN_POINT('',(0.0416980305740993,0.006,-0.0457503792681561));
#746=CARTESIAN_POINT('',(-0.00213665315437042,0.006,0.00557963634089112));
#747=CARTESIAN_POINT('',(0.00316334684562959,0.006,-0.0617119678902461));
#748=CARTESIAN_POINT('',(0.00316334684562959,0.006,-0.0617119678902461));
#749=CARTESIAN_POINT('',(0.00316334684562959,0.00753679347716185,-0.0520772630026837));
#750=CARTESIAN_POINT('',(0.00316334684562958,0.00907269514556814,-0.0424424149509069));
#751=CARTESIAN_POINT('',(0.00316334684562959,0.0106,-0.0328062008910881));
#752=CARTESIAN_POINT('',(-0.00213665315437042,0.0106,0.00557963634089112));
#753=CARTESIAN_POINT('',(0.000363346845629586,0.0106,-0.0330896344047539));
#754=CARTESIAN_POINT('',(0.000363346845629602,0.0106,-0.0330896344047539));
#755=CARTESIAN_POINT('',(0.000463346845629599,0.0106,-0.033089634404754));
#756=CARTESIAN_POINT('',(0.000563346845629599,0.0106,-0.033089634404754));
#757=CARTESIAN_POINT('',(0.000663346845629596,0.0106,-0.033089634404754));
#758=CARTESIAN_POINT('',(0.000663346845629586,0.0105983999394563,-0.0330893787652069));
#759=CARTESIAN_POINT('',(0.000663346845629584,0.0056,-0.064375706557275));
#760=CARTESIAN_POINT('',(0.000663346845629585,0.0077467001677159,-0.0509502656335865));
#761=CARTESIAN_POINT('',(0.000663346845629586,0.00941336683438256,-0.0405215749160795));
#762=CARTESIAN_POINT('',(0.000663346845629586,0.0106,-0.033089634404754));
#763=CARTESIAN_POINT('',(0.0232267514260915,0.0106,-0.0237435662142155));
#764=CARTESIAN_POINT('',(0.0284819269590309,0.00941336683438115,-0.0289987417471549));
#765=CARTESIAN_POINT('',(0.0358561248842773,0.00774670016771448,-0.0363729396724014));
#766=CARTESIAN_POINT('',(0.0453493452018307,0.00559999999999997,-0.0458661599899547));
#767=CARTESIAN_POINT('',(-0.00213665315437038,0.04,0.00557963634089098));
#768=CARTESIAN_POINT('',(0.0453493452018307,0.04,-0.0458661599899547));
#769=CARTESIAN_POINT('',(0.0343358450814522,0.0422236435361123,-0.0348526598695763));
#770=CARTESIAN_POINT('',(0.0260757199911658,0.043890310202779,-0.0265925347792899));
#771=CARTESIAN_POINT('',(0.0205689699309716,0.045,-0.0210857847190956));
#772=CARTESIAN_POINT('',(0.0205688155286342,0.0449984091712776,-0.0210856303167582));
#773=CARTESIAN_POINT('',(0.000663346845629586,0.045,-0.0293309637685313));
#774=CARTESIAN_POINT('',(0.000663346845629586,0.0438903102027798,-0.0371186843882512));
#775=CARTESIAN_POINT('',(0.000663346845629585,0.0422236435361132,-0.0488002653178325));
#776=CARTESIAN_POINT('',(0.000663346845629584,0.04,-0.064375706557275));
#777=CARTESIAN_POINT('',(0.000663346845629586,0.0449984103630524,-0.0293307370414373));
#778=CARTESIAN_POINT('',(0.000663346845629586,0.0449968206754365,-0.0293305106701609));
#779=CARTESIAN_POINT('',(0.000663346845629586,0.0449978804524154,-0.0293230684081985));
#780=CARTESIAN_POINT('',(0.000663346845629586,0.0449989402272712,-0.0293156261459333));
#781=CARTESIAN_POINT('',(0.000663346845629586,0.045,-0.0293081838833648));
#782=CARTESIAN_POINT('',(0.000663346845629586,0.045,-0.0293081838833648));
#783=CARTESIAN_POINT('',(-0.00213665315437038,0.045,0.00557963634089098));
#784=CARTESIAN_POINT('',(0.0205528621196958,0.045,-0.0210696769078198));
#785=CARTESIAN_POINT('',(0.0205686554599694,0.0449968194836617,-0.0210854702480934));
#786=CARTESIAN_POINT('',(0.020563391013418,0.044997879657902,-0.0210802058015421));
#787=CARTESIAN_POINT('',(0.0205581265666602,0.0449989398300161,-0.0210749413547843));
#788=CARTESIAN_POINT('',(0.0205528621196957,0.045,-0.0210696769078198));
#789=CARTESIAN_POINT('',(-0.0159572953201749,0.045,0.00557963634089108));
#790=CARTESIAN_POINT('',(-0.00213665315437042,0.045,0.00557963634089109));
#791=CARTESIAN_POINT('',(0.000663346845629587,0.045,-0.00946197261560024));
#792=CARTESIAN_POINT('',(0.00651947155139856,0.045,-0.00703628633952258));
#793=CARTESIAN_POINT('',(0.0116822821024501,0.045,-0.0121990968905741));
#794=CARTESIAN_POINT('',(0.000663346845629587,0.045,-0.0167632893168602));
#795=CARTESIAN_POINT('',(0.019717469884726,0.0106,-0.019810020604138));
#796=CARTESIAN_POINT('',(0.000663346845629587,0.0106,-0.0167632893168602));
#797=CARTESIAN_POINT('',(-0.00213665315437042,0.045,0.00557963634089109));
#798=CARTESIAN_POINT('',(0.000663346845629586,0.045,-0.00946197261560024));
#799=CARTESIAN_POINT('',(0.00651947155139856,0.045,-0.00703628633952258));
#800=CARTESIAN_POINT('',(0.0116822821024501,0.045,-0.0121990968905741));
#801=CARTESIAN_POINT('',(0.000663346845629587,0.045,-0.0167632893168602));
#802=CARTESIAN_POINT('',(-0.00213665315437038,0.045,0.00557963634089098));
#803=CARTESIAN_POINT('',(0.0416980305740993,0.006,-0.0457503792681561));
#804=CARTESIAN_POINT('',(0.0416980305740993,0.0378317614957623,-0.0457503792681561));
#805=CARTESIAN_POINT('',(-0.00213665315437038,0.0378317614957623,0.00557963634089098));
#806=CARTESIAN_POINT('',(0.00316334684562959,0.0378317614957623,-0.0617119678902461));
#807=CARTESIAN_POINT('',(0.00316334684562959,0.006,-0.0617119678902461));
#808=CARTESIAN_POINT('',(-0.00213665315437038,0.0375251262658471,0.00557963634089098));
#809=CARTESIAN_POINT('',(0.0416980305740993,0.0378317614957624,-0.0457503792681561));
#810=CARTESIAN_POINT('',(0.0339823293223367,0.039385755971534,-0.0380346780163935));
#811=CARTESIAN_POINT('',(0.0262665570115639,0.0409394544543228,-0.0303189057056207));
#812=CARTESIAN_POINT('',(0.0185496399530384,0.0424804859393267,-0.0226019886470952));
#813=CARTESIAN_POINT('',(0.0185496399530384,0.0424804859393267,-0.0226019886470952));
#814=CARTESIAN_POINT('',(0.0185496399530384,0.0424804859393267,-0.0226019886470952));
#815=CARTESIAN_POINT('',(0.0185170654069687,0.0424869909206194,-0.0225694141010255));
#816=CARTESIAN_POINT('',(0.0184844908320402,0.0424934956086892,-0.022536839526097));
#817=CARTESIAN_POINT('',(0.0184519162282633,0.0425,-0.0225042649223201));
#818=CARTESIAN_POINT('',(0.0184519162282633,0.0425,-0.02250426492232));
#819=CARTESIAN_POINT('',(-0.00213665315437038,0.0425,0.00557963634089098));
#820=CARTESIAN_POINT('',(0.00316334684562959,0.0425,-0.028836997709889));
#821=CARTESIAN_POINT('',(0.00316334684562958,0.0424804871210301,-0.0289751915581742));
#822=CARTESIAN_POINT('',(0.00316334684562958,0.0424869917083675,-0.0289291269830141));
#823=CARTESIAN_POINT('',(0.00316334684562958,0.0424934960025324,-0.0288830623669392));
#824=CARTESIAN_POINT('',(0.00316334684562958,0.0425,-0.028836997709889));
#825=CARTESIAN_POINT('',(0.00316334684562959,0.0424804871210301,-0.0289751915581742));
#826=CARTESIAN_POINT('',(0.00316334684562958,0.0424804871210301,-0.0289751915581742));
#827=CARTESIAN_POINT('',(0.00316334684562958,0.0409394547353695,-0.0398885667611231));
#828=CARTESIAN_POINT('',(0.00316334684562958,0.0393857563464066,-0.0508003159045492));
#829=CARTESIAN_POINT('',(0.00316334684562958,0.0378317614957623,-0.0617119678902463));
#830=CARTESIAN_POINT('',(-0.0159572953201749,0.0425,0.00557963634089108));
#831=CARTESIAN_POINT('',(-0.0127946401775614,0.0425,0.00874229148350463));
#832=CARTESIAN_POINT('',(0.0164305862378759,0.0425,-0.0204829349319326));
#833=CARTESIAN_POINT('',(-0.00213665315437041,0.0425,0.00557963634089108));
#834=CARTESIAN_POINT('',(0.00316334684562959,0.0425,-0.0259784054234517));
#835=CARTESIAN_POINT('',(0.00316334684562959,0.0425,0.00557963634089108));
#836=CARTESIAN_POINT('',(-0.00213665315437042,0.045,0.00557963634089109));
#837=CARTESIAN_POINT('',(0.00316334684562959,0.0425,-0.0114130091270753));
#838=CARTESIAN_POINT('',(0.00613129574603878,0.0425,-0.0101836444400955));
#839=CARTESIAN_POINT('',(0.0099145151494837,0.045,-0.0139668638435405));
#840=CARTESIAN_POINT('',(0.0149952163407858,0.015,-0.0190475650348426));
#841=CARTESIAN_POINT('',(0.0149952163407858,0.015,-0.0190475650348426));
#842=CARTESIAN_POINT('',(0.0099145151494837,0.015,-0.0139668638435405));
#843=CARTESIAN_POINT('',(0.0164305862378759,0.015,-0.0204829349319326));
#844=CARTESIAN_POINT('',(0.0164305862378759,0.015,-0.0204829349319326));
#845=CARTESIAN_POINT('',(0.00316334684562959,0.045,-0.0167632893168602));
#846=CARTESIAN_POINT('',(0.00316334684562959,0.015,-0.0167632893168602));
#847=CARTESIAN_POINT('',(0.00316334684562959,0.015,-0.0259784054234517));
#848=CARTESIAN_POINT('',(0.00316334684562959,0.015,-0.0239484858479647));
#849=CARTESIAN_POINT('',(0.00316334684562959,0.015,-0.0239484858479647));
#850=CARTESIAN_POINT('',(0.00316334684562959,0.015,-0.0259784054234517));
#851=CARTESIAN_POINT('',(-0.0159572953201749,0.015,0.00557963634089108));
#852=CARTESIAN_POINT('',(-0.00213665315437041,0.015,0.00557963634089108));
#853=CARTESIAN_POINT('',(-0.00213665315437044,0.015,0.00557963634089115));
#854=CARTESIAN_POINT('',(-0.00213665315437044,0.015,0.00557963634089115));
#855=CARTESIAN_POINT('',(-0.00213665315437041,0.015,0.00557963634089108));
#856=CARTESIAN_POINT('',(0.0162317231956313,0.02,-0.0648968062595837));
#857=CARTESIAN_POINT('',(0.0162317231956313,0.025,-0.0648968062595837));
#858=CARTESIAN_POINT('',(0.0173258089478985,0.025,-0.0675381629211063));
#859=CARTESIAN_POINT('',(0.0173258089478985,0.02,-0.0675381629211063));
#860=CARTESIAN_POINT('',(0.0173258089478985,0.02,-0.0675381629211063));
#861=CARTESIAN_POINT('',(0.0162317231956313,0.02,-0.0648968062595837));
#862=CARTESIAN_POINT('',(0.0219452066104549,0.02,-0.0656247457592808));
#863=CARTESIAN_POINT('',(0.0219452066104549,0.025,-0.0656247457592808));
#864=CARTESIAN_POINT('',(0.0238586237722804,0.025,-0.0702441434218373));
#865=CARTESIAN_POINT('',(0.0238586237722804,0.02,-0.0702441434218373));
#866=CARTESIAN_POINT('',(0.0238586237722804,0.02,-0.0702441434218373));
#867=CARTESIAN_POINT('',(0.0219452066104549,0.02,-0.0656247457592808));
#868=CARTESIAN_POINT('',(0.0284780214348368,0.02,-0.0683307262600119));
#869=CARTESIAN_POINT('',(0.0284780214348368,0.025,-0.0683307262600119));
#870=CARTESIAN_POINT('',(0.0330974190973933,0.025,-0.0664173090981864));
#871=CARTESIAN_POINT('',(0.0330974190973933,0.02,-0.0664173090981864));
#872=CARTESIAN_POINT('',(0.0330974190973933,0.02,-0.0664173090981864));
#873=CARTESIAN_POINT('',(0.0284780214348368,0.02,-0.0683307262600119));
#874=CARTESIAN_POINT('',(0.0311840019355678,0.02,-0.06179791143563));
#875=CARTESIAN_POINT('',(0.0311840019355678,0.025,-0.06179791143563));
#876=CARTESIAN_POINT('',(0.0358033995981242,0.025,-0.0598844942738045));
#877=CARTESIAN_POINT('',(0.0358033995981242,0.02,-0.0598844942738045));
#878=CARTESIAN_POINT('',(0.0358033995981242,0.02,-0.0598844942738045));
#879=CARTESIAN_POINT('',(0.0311840019355678,0.02,-0.06179791143563));
#880=CARTESIAN_POINT('',(0.034709313845857,0.02,-0.0572431376122819));
#881=CARTESIAN_POINT('',(0.034709313845857,0.025,-0.0572431376122819));
#882=CARTESIAN_POINT('',(0.034709313845857,0.02,-0.0572431376122819));
#883=CARTESIAN_POINT('',(0.0229624120409081,0.02,-0.0581393868574398));
#884=CARTESIAN_POINT('',(0.0229624120409081,0.025,-0.0581393868574398));
#885=MECHANICAL_DESIGN_GEOMETRIC_PRESENTATION_REPRESENTATION('',(#498),#886);
#886=(
GEOMETRIC_REPRESENTATION_CONTEXT(3)
GLOBAL_UNCERTAINTY_ASSIGNED_CONTEXT((#887))
GLOBAL_UNIT_ASSIGNED_CONTEXT((#890,#889,#888))
REPRESENTATION_CONTEXT('Pill Tray','TOP_LEVEL_ASSEMBLY_PART')
);
#887=UNCERTAINTY_MEASURE_WITH_UNIT(LENGTH_MEASURE(6.3456733455108E-05),#890,'DISTANCE_ACCURACY_VALUE','Maximum Tolerance applied to model');
#888=(
NAMED_UNIT(*)
SI_UNIT($,.STERADIAN.)
SOLID_ANGLE_UNIT()
);
#889=(
NAMED_UNIT(*)
PLANE_ANGLE_UNIT()
SI_UNIT($,.RADIAN.)
);
#890=(
LENGTH_UNIT()
NAMED_UNIT(*)
SI_UNIT($,.METRE.)
);
#891=PRODUCT_DEFINITION_SHAPE('','',#892);
#892=PRODUCT_DEFINITION('','',#894,#893);
#893=PRODUCT_DEFINITION_CONTEXT('',#900,'design');
#894=PRODUCT_DEFINITION_FORMATION_WITH_SPECIFIED_SOURCE('','',#896,.NOT_KNOWN.);
#895=PRODUCT_RELATED_PRODUCT_CATEGORY('','',(#896));
#896=PRODUCT('Pill Tray','Pill Tray','Pill Tray',(#898));
#897=PRODUCT_CATEGORY('','');
#898=PRODUCT_CONTEXT('',#900,'mechanical');
#899=APPLICATION_PROTOCOL_DEFINITION('international standard','ap242_managed_model_based_3d_engineering',2020,#900);
#900=APPLICATION_CONTEXT('managed model based 3d engineering');
ENDSEC;
END-ISO-10303-21;
