ISO-10303-21;
HEADER;
/*Generated by software containing ST-Developer
 * from STEP Tools, Inc. (www.steptools.com) 
 */
/*OPTION: using custom renumber hook */
/*description */
/*implementation_level */
FILE_DESCRIPTION(('STEP AP242 Edition 2','STEP AP242 Edition 2''CAx-IF Rec.Pracs.---Representation and Presentation of Product Manufa
cturing Information (PMI)---4.0---2014-10-13','STEP AP242 Edition 2''CAx-IF Rec.Pracs.---Representation and Presentation of Product Manufa
cturing Information (PMI)---4.0---2014-10-13''CAx-IF Rec.Pracs.---3D Tessellated Geometry---0.4---2014-09-14','STEP AP242 Edition 2''CAx-IF Rec.Pracs.---Representation and Presentation of Product Manufa
cturing Information (PMI)---4.0---2014-10-13''CAx-IF Rec.Pracs.---3D Tessellated Geometry---0.4---2014-09-14''2;1','STEP AP242 Edition 2''CAx-IF Rec.Pracs.---Representation and Presentation of Product Manufa
cturing Information (PMI)---4.0---2014-10-13''CAx-IF Rec.Pracs.---3D Tessellated Geometry---0.4---2014-09-14''2;1''CAx-IF Rec.Pracs.---User Defined Attributes---1.5---2016-08-15'),'2;1');
/*name */
/*time_stamp */
/*author */
/*organization */
/*preprocessor_version */
/*originating_system */
/*authorisation */
FILE_NAME('/vol/tmp/translate-16889729476929245782/Container Base.step','2026-03-10T15:40:27',(''),(''),'ST-DEVELOPER v20','ONSHAPE BY PTC INC, 1.211','  ');
FILE_SCHEMA(('AP242_MANAGED_MODEL_BASED_3D_ENGINEERING_MIM_LF { 1 0 10303 442 3 1 4 }'));
ENDSEC;
DATA;
#10=SHAPE_REPRESENTATION_RELATIONSHIP('','',#691,#11);
#11=ADVANCED_BREP_SHAPE_REPRESENTATION('',(#689),#1219);
#12=TOROIDAL_SURFACE('',#765,0.065,0.005);
#13=CONICAL_SURFACE('',#748,0.0699999999999938,1.4219063791854);
#14=CONICAL_SURFACE('',#767,0.0100000000000001,1.35212738092095);
#15=B_SPLINE_CURVE_WITH_KNOTS('',3,(#1120,#1121,#1122,#1123),.UNSPECIFIED.,.F.,.F.,(4,4),(0.,0.00150002065014857),.UNSPECIFIED.);
#16=B_SPLINE_CURVE_WITH_KNOTS('',3,(#1126,#1127,#1128,#1129),.UNSPECIFIED.,.F.,.F.,(4,4),(0.,0.0201883083419799),.UNSPECIFIED.);
#17=B_SPLINE_CURVE_WITH_KNOTS('',3,(#1138,#1139,#1140,#1141),.UNSPECIFIED.,.F.,.F.,(4,4),(0.,0.00150002065005599),.UNSPECIFIED.);
#18=B_SPLINE_CURVE_WITH_KNOTS('',3,(#1144,#1145,#1146,#1147),.UNSPECIFIED.,.F.,.F.,(4,4),(4.91683186888883E-16,0.0201883083419804),.UNSPECIFIED.);
#19=B_SPLINE_CURVE_WITH_KNOTS('',3,(#1170,#1171,#1172,#1173,#1174,#1175,#1176,#1177,#1178,#1179,#1180,#1181,#1182),.UNSPECIFIED.,.F.,.F.,(4,1,1,1,1,1,1,1,1,1,4),(0.,0.00599405036292406,0.00899107554438609,0.0119881007258481,0.0149851259073101,0.0179821510887722,0.0194806636795032,0.0209791762702342,0.0224776888609652,0.0232269451563307,0.0239762014516962),.UNSPECIFIED.);
#20=B_SPLINE_CURVE_WITH_KNOTS('',3,(#1183,#1184,#1185,#1186,#1187,#1188,#1189),.UNSPECIFIED.,.F.,.F.,(4,1,1,1,4),(0.,0.0024188843531044,0.0048377687062088,0.00725665305931321,0.00967553741241761),.UNSPECIFIED.);
#21=B_SPLINE_CURVE_WITH_KNOTS('',3,(#1191,#1192,#1193,#1194,#1195,#1196,#1197,#1198,#1199,#1200,#1201,#1202,#1203),.UNSPECIFIED.,.F.,.F.,(4,1,1,1,1,1,1,1,1,1,4),(0.,0.000757781520113919,0.00151556304022784,0.00303112608045568,0.00454668912068351,0.00606225216091135,0.00909337824136703,0.0121245043218227,0.0151556304022784,0.0181867564827341,0.0242490086436454),.UNSPECIFIED.);
#22=B_SPLINE_CURVE_WITH_KNOTS('',3,(#1204,#1205,#1206,#1207,#1208,#1209,#1210),.UNSPECIFIED.,.F.,.F.,(4,1,1,1,4),(0.,0.00241888435310441,0.00483776870620882,0.00725665305931323,0.00967553741241764),.UNSPECIFIED.);
#23=CYLINDRICAL_SURFACE('',#709,0.07);
#24=CYLINDRICAL_SURFACE('',#712,0.07);
#25=CYLINDRICAL_SURFACE('',#720,0.068);
#26=CYLINDRICAL_SURFACE('',#724,0.0325);
#27=CYLINDRICAL_SURFACE('',#727,0.009);
#28=CYLINDRICAL_SURFACE('',#731,0.0053);
#29=CYLINDRICAL_SURFACE('',#734,0.0499999999999933);
#30=CYLINDRICAL_SURFACE('',#749,0.006);
#31=CYLINDRICAL_SURFACE('',#753,0.006);
#32=CYLINDRICAL_SURFACE('',#757,0.001);
#33=CYLINDRICAL_SURFACE('',#760,0.001);
#34=CYLINDRICAL_SURFACE('',#763,0.005);
#35=CYLINDRICAL_SURFACE('',#764,0.005);
#36=CYLINDRICAL_SURFACE('',#768,0.065);
#37=LINE('',#979,#83);
#38=LINE('',#984,#84);
#39=LINE('',#988,#85);
#40=LINE('',#993,#86);
#41=LINE('',#1001,#87);
#42=LINE('',#1005,#88);
#43=LINE('',#1015,#89);
#44=LINE('',#1017,#90);
#45=LINE('',#1019,#91);
#46=LINE('',#1023,#92);
#47=LINE('',#1025,#93);
#48=LINE('',#1027,#94);
#49=LINE('',#1032,#95);
#50=LINE('',#1036,#96);
#51=LINE('',#1057,#97);
#52=LINE('',#1061,#98);
#53=LINE('',#1063,#99);
#54=LINE('',#1065,#100);
#55=LINE('',#1067,#101);
#56=LINE('',#1071,#102);
#57=LINE('',#1075,#103);
#58=LINE('',#1077,#104);
#59=LINE('',#1079,#105);
#60=LINE('',#1081,#106);
#61=LINE('',#1083,#107);
#62=LINE('',#1085,#108);
#63=LINE('',#1087,#109);
#64=LINE('',#1089,#110);
#65=LINE('',#1091,#111);
#66=LINE('',#1093,#112);
#67=LINE('',#1095,#113);
#68=LINE('',#1100,#114);
#69=LINE('',#1104,#115);
#70=LINE('',#1106,#116);
#71=LINE('',#1107,#117);
#72=LINE('',#1109,#118);
#73=LINE('',#1110,#119);
#74=LINE('',#1111,#120);
#75=LINE('',#1113,#121);
#76=LINE('',#1115,#122);
#77=LINE('',#1117,#123);
#78=LINE('',#1119,#124);
#79=LINE('',#1131,#125);
#80=LINE('',#1133,#126);
#81=LINE('',#1135,#127);
#82=LINE('',#1136,#128);
#83=VECTOR('',#777,1.);
#84=VECTOR('',#780,1.);
#85=VECTOR('',#785,1.);
#86=VECTOR('',#788,1.);
#87=VECTOR('',#795,1.);
#88=VECTOR('',#798,1.);
#89=VECTOR('',#809,1.);
#90=VECTOR('',#810,1.);
#91=VECTOR('',#811,1.);
#92=VECTOR('',#814,1.);
#93=VECTOR('',#815,1.);
#94=VECTOR('',#816,1.);
#95=VECTOR('',#821,1.);
#96=VECTOR('',#824,1.);
#97=VECTOR('',#851,1.);
#98=VECTOR('',#854,1.);
#99=VECTOR('',#857,1.);
#100=VECTOR('',#858,1.);
#101=VECTOR('',#861,1.);
#102=VECTOR('',#866,1.);
#103=VECTOR('',#873,1.);
#104=VECTOR('',#874,1.);
#105=VECTOR('',#875,1.);
#106=VECTOR('',#876,1.);
#107=VECTOR('',#877,1.);
#108=VECTOR('',#880,1.);
#109=VECTOR('',#881,1.);
#110=VECTOR('',#882,1.);
#111=VECTOR('',#883,1.);
#112=VECTOR('',#884,1.);
#113=VECTOR('',#887,1.);
#114=VECTOR('',#890,1.);
#115=VECTOR('',#895,1.);
#116=VECTOR('',#896,1.);
#117=VECTOR('',#897,1.);
#118=VECTOR('',#898,1.);
#119=VECTOR('',#899,1.);
#120=VECTOR('',#900,1.);
#121=VECTOR('',#903,1.);
#122=VECTOR('',#906,1.);
#123=VECTOR('',#909,1.);
#124=VECTOR('',#910,1.);
#125=VECTOR('',#917,1.);
#126=VECTOR('',#920,1.);
#127=VECTOR('',#923,1.);
#128=VECTOR('',#924,1.);
#129=ORIENTED_EDGE('',*,*,#311,.F.);
#130=ORIENTED_EDGE('',*,*,#312,.T.);
#131=ORIENTED_EDGE('',*,*,#313,.T.);
#132=ORIENTED_EDGE('',*,*,#314,.T.);
#133=ORIENTED_EDGE('',*,*,#315,.T.);
#134=ORIENTED_EDGE('',*,*,#316,.T.);
#135=ORIENTED_EDGE('',*,*,#317,.T.);
#136=ORIENTED_EDGE('',*,*,#318,.F.);
#137=ORIENTED_EDGE('',*,*,#319,.F.);
#138=ORIENTED_EDGE('',*,*,#320,.T.);
#139=ORIENTED_EDGE('',*,*,#321,.F.);
#140=ORIENTED_EDGE('',*,*,#322,.T.);
#141=ORIENTED_EDGE('',*,*,#323,.T.);
#142=ORIENTED_EDGE('',*,*,#324,.F.);
#143=ORIENTED_EDGE('',*,*,#325,.F.);
#144=ORIENTED_EDGE('',*,*,#326,.T.);
#145=ORIENTED_EDGE('',*,*,#327,.F.);
#146=ORIENTED_EDGE('',*,*,#328,.T.);
#147=ORIENTED_EDGE('',*,*,#329,.F.);
#148=ORIENTED_EDGE('',*,*,#330,.F.);
#149=ORIENTED_EDGE('',*,*,#331,.F.);
#150=ORIENTED_EDGE('',*,*,#332,.T.);
#151=ORIENTED_EDGE('',*,*,#333,.F.);
#152=ORIENTED_EDGE('',*,*,#334,.F.);
#153=ORIENTED_EDGE('',*,*,#335,.T.);
#154=ORIENTED_EDGE('',*,*,#336,.T.);
#155=ORIENTED_EDGE('',*,*,#337,.T.);
#156=ORIENTED_EDGE('',*,*,#338,.T.);
#157=ORIENTED_EDGE('',*,*,#339,.F.);
#158=ORIENTED_EDGE('',*,*,#340,.F.);
#159=ORIENTED_EDGE('',*,*,#341,.T.);
#160=ORIENTED_EDGE('',*,*,#333,.T.);
#161=ORIENTED_EDGE('',*,*,#342,.T.);
#162=ORIENTED_EDGE('',*,*,#343,.T.);
#163=ORIENTED_EDGE('',*,*,#344,.T.);
#164=ORIENTED_EDGE('',*,*,#329,.T.);
#165=ORIENTED_EDGE('',*,*,#327,.T.);
#166=ORIENTED_EDGE('',*,*,#325,.T.);
#167=ORIENTED_EDGE('',*,*,#345,.T.);
#168=ORIENTED_EDGE('',*,*,#346,.T.);
#169=ORIENTED_EDGE('',*,*,#347,.F.);
#170=ORIENTED_EDGE('',*,*,#348,.F.);
#171=ORIENTED_EDGE('',*,*,#349,.T.);
#172=ORIENTED_EDGE('',*,*,#349,.F.);
#173=ORIENTED_EDGE('',*,*,#347,.T.);
#174=ORIENTED_EDGE('',*,*,#317,.F.);
#175=ORIENTED_EDGE('',*,*,#350,.F.);
#176=ORIENTED_EDGE('',*,*,#351,.T.);
#177=ORIENTED_EDGE('',*,*,#352,.T.);
#178=ORIENTED_EDGE('',*,*,#353,.T.);
#179=ORIENTED_EDGE('',*,*,#318,.T.);
#180=ORIENTED_EDGE('',*,*,#352,.F.);
#181=ORIENTED_EDGE('',*,*,#354,.F.);
#182=ORIENTED_EDGE('',*,*,#355,.T.);
#183=ORIENTED_EDGE('',*,*,#319,.T.);
#184=ORIENTED_EDGE('',*,*,#353,.F.);
#185=ORIENTED_EDGE('',*,*,#356,.F.);
#186=ORIENTED_EDGE('',*,*,#316,.F.);
#187=ORIENTED_EDGE('',*,*,#355,.F.);
#188=ORIENTED_EDGE('',*,*,#357,.T.);
#189=ORIENTED_EDGE('',*,*,#350,.T.);
#190=ORIENTED_EDGE('',*,*,#351,.F.);
#191=ORIENTED_EDGE('',*,*,#357,.F.);
#192=ORIENTED_EDGE('',*,*,#356,.T.);
#193=ORIENTED_EDGE('',*,*,#354,.T.);
#194=ORIENTED_EDGE('',*,*,#311,.T.);
#195=ORIENTED_EDGE('',*,*,#320,.F.);
#196=ORIENTED_EDGE('',*,*,#343,.F.);
#197=ORIENTED_EDGE('',*,*,#358,.F.);
#198=ORIENTED_EDGE('',*,*,#359,.F.);
#199=ORIENTED_EDGE('',*,*,#360,.T.);
#200=ORIENTED_EDGE('',*,*,#361,.T.);
#201=ORIENTED_EDGE('',*,*,#362,.F.);
#202=ORIENTED_EDGE('',*,*,#346,.F.);
#203=ORIENTED_EDGE('',*,*,#363,.T.);
#204=ORIENTED_EDGE('',*,*,#364,.F.);
#205=ORIENTED_EDGE('',*,*,#365,.T.);
#206=ORIENTED_EDGE('',*,*,#366,.T.);
#207=ORIENTED_EDGE('',*,*,#367,.T.);
#208=ORIENTED_EDGE('',*,*,#368,.T.);
#209=ORIENTED_EDGE('',*,*,#369,.T.);
#210=ORIENTED_EDGE('',*,*,#370,.T.);
#211=ORIENTED_EDGE('',*,*,#371,.F.);
#212=ORIENTED_EDGE('',*,*,#365,.F.);
#213=ORIENTED_EDGE('',*,*,#372,.F.);
#214=ORIENTED_EDGE('',*,*,#373,.F.);
#215=ORIENTED_EDGE('',*,*,#371,.T.);
#216=ORIENTED_EDGE('',*,*,#374,.T.);
#217=ORIENTED_EDGE('',*,*,#375,.T.);
#218=ORIENTED_EDGE('',*,*,#360,.F.);
#219=ORIENTED_EDGE('',*,*,#376,.F.);
#220=ORIENTED_EDGE('',*,*,#339,.T.);
#221=ORIENTED_EDGE('',*,*,#377,.T.);
#222=ORIENTED_EDGE('',*,*,#344,.F.);
#223=ORIENTED_EDGE('',*,*,#362,.T.);
#224=ORIENTED_EDGE('',*,*,#378,.F.);
#225=ORIENTED_EDGE('',*,*,#342,.F.);
#226=ORIENTED_EDGE('',*,*,#379,.T.);
#227=ORIENTED_EDGE('',*,*,#358,.T.);
#228=ORIENTED_EDGE('',*,*,#380,.T.);
#229=ORIENTED_EDGE('',*,*,#331,.T.);
#230=ORIENTED_EDGE('',*,*,#381,.F.);
#231=ORIENTED_EDGE('',*,*,#374,.F.);
#232=ORIENTED_EDGE('',*,*,#370,.F.);
#233=ORIENTED_EDGE('',*,*,#382,.T.);
#234=ORIENTED_EDGE('',*,*,#381,.T.);
#235=ORIENTED_EDGE('',*,*,#330,.T.);
#236=ORIENTED_EDGE('',*,*,#378,.T.);
#237=ORIENTED_EDGE('',*,*,#361,.F.);
#238=ORIENTED_EDGE('',*,*,#375,.F.);
#239=ORIENTED_EDGE('',*,*,#380,.F.);
#240=ORIENTED_EDGE('',*,*,#383,.T.);
#241=ORIENTED_EDGE('',*,*,#340,.T.);
#242=ORIENTED_EDGE('',*,*,#376,.T.);
#243=ORIENTED_EDGE('',*,*,#359,.T.);
#244=ORIENTED_EDGE('',*,*,#379,.F.);
#245=ORIENTED_EDGE('',*,*,#332,.F.);
#246=ORIENTED_EDGE('',*,*,#341,.F.);
#247=ORIENTED_EDGE('',*,*,#367,.F.);
#248=ORIENTED_EDGE('',*,*,#384,.F.);
#249=ORIENTED_EDGE('',*,*,#345,.F.);
#250=ORIENTED_EDGE('',*,*,#385,.T.);
#251=ORIENTED_EDGE('',*,*,#363,.F.);
#252=ORIENTED_EDGE('',*,*,#368,.F.);
#253=ORIENTED_EDGE('',*,*,#373,.T.);
#254=ORIENTED_EDGE('',*,*,#386,.T.);
#255=ORIENTED_EDGE('',*,*,#335,.F.);
#256=ORIENTED_EDGE('',*,*,#387,.F.);
#257=ORIENTED_EDGE('',*,*,#388,.T.);
#258=ORIENTED_EDGE('',*,*,#336,.F.);
#259=ORIENTED_EDGE('',*,*,#386,.F.);
#260=ORIENTED_EDGE('',*,*,#372,.T.);
#261=ORIENTED_EDGE('',*,*,#364,.T.);
#262=ORIENTED_EDGE('',*,*,#385,.F.);
#263=ORIENTED_EDGE('',*,*,#338,.F.);
#264=ORIENTED_EDGE('',*,*,#389,.T.);
#265=ORIENTED_EDGE('',*,*,#387,.T.);
#266=ORIENTED_EDGE('',*,*,#334,.T.);
#267=ORIENTED_EDGE('',*,*,#384,.T.);
#268=ORIENTED_EDGE('',*,*,#366,.F.);
#269=ORIENTED_EDGE('',*,*,#377,.F.);
#270=ORIENTED_EDGE('',*,*,#382,.F.);
#271=ORIENTED_EDGE('',*,*,#369,.F.);
#272=ORIENTED_EDGE('',*,*,#388,.F.);
#273=ORIENTED_EDGE('',*,*,#389,.F.);
#274=ORIENTED_EDGE('',*,*,#337,.F.);
#275=ORIENTED_EDGE('',*,*,#383,.F.);
#276=ORIENTED_EDGE('',*,*,#390,.T.);
#277=ORIENTED_EDGE('',*,*,#328,.F.);
#278=ORIENTED_EDGE('',*,*,#391,.F.);
#279=ORIENTED_EDGE('',*,*,#390,.F.);
#280=ORIENTED_EDGE('',*,*,#392,.T.);
#281=ORIENTED_EDGE('',*,*,#326,.F.);
#282=ORIENTED_EDGE('',*,*,#393,.F.);
#283=ORIENTED_EDGE('',*,*,#392,.F.);
#284=ORIENTED_EDGE('',*,*,#394,.F.);
#285=ORIENTED_EDGE('',*,*,#393,.T.);
#286=ORIENTED_EDGE('',*,*,#394,.T.);
#287=ORIENTED_EDGE('',*,*,#395,.F.);
#288=ORIENTED_EDGE('',*,*,#391,.T.);
#289=ORIENTED_EDGE('',*,*,#395,.T.);
#290=ORIENTED_EDGE('',*,*,#322,.F.);
#291=ORIENTED_EDGE('',*,*,#396,.T.);
#292=ORIENTED_EDGE('',*,*,#314,.F.);
#293=ORIENTED_EDGE('',*,*,#397,.F.);
#294=ORIENTED_EDGE('',*,*,#312,.F.);
#295=ORIENTED_EDGE('',*,*,#398,.T.);
#296=ORIENTED_EDGE('',*,*,#324,.T.);
#297=ORIENTED_EDGE('',*,*,#399,.F.);
#298=ORIENTED_EDGE('',*,*,#397,.T.);
#299=ORIENTED_EDGE('',*,*,#400,.F.);
#300=ORIENTED_EDGE('',*,*,#399,.T.);
#301=ORIENTED_EDGE('',*,*,#323,.F.);
#302=ORIENTED_EDGE('',*,*,#396,.F.);
#303=ORIENTED_EDGE('',*,*,#321,.T.);
#304=ORIENTED_EDGE('',*,*,#398,.F.);
#305=ORIENTED_EDGE('',*,*,#315,.F.);
#306=ORIENTED_EDGE('',*,*,#401,.T.);
#307=ORIENTED_EDGE('',*,*,#400,.T.);
#308=ORIENTED_EDGE('',*,*,#313,.F.);
#309=ORIENTED_EDGE('',*,*,#401,.F.);
#310=ORIENTED_EDGE('',*,*,#348,.T.);
#311=EDGE_CURVE('',#402,#402,#464,.T.);
#312=EDGE_CURVE('',#403,#404,#37,.T.);
#313=EDGE_CURVE('',#404,#405,#465,.T.);
#314=EDGE_CURVE('',#405,#406,#38,.F.);
#315=EDGE_CURVE('',#406,#403,#466,.T.);
#316=EDGE_CURVE('',#407,#408,#39,.T.);
#317=EDGE_CURVE('',#408,#409,#467,.T.);
#318=EDGE_CURVE('',#410,#409,#40,.T.);
#319=EDGE_CURVE('',#407,#410,#468,.T.);
#320=EDGE_CURVE('',#411,#411,#469,.T.);
#321=EDGE_CURVE('',#412,#413,#470,.T.);
#322=EDGE_CURVE('',#412,#414,#41,.T.);
#323=EDGE_CURVE('',#414,#415,#471,.T.);
#324=EDGE_CURVE('',#413,#415,#42,.T.);
#325=EDGE_CURVE('',#416,#417,#472,.T.);
#326=EDGE_CURVE('',#416,#416,#473,.T.);
#327=EDGE_CURVE('',#418,#416,#474,.T.);
#328=EDGE_CURVE('',#418,#418,#475,.T.);
#329=EDGE_CURVE('',#419,#418,#476,.T.);
#330=EDGE_CURVE('',#420,#419,#43,.F.);
#331=EDGE_CURVE('',#421,#420,#44,.T.);
#332=EDGE_CURVE('',#421,#422,#45,.F.);
#333=EDGE_CURVE('',#423,#422,#477,.T.);
#334=EDGE_CURVE('',#424,#423,#46,.F.);
#335=EDGE_CURVE('',#424,#425,#47,.T.);
#336=EDGE_CURVE('',#425,#417,#48,.F.);
#337=EDGE_CURVE('',#426,#427,#478,.T.);
#338=EDGE_CURVE('',#427,#428,#49,.T.);
#339=EDGE_CURVE('',#429,#428,#479,.T.);
#340=EDGE_CURVE('',#426,#429,#50,.T.);
#341=EDGE_CURVE('',#430,#423,#480,.T.);
#342=EDGE_CURVE('',#422,#431,#481,.T.);
#343=EDGE_CURVE('',#431,#432,#482,.T.);
#344=EDGE_CURVE('',#432,#419,#483,.T.);
#345=EDGE_CURVE('',#417,#433,#484,.T.);
#346=EDGE_CURVE('',#433,#430,#485,.T.);
#347=EDGE_CURVE('',#434,#434,#486,.T.);
#348=EDGE_CURVE('',#435,#435,#487,.T.);
#349=EDGE_CURVE('',#436,#436,#488,.T.);
#350=EDGE_CURVE('',#437,#408,#51,.T.);
#351=EDGE_CURVE('',#437,#438,#489,.T.);
#352=EDGE_CURVE('',#438,#409,#52,.T.);
#353=EDGE_CURVE('',#439,#410,#53,.T.);
#354=EDGE_CURVE('',#439,#438,#54,.T.);
#355=EDGE_CURVE('',#440,#407,#55,.T.);
#356=EDGE_CURVE('',#440,#439,#490,.T.);
#357=EDGE_CURVE('',#440,#437,#56,.T.);
#358=EDGE_CURVE('',#441,#431,#57,.T.);
#359=EDGE_CURVE('',#442,#441,#58,.F.);
#360=EDGE_CURVE('',#442,#443,#59,.T.);
#361=EDGE_CURVE('',#443,#444,#60,.F.);
#362=EDGE_CURVE('',#432,#444,#61,.T.);
#363=EDGE_CURVE('',#433,#445,#62,.T.);
#364=EDGE_CURVE('',#446,#445,#63,.F.);
#365=EDGE_CURVE('',#446,#447,#64,.T.);
#366=EDGE_CURVE('',#447,#448,#65,.F.);
#367=EDGE_CURVE('',#448,#430,#66,.T.);
#368=EDGE_CURVE('',#449,#450,#67,.T.);
#369=EDGE_CURVE('',#450,#451,#491,.F.);
#370=EDGE_CURVE('',#451,#452,#68,.F.);
#371=EDGE_CURVE('',#449,#452,#492,.T.);
#372=EDGE_CURVE('',#453,#446,#69,.F.);
#373=EDGE_CURVE('',#449,#453,#70,.T.);
#374=EDGE_CURVE('',#452,#454,#71,.T.);
#375=EDGE_CURVE('',#454,#443,#72,.F.);
#376=EDGE_CURVE('',#429,#442,#73,.F.);
#377=EDGE_CURVE('',#428,#447,#74,.F.);
#378=EDGE_CURVE('',#419,#444,#75,.F.);
#379=EDGE_CURVE('',#422,#441,#76,.F.);
#380=EDGE_CURVE('',#455,#421,#77,.F.);
#381=EDGE_CURVE('',#454,#420,#78,.F.);
#382=EDGE_CURVE('',#451,#455,#15,.T.);
#383=EDGE_CURVE('',#455,#426,#16,.T.);
#384=EDGE_CURVE('',#423,#448,#79,.F.);
#385=EDGE_CURVE('',#417,#445,#80,.F.);
#386=EDGE_CURVE('',#453,#425,#81,.F.);
#387=EDGE_CURVE('',#456,#424,#82,.F.);
#388=EDGE_CURVE('',#456,#450,#17,.T.);
#389=EDGE_CURVE('',#427,#456,#18,.T.);
#390=EDGE_CURVE('',#457,#457,#493,.T.);
#391=EDGE_CURVE('',#458,#458,#494,.T.);
#392=EDGE_CURVE('',#459,#459,#495,.T.);
#393=EDGE_CURVE('',#460,#460,#496,.T.);
#394=EDGE_CURVE('',#461,#461,#497,.T.);
#395=EDGE_CURVE('',#462,#462,#498,.T.);
#396=EDGE_CURVE('',#412,#406,#19,.T.);
#397=EDGE_CURVE('',#414,#405,#20,.T.);
#398=EDGE_CURVE('',#403,#413,#21,.T.);
#399=EDGE_CURVE('',#404,#415,#22,.F.);
#400=EDGE_CURVE('',#404,#405,#499,.F.);
#401=EDGE_CURVE('',#463,#463,#500,.T.);
#402=VERTEX_POINT('',#978);
#403=VERTEX_POINT('',#980);
#404=VERTEX_POINT('',#981);
#405=VERTEX_POINT('',#983);
#406=VERTEX_POINT('',#985);
#407=VERTEX_POINT('',#989);
#408=VERTEX_POINT('',#990);
#409=VERTEX_POINT('',#992);
#410=VERTEX_POINT('',#994);
#411=VERTEX_POINT('',#997);
#412=VERTEX_POINT('',#999);
#413=VERTEX_POINT('',#1000);
#414=VERTEX_POINT('',#1002);
#415=VERTEX_POINT('',#1004);
#416=VERTEX_POINT('',#1007);
#417=VERTEX_POINT('',#1008);
#418=VERTEX_POINT('',#1011);
#419=VERTEX_POINT('',#1014);
#420=VERTEX_POINT('',#1016);
#421=VERTEX_POINT('',#1018);
#422=VERTEX_POINT('',#1020);
#423=VERTEX_POINT('',#1022);
#424=VERTEX_POINT('',#1024);
#425=VERTEX_POINT('',#1026);
#426=VERTEX_POINT('',#1030);
#427=VERTEX_POINT('',#1031);
#428=VERTEX_POINT('',#1033);
#429=VERTEX_POINT('',#1035);
#430=VERTEX_POINT('',#1039);
#431=VERTEX_POINT('',#1041);
#432=VERTEX_POINT('',#1043);
#433=VERTEX_POINT('',#1046);
#434=VERTEX_POINT('',#1049);
#435=VERTEX_POINT('',#1052);
#436=VERTEX_POINT('',#1054);
#437=VERTEX_POINT('',#1058);
#438=VERTEX_POINT('',#1060);
#439=VERTEX_POINT('',#1064);
#440=VERTEX_POINT('',#1068);
#441=VERTEX_POINT('',#1076);
#442=VERTEX_POINT('',#1078);
#443=VERTEX_POINT('',#1080);
#444=VERTEX_POINT('',#1082);
#445=VERTEX_POINT('',#1086);
#446=VERTEX_POINT('',#1088);
#447=VERTEX_POINT('',#1090);
#448=VERTEX_POINT('',#1092);
#449=VERTEX_POINT('',#1096);
#450=VERTEX_POINT('',#1097);
#451=VERTEX_POINT('',#1099);
#452=VERTEX_POINT('',#1101);
#453=VERTEX_POINT('',#1105);
#454=VERTEX_POINT('',#1108);
#455=VERTEX_POINT('',#1118);
#456=VERTEX_POINT('',#1137);
#457=VERTEX_POINT('',#1151);
#458=VERTEX_POINT('',#1154);
#459=VERTEX_POINT('',#1157);
#460=VERTEX_POINT('',#1160);
#461=VERTEX_POINT('',#1163);
#462=VERTEX_POINT('',#1167);
#463=VERTEX_POINT('',#1216);
#464=CIRCLE('',#694,0.0053);
#465=CIRCLE('',#695,0.065);
#466=CIRCLE('',#696,0.0100000000000001);
#467=CIRCLE('',#698,0.0325);
#468=CIRCLE('',#699,0.009);
#469=CIRCLE('',#700,0.0053);
#470=CIRCLE('',#701,0.0325);
#471=CIRCLE('',#702,0.06);
#472=CIRCLE('',#703,0.07);
#473=CIRCLE('',#704,0.006);
#474=CIRCLE('',#705,0.07);
#475=CIRCLE('',#706,0.006);
#476=CIRCLE('',#707,0.07);
#477=CIRCLE('',#708,0.07);
#478=CIRCLE('',#710,0.07);
#479=CIRCLE('',#711,0.07);
#480=CIRCLE('',#713,0.07);
#481=CIRCLE('',#714,0.07);
#482=CIRCLE('',#715,0.07);
#483=CIRCLE('',#716,0.07);
#484=CIRCLE('',#717,0.07);
#485=CIRCLE('',#718,0.07);
#486=CIRCLE('',#719,0.07);
#487=CIRCLE('',#721,0.068);
#488=CIRCLE('',#722,0.068);
#489=CIRCLE('',#725,0.0325);
#490=CIRCLE('',#728,0.009);
#491=CIRCLE('',#735,0.0499999999999933);
#492=CIRCLE('',#736,0.0499999999999933);
#493=CIRCLE('',#750,0.006);
#494=CIRCLE('',#752,0.001);
#495=CIRCLE('',#754,0.006);
#496=CIRCLE('',#756,0.001);
#497=CIRCLE('',#758,0.001);
#498=CIRCLE('',#761,0.001);
#499=CIRCLE('',#766,0.065);
#500=CIRCLE('',#769,0.065);
#501=EDGE_LOOP('',(#129));
#502=EDGE_LOOP('',(#130,#131,#132,#133));
#503=EDGE_LOOP('',(#134,#135,#136,#137));
#504=EDGE_LOOP('',(#138));
#505=EDGE_LOOP('',(#139,#140,#141,#142));
#506=EDGE_LOOP('',(#143,#144,#145,#146,#147,#148,#149,#150,#151,#152,#153,#154));
#507=EDGE_LOOP('',(#155,#156,#157,#158));
#508=EDGE_LOOP('',(#159,#160,#161,#162,#163,#164,#165,#166,#167,#168));
#509=EDGE_LOOP('',(#169));
#510=EDGE_LOOP('',(#170));
#511=EDGE_LOOP('',(#171));
#512=EDGE_LOOP('',(#172));
#513=EDGE_LOOP('',(#173));
#514=EDGE_LOOP('',(#174,#175,#176,#177));
#515=EDGE_LOOP('',(#178,#179,#180,#181));
#516=EDGE_LOOP('',(#182,#183,#184,#185));
#517=EDGE_LOOP('',(#186,#187,#188,#189));
#518=EDGE_LOOP('',(#190,#191,#192,#193));
#519=EDGE_LOOP('',(#194));
#520=EDGE_LOOP('',(#195));
#521=EDGE_LOOP('',(#196,#197,#198,#199,#200,#201));
#522=EDGE_LOOP('',(#202,#203,#204,#205,#206,#207));
#523=EDGE_LOOP('',(#208,#209,#210,#211));
#524=EDGE_LOOP('',(#212,#213,#214,#215,#216,#217,#218,#219,#220,#221));
#525=EDGE_LOOP('',(#222,#223,#224));
#526=EDGE_LOOP('',(#225,#226,#227));
#527=EDGE_LOOP('',(#228,#229,#230,#231,#232,#233));
#528=EDGE_LOOP('',(#234,#235,#236,#237,#238));
#529=EDGE_LOOP('',(#239,#240,#241,#242,#243,#244,#245));
#530=EDGE_LOOP('',(#246,#247,#248));
#531=EDGE_LOOP('',(#249,#250,#251));
#532=EDGE_LOOP('',(#252,#253,#254,#255,#256,#257));
#533=EDGE_LOOP('',(#258,#259,#260,#261,#262));
#534=EDGE_LOOP('',(#263,#264,#265,#266,#267,#268,#269));
#535=EDGE_LOOP('',(#270,#271,#272,#273,#274,#275));
#536=EDGE_LOOP('',(#276));
#537=EDGE_LOOP('',(#277));
#538=EDGE_LOOP('',(#278));
#539=EDGE_LOOP('',(#279));
#540=EDGE_LOOP('',(#280));
#541=EDGE_LOOP('',(#281));
#542=EDGE_LOOP('',(#282));
#543=EDGE_LOOP('',(#283));
#544=EDGE_LOOP('',(#284));
#545=EDGE_LOOP('',(#285));
#546=EDGE_LOOP('',(#286));
#547=EDGE_LOOP('',(#287));
#548=EDGE_LOOP('',(#288));
#549=EDGE_LOOP('',(#289));
#550=EDGE_LOOP('',(#290,#291,#292,#293));
#551=EDGE_LOOP('',(#294,#295,#296,#297));
#552=EDGE_LOOP('',(#298,#299,#300,#301));
#553=EDGE_LOOP('',(#302,#303,#304,#305));
#554=EDGE_LOOP('',(#306));
#555=EDGE_LOOP('',(#307,#308));
#556=EDGE_LOOP('',(#309));
#557=EDGE_LOOP('',(#310));
#558=FACE_BOUND('',#501,.T.);
#559=FACE_BOUND('',#502,.T.);
#560=FACE_BOUND('',#503,.T.);
#561=FACE_BOUND('',#504,.T.);
#562=FACE_BOUND('',#505,.T.);
#563=FACE_BOUND('',#506,.T.);
#564=FACE_BOUND('',#507,.T.);
#565=FACE_BOUND('',#508,.T.);
#566=FACE_BOUND('',#509,.T.);
#567=FACE_BOUND('',#510,.T.);
#568=FACE_BOUND('',#511,.T.);
#569=FACE_BOUND('',#512,.T.);
#570=FACE_BOUND('',#513,.T.);
#571=FACE_BOUND('',#514,.T.);
#572=FACE_BOUND('',#515,.T.);
#573=FACE_BOUND('',#516,.T.);
#574=FACE_BOUND('',#517,.T.);
#575=FACE_BOUND('',#518,.T.);
#576=FACE_BOUND('',#519,.T.);
#577=FACE_BOUND('',#520,.T.);
#578=FACE_BOUND('',#521,.T.);
#579=FACE_BOUND('',#522,.T.);
#580=FACE_BOUND('',#523,.T.);
#581=FACE_BOUND('',#524,.T.);
#582=FACE_BOUND('',#525,.T.);
#583=FACE_BOUND('',#526,.T.);
#584=FACE_BOUND('',#527,.T.);
#585=FACE_BOUND('',#528,.T.);
#586=FACE_BOUND('',#529,.T.);
#587=FACE_BOUND('',#530,.T.);
#588=FACE_BOUND('',#531,.T.);
#589=FACE_BOUND('',#532,.T.);
#590=FACE_BOUND('',#533,.T.);
#591=FACE_BOUND('',#534,.T.);
#592=FACE_BOUND('',#535,.T.);
#593=FACE_BOUND('',#536,.T.);
#594=FACE_BOUND('',#537,.T.);
#595=FACE_BOUND('',#538,.T.);
#596=FACE_BOUND('',#539,.T.);
#597=FACE_BOUND('',#540,.T.);
#598=FACE_BOUND('',#541,.T.);
#599=FACE_BOUND('',#542,.T.);
#600=FACE_BOUND('',#543,.T.);
#601=FACE_BOUND('',#544,.T.);
#602=FACE_BOUND('',#545,.T.);
#603=FACE_BOUND('',#546,.T.);
#604=FACE_BOUND('',#547,.T.);
#605=FACE_BOUND('',#548,.T.);
#606=FACE_BOUND('',#549,.T.);
#607=FACE_BOUND('',#550,.T.);
#608=FACE_BOUND('',#551,.T.);
#609=FACE_BOUND('',#552,.T.);
#610=FACE_BOUND('',#553,.T.);
#611=FACE_BOUND('',#554,.T.);
#612=FACE_BOUND('',#555,.T.);
#613=FACE_BOUND('',#556,.T.);
#614=FACE_BOUND('',#557,.T.);
#615=PLANE('',#693);
#616=PLANE('',#697);
#617=PLANE('',#723);
#618=PLANE('',#726);
#619=PLANE('',#729);
#620=PLANE('',#730);
#621=PLANE('',#732);
#622=PLANE('',#733);
#623=PLANE('',#737);
#624=PLANE('',#738);
#625=PLANE('',#739);
#626=PLANE('',#740);
#627=PLANE('',#741);
#628=PLANE('',#742);
#629=PLANE('',#743);
#630=PLANE('',#744);
#631=PLANE('',#745);
#632=PLANE('',#746);
#633=PLANE('',#747);
#634=PLANE('',#751);
#635=PLANE('',#755);
#636=PLANE('',#759);
#637=PLANE('',#762);
#638=PLANE('',#770);
#639=ADVANCED_FACE('',(#558,#559),#615,.T.);
#640=ADVANCED_FACE('',(#560,#561,#562,#563),#616,.F.);
#641=ADVANCED_FACE('',(#564),#23,.T.);
#642=ADVANCED_FACE('',(#565,#566),#24,.T.);
#643=ADVANCED_FACE('',(#567,#568),#25,.F.);
#644=ADVANCED_FACE('',(#569,#570),#617,.T.);
#645=ADVANCED_FACE('',(#571),#26,.T.);
#646=ADVANCED_FACE('',(#572),#618,.F.);
#647=ADVANCED_FACE('',(#573),#27,.F.);
#648=ADVANCED_FACE('',(#574),#619,.T.);
#649=ADVANCED_FACE('',(#575),#620,.F.);
#650=ADVANCED_FACE('',(#576,#577),#28,.F.);
#651=ADVANCED_FACE('',(#578),#621,.T.);
#652=ADVANCED_FACE('',(#579),#622,.T.);
#653=ADVANCED_FACE('',(#580),#29,.F.);
#654=ADVANCED_FACE('',(#581),#623,.F.);
#655=ADVANCED_FACE('',(#582),#624,.F.);
#656=ADVANCED_FACE('',(#583),#625,.F.);
#657=ADVANCED_FACE('',(#584),#626,.F.);
#658=ADVANCED_FACE('',(#585),#627,.F.);
#659=ADVANCED_FACE('',(#586),#628,.T.);
#660=ADVANCED_FACE('',(#587),#629,.F.);
#661=ADVANCED_FACE('',(#588),#630,.F.);
#662=ADVANCED_FACE('',(#589),#631,.F.);
#663=ADVANCED_FACE('',(#590),#632,.T.);
#664=ADVANCED_FACE('',(#591),#633,.F.);
#665=ADVANCED_FACE('',(#592),#13,.F.);
#666=ADVANCED_FACE('',(#593,#594),#30,.T.);
#667=ADVANCED_FACE('',(#595,#596),#634,.F.);
#668=ADVANCED_FACE('',(#597,#598),#31,.T.);
#669=ADVANCED_FACE('',(#599,#600),#635,.F.);
#670=ADVANCED_FACE('',(#601,#602),#32,.F.);
#671=ADVANCED_FACE('',(#603),#636,.T.);
#672=ADVANCED_FACE('',(#604,#605),#33,.F.);
#673=ADVANCED_FACE('',(#606),#637,.T.);
#674=ADVANCED_FACE('',(#607),#34,.T.);
#675=ADVANCED_FACE('',(#608),#35,.T.);
#676=ADVANCED_FACE('',(#609),#12,.T.);
#677=ADVANCED_FACE('',(#610),#14,.T.);
#678=ADVANCED_FACE('',(#611,#612),#36,.F.);
#679=ADVANCED_FACE('',(#613,#614),#638,.T.);
#680=CLOSED_SHELL('',(#639,#640,#641,#642,#643,#644,#645,#646,#647,#648,#649,#650,#651,#652,#653,#654,#655,#656,#657,#658,#659,#660,#661,#662,#663,#664,#665,#666,#667,#668,#669,#670,#671,#672,#673,#674,#675,#676,#677,#678,#679));
#681=STYLED_ITEM('',(#682),#689);
#682=PRESENTATION_STYLE_ASSIGNMENT((#683));
#683=SURFACE_STYLE_USAGE(.BOTH.,#684);
#684=SURFACE_SIDE_STYLE('',(#685));
#685=SURFACE_STYLE_FILL_AREA(#686);
#686=FILL_AREA_STYLE('',(#687));
#687=FILL_AREA_STYLE_COLOUR('',#688);
#688=COLOUR_RGB('',0.92156862745098,0.8,0.654901960784314);
#689=MANIFOLD_SOLID_BREP('Container Base',#680);
#690=SHAPE_DEFINITION_REPRESENTATION(#1224,#691);
#691=SHAPE_REPRESENTATION('Container Base',(#692),#1219);
#692=AXIS2_PLACEMENT_3D('',#975,#771,#772);
#693=AXIS2_PLACEMENT_3D('',#976,#773,#774);
#694=AXIS2_PLACEMENT_3D('',#977,#775,#776);
#695=AXIS2_PLACEMENT_3D('',#982,#778,#779);
#696=AXIS2_PLACEMENT_3D('',#986,#781,#782);
#697=AXIS2_PLACEMENT_3D('',#987,#783,#784);
#698=AXIS2_PLACEMENT_3D('',#991,#786,#787);
#699=AXIS2_PLACEMENT_3D('',#995,#789,#790);
#700=AXIS2_PLACEMENT_3D('',#996,#791,#792);
#701=AXIS2_PLACEMENT_3D('',#998,#793,#794);
#702=AXIS2_PLACEMENT_3D('',#1003,#796,#797);
#703=AXIS2_PLACEMENT_3D('',#1006,#799,#800);
#704=AXIS2_PLACEMENT_3D('',#1009,#801,#802);
#705=AXIS2_PLACEMENT_3D('',#1010,#803,#804);
#706=AXIS2_PLACEMENT_3D('',#1012,#805,#806);
#707=AXIS2_PLACEMENT_3D('',#1013,#807,#808);
#708=AXIS2_PLACEMENT_3D('',#1021,#812,#813);
#709=AXIS2_PLACEMENT_3D('',#1028,#817,#818);
#710=AXIS2_PLACEMENT_3D('',#1029,#819,#820);
#711=AXIS2_PLACEMENT_3D('',#1034,#822,#823);
#712=AXIS2_PLACEMENT_3D('',#1037,#825,#826);
#713=AXIS2_PLACEMENT_3D('',#1038,#827,#828);
#714=AXIS2_PLACEMENT_3D('',#1040,#829,#830);
#715=AXIS2_PLACEMENT_3D('',#1042,#831,#832);
#716=AXIS2_PLACEMENT_3D('',#1044,#833,#834);
#717=AXIS2_PLACEMENT_3D('',#1045,#835,#836);
#718=AXIS2_PLACEMENT_3D('',#1047,#837,#838);
#719=AXIS2_PLACEMENT_3D('',#1048,#839,#840);
#720=AXIS2_PLACEMENT_3D('',#1050,#841,#842);
#721=AXIS2_PLACEMENT_3D('',#1051,#843,#844);
#722=AXIS2_PLACEMENT_3D('',#1053,#845,#846);
#723=AXIS2_PLACEMENT_3D('',#1055,#847,#848);
#724=AXIS2_PLACEMENT_3D('',#1056,#849,#850);
#725=AXIS2_PLACEMENT_3D('',#1059,#852,#853);
#726=AXIS2_PLACEMENT_3D('',#1062,#855,#856);
#727=AXIS2_PLACEMENT_3D('',#1066,#859,#860);
#728=AXIS2_PLACEMENT_3D('',#1069,#862,#863);
#729=AXIS2_PLACEMENT_3D('',#1070,#864,#865);
#730=AXIS2_PLACEMENT_3D('',#1072,#867,#868);
#731=AXIS2_PLACEMENT_3D('',#1073,#869,#870);
#732=AXIS2_PLACEMENT_3D('',#1074,#871,#872);
#733=AXIS2_PLACEMENT_3D('',#1084,#878,#879);
#734=AXIS2_PLACEMENT_3D('',#1094,#885,#886);
#735=AXIS2_PLACEMENT_3D('',#1098,#888,#889);
#736=AXIS2_PLACEMENT_3D('',#1102,#891,#892);
#737=AXIS2_PLACEMENT_3D('',#1103,#893,#894);
#738=AXIS2_PLACEMENT_3D('',#1112,#901,#902);
#739=AXIS2_PLACEMENT_3D('',#1114,#904,#905);
#740=AXIS2_PLACEMENT_3D('',#1116,#907,#908);
#741=AXIS2_PLACEMENT_3D('',#1124,#911,#912);
#742=AXIS2_PLACEMENT_3D('',#1125,#913,#914);
#743=AXIS2_PLACEMENT_3D('',#1130,#915,#916);
#744=AXIS2_PLACEMENT_3D('',#1132,#918,#919);
#745=AXIS2_PLACEMENT_3D('',#1134,#921,#922);
#746=AXIS2_PLACEMENT_3D('',#1142,#925,#926);
#747=AXIS2_PLACEMENT_3D('',#1143,#927,#928);
#748=AXIS2_PLACEMENT_3D('',#1148,#929,#930);
#749=AXIS2_PLACEMENT_3D('',#1149,#931,#932);
#750=AXIS2_PLACEMENT_3D('',#1150,#933,#934);
#751=AXIS2_PLACEMENT_3D('',#1152,#935,#936);
#752=AXIS2_PLACEMENT_3D('',#1153,#937,#938);
#753=AXIS2_PLACEMENT_3D('',#1155,#939,#940);
#754=AXIS2_PLACEMENT_3D('',#1156,#941,#942);
#755=AXIS2_PLACEMENT_3D('',#1158,#943,#944);
#756=AXIS2_PLACEMENT_3D('',#1159,#945,#946);
#757=AXIS2_PLACEMENT_3D('',#1161,#947,#948);
#758=AXIS2_PLACEMENT_3D('',#1162,#949,#950);
#759=AXIS2_PLACEMENT_3D('',#1164,#951,#952);
#760=AXIS2_PLACEMENT_3D('',#1165,#953,#954);
#761=AXIS2_PLACEMENT_3D('',#1166,#955,#956);
#762=AXIS2_PLACEMENT_3D('',#1168,#957,#958);
#763=AXIS2_PLACEMENT_3D('',#1169,#959,#960);
#764=AXIS2_PLACEMENT_3D('',#1190,#961,#962);
#765=AXIS2_PLACEMENT_3D('',#1211,#963,#964);
#766=AXIS2_PLACEMENT_3D('',#1212,#965,#966);
#767=AXIS2_PLACEMENT_3D('',#1213,#967,#968);
#768=AXIS2_PLACEMENT_3D('',#1214,#969,#970);
#769=AXIS2_PLACEMENT_3D('',#1215,#971,#972);
#770=AXIS2_PLACEMENT_3D('',#1217,#973,#974);
#771=DIRECTION('',(0.,0.,1.));
#772=DIRECTION('',(1.,0.,0.));
#773=DIRECTION('',(0.,-1.,0.));
#774=DIRECTION('',(1.,0.,0.));
#775=DIRECTION('',(0.,-1.,0.));
#776=DIRECTION('',(0.,0.,-1.));
#777=DIRECTION('',(0.707106781186547,0.,-0.707106781186548));
#778=DIRECTION('',(0.,-1.,0.));
#779=DIRECTION('',(0.,0.,-1.));
#780=DIRECTION('',(-3.12473902655596E-17,0.,-1.));
#781=DIRECTION('',(0.,-1.,0.));
#782=DIRECTION('',(0.,0.,-1.));
#783=DIRECTION('',(0.,-1.,0.));
#784=DIRECTION('',(1.,0.,0.));
#785=DIRECTION('',(1.,0.,0.));
#786=DIRECTION('',(0.,-1.,0.));
#787=DIRECTION('',(0.,0.,-1.));
#788=DIRECTION('',(-0.707106781186548,0.,-0.707106781186548));
#789=DIRECTION('',(0.,-1.,0.));
#790=DIRECTION('',(0.,0.,-1.));
#791=DIRECTION('',(0.,-1.,0.));
#792=DIRECTION('',(0.,0.,-1.));
#793=DIRECTION('',(0.,-1.,0.));
#794=DIRECTION('',(0.,0.,-1.));
#795=DIRECTION('',(-3.12473902655596E-17,0.,-1.));
#796=DIRECTION('',(0.,-1.,0.));
#797=DIRECTION('',(0.,0.,-1.));
#798=DIRECTION('',(0.707106781186547,0.,-0.707106781186548));
#799=DIRECTION('',(0.,-1.,0.));
#800=DIRECTION('',(0.,0.,-1.));
#801=DIRECTION('',(0.,-1.,0.));
#802=DIRECTION('',(0.,0.,-1.));
#803=DIRECTION('',(0.,-1.,0.));
#804=DIRECTION('',(0.,0.,-1.));
#805=DIRECTION('',(0.,-1.,0.));
#806=DIRECTION('',(0.,0.,-1.));
#807=DIRECTION('',(0.,-1.,0.));
#808=DIRECTION('',(0.,0.,-1.));
#809=DIRECTION('',(-0.707106781186547,0.,0.707106781186548));
#810=DIRECTION('',(0.707106781186548,0.,0.707106781186547));
#811=DIRECTION('',(-0.707106781186547,0.,0.707106781186548));
#812=DIRECTION('',(0.,-1.,0.));
#813=DIRECTION('',(0.,0.,-1.));
#814=DIRECTION('',(-5.78152191162561E-17,0.,1.));
#815=DIRECTION('',(-1.,0.,-5.78152191162561E-17));
#816=DIRECTION('',(-5.78152191162561E-17,0.,1.));
#817=DIRECTION('',(0.,1.,0.));
#818=DIRECTION('',(0.,0.,1.));
#819=DIRECTION('',(0.,1.,0.));
#820=DIRECTION('',(0.,0.,1.));
#821=DIRECTION('',(0.,1.,0.));
#822=DIRECTION('',(0.,1.,0.));
#823=DIRECTION('',(0.,0.,1.));
#824=DIRECTION('',(0.,1.,0.));
#825=DIRECTION('',(0.,-1.,0.));
#826=DIRECTION('',(0.,0.,-1.));
#827=DIRECTION('',(0.,-1.,0.));
#828=DIRECTION('',(0.,0.,-1.));
#829=DIRECTION('',(0.,-1.,0.));
#830=DIRECTION('',(0.,0.,-1.));
#831=DIRECTION('',(0.,-1.,0.));
#832=DIRECTION('',(0.,0.,-1.));
#833=DIRECTION('',(0.,-1.,0.));
#834=DIRECTION('',(0.,0.,-1.));
#835=DIRECTION('',(0.,-1.,0.));
#836=DIRECTION('',(0.,0.,-1.));
#837=DIRECTION('',(0.,-1.,0.));
#838=DIRECTION('',(0.,0.,-1.));
#839=DIRECTION('',(0.,-1.,0.));
#840=DIRECTION('',(0.,0.,-1.));
#841=DIRECTION('',(0.,1.,0.));
#842=DIRECTION('',(0.,0.,1.));
#843=DIRECTION('',(0.,-1.,0.));
#844=DIRECTION('',(0.,0.,-1.));
#845=DIRECTION('',(0.,-1.,0.));
#846=DIRECTION('',(0.,0.,-1.));
#847=DIRECTION('',(0.,-1.,0.));
#848=DIRECTION('',(1.,0.,0.));
#849=DIRECTION('',(0.,-1.,0.));
#850=DIRECTION('',(0.,0.,-1.));
#851=DIRECTION('',(0.,-1.,0.));
#852=DIRECTION('',(0.,-1.,0.));
#853=DIRECTION('',(0.,0.,-1.));
#854=DIRECTION('',(0.,-1.,0.));
#855=DIRECTION('',(-0.707106781186548,0.,0.707106781186548));
#856=DIRECTION('',(0.707106781186548,0.,0.707106781186548));
#857=DIRECTION('',(0.,-1.,0.));
#858=DIRECTION('',(-0.707106781186548,0.,-0.707106781186548));
#859=DIRECTION('',(0.,-1.,0.));
#860=DIRECTION('',(0.,0.,-1.));
#861=DIRECTION('',(0.,-1.,0.));
#862=DIRECTION('',(0.,-1.,0.));
#863=DIRECTION('',(0.,0.,-1.));
#864=DIRECTION('',(0.,0.,-1.));
#865=DIRECTION('',(-1.,0.,0.));
#866=DIRECTION('',(1.,0.,0.));
#867=DIRECTION('',(0.,-1.,0.));
#868=DIRECTION('',(1.,0.,0.));
#869=DIRECTION('',(0.,-1.,0.));
#870=DIRECTION('',(0.,0.,-1.));
#871=DIRECTION('',(0.707106781186548,0.,-0.707106781186548));
#872=DIRECTION('',(-0.707106781186548,0.,-0.707106781186548));
#873=DIRECTION('',(0.707106781186548,0.,0.707106781186547));
#874=DIRECTION('',(0.,1.,0.));
#875=DIRECTION('',(0.707106781186548,0.,0.707106781186548));
#876=DIRECTION('',(0.,1.,0.));
#877=DIRECTION('',(0.707106781186548,0.,0.707106781186547));
#878=DIRECTION('',(0.,0.,-1.));
#879=DIRECTION('',(-1.,0.,0.));
#880=DIRECTION('',(-1.,0.,-5.78152191162561E-17));
#881=DIRECTION('',(0.,1.,0.));
#882=DIRECTION('',(1.,0.,0.));
#883=DIRECTION('',(0.,1.,0.));
#884=DIRECTION('',(-1.,0.,-5.78152191162561E-17));
#885=DIRECTION('',(0.,-1.,0.));
#886=DIRECTION('',(0.,0.,-1.));
#887=DIRECTION('',(0.,-1.,0.));
#888=DIRECTION('',(0.,1.,0.));
#889=DIRECTION('',(0.,0.,1.));
#890=DIRECTION('',(0.,-1.,0.));
#891=DIRECTION('',(0.,-1.,0.));
#892=DIRECTION('',(0.,0.,-1.));
#893=DIRECTION('',(0.,-1.,0.));
#894=DIRECTION('',(1.,0.,0.));
#895=DIRECTION('',(-5.78152191162561E-17,0.,1.));
#896=DIRECTION('',(-1.,0.,-5.78152191162561E-17));
#897=DIRECTION('',(0.707106781186548,0.,0.707106781186547));
#898=DIRECTION('',(-0.707106781186547,0.,0.707106781186548));
#899=DIRECTION('',(-0.707106781186547,0.,0.707106781186548));
#900=DIRECTION('',(-5.78152191162561E-17,0.,1.));
#901=DIRECTION('',(0.,1.,0.));
#902=DIRECTION('',(0.707106781186547,0.,-0.707106781186548));
#903=DIRECTION('',(-0.707106781186547,0.,0.707106781186548));
#904=DIRECTION('',(0.,1.,0.));
#905=DIRECTION('',(0.707106781186547,0.,-0.707106781186548));
#906=DIRECTION('',(-0.707106781186547,0.,0.707106781186548));
#907=DIRECTION('',(0.707106781186547,0.,-0.707106781186548));
#908=DIRECTION('',(0.,-1.,0.));
#909=DIRECTION('',(0.,1.,0.));
#910=DIRECTION('',(0.,1.,0.));
#911=DIRECTION('',(-0.707106781186548,0.,-0.707106781186547));
#912=DIRECTION('',(-0.707106781186547,0.,0.707106781186548));
#913=DIRECTION('',(-0.707106781186548,0.,-0.707106781186547));
#914=DIRECTION('',(-0.707106781186547,0.,0.707106781186548));
#915=DIRECTION('',(0.,1.,0.));
#916=DIRECTION('',(5.78152191162561E-17,0.,-1.));
#917=DIRECTION('',(-5.78152191162561E-17,0.,1.));
#918=DIRECTION('',(0.,1.,0.));
#919=DIRECTION('',(5.78152191162561E-17,0.,-1.));
#920=DIRECTION('',(-5.78152191162561E-17,0.,1.));
#921=DIRECTION('',(5.78152191162561E-17,0.,-1.));
#922=DIRECTION('',(0.,-1.,0.));
#923=DIRECTION('',(0.,1.,0.));
#924=DIRECTION('',(0.,1.,0.));
#925=DIRECTION('',(-1.,0.,-5.78152191162561E-17));
#926=DIRECTION('',(-5.78152191162561E-17,0.,1.));
#927=DIRECTION('',(-1.,0.,-5.78152191162561E-17));
#928=DIRECTION('',(-5.78152191162561E-17,0.,1.));
#929=DIRECTION('',(0.,-1.,0.));
#930=DIRECTION('',(0.,0.,-1.));
#931=DIRECTION('',(0.,-1.,0.));
#932=DIRECTION('',(0.,0.,-1.));
#933=DIRECTION('',(0.,-1.,0.));
#934=DIRECTION('',(0.,0.,-1.));
#935=DIRECTION('',(0.,-1.,0.));
#936=DIRECTION('',(1.,0.,0.));
#937=DIRECTION('',(0.,1.,0.));
#938=DIRECTION('',(0.,0.,1.));
#939=DIRECTION('',(0.,-1.,0.));
#940=DIRECTION('',(0.,0.,-1.));
#941=DIRECTION('',(0.,-1.,0.));
#942=DIRECTION('',(0.,0.,-1.));
#943=DIRECTION('',(0.,-1.,0.));
#944=DIRECTION('',(1.,0.,0.));
#945=DIRECTION('',(0.,1.,0.));
#946=DIRECTION('',(0.,0.,1.));
#947=DIRECTION('',(0.,1.,0.));
#948=DIRECTION('',(0.,0.,1.));
#949=DIRECTION('',(0.,1.,0.));
#950=DIRECTION('',(0.,0.,1.));
#951=DIRECTION('',(0.,1.,0.));
#952=DIRECTION('',(-1.,0.,0.));
#953=DIRECTION('',(0.,1.,0.));
#954=DIRECTION('',(0.,0.,1.));
#955=DIRECTION('',(0.,1.,0.));
#956=DIRECTION('',(0.,0.,1.));
#957=DIRECTION('',(0.,1.,0.));
#958=DIRECTION('',(-1.,0.,0.));
#959=DIRECTION('',(3.12473902655596E-17,0.,1.));
#960=DIRECTION('',(1.,0.,-3.12473902655596E-17));
#961=DIRECTION('',(0.707106781186547,0.,-0.707106781186548));
#962=DIRECTION('',(-0.707106781186548,0.,-0.707106781186547));
#963=DIRECTION('',(0.,-1.,0.));
#964=DIRECTION('',(0.,0.,-1.));
#965=DIRECTION('',(0.,-1.,0.));
#966=DIRECTION('',(0.,0.,-1.));
#967=DIRECTION('',(0.,1.,0.));
#968=DIRECTION('',(0.,0.,1.));
#969=DIRECTION('',(0.,1.,0.));
#970=DIRECTION('',(0.,0.,1.));
#971=DIRECTION('',(0.,-1.,0.));
#972=DIRECTION('',(0.,0.,-1.));
#973=DIRECTION('',(0.,-1.,0.));
#974=DIRECTION('',(1.,0.,0.));
#975=CARTESIAN_POINT('',(0.,0.,0.));
#976=CARTESIAN_POINT('',(0.,0.,0.));
#977=CARTESIAN_POINT('',(0.,0.,3.24531401774048E-19));
#978=CARTESIAN_POINT('',(0.,0.,-0.0053));
#979=CARTESIAN_POINT('',(-0.000707106781186541,0.,-0.00070710678118654));
#980=CARTESIAN_POINT('',(0.0063285168585486,0.,-0.00774273042092169));
#981=CARTESIAN_POINT('',(0.0452493943911177,0.,-0.0466636079534908));
#982=CARTESIAN_POINT('',(0.,0.,3.9801020972289E-18));
#983=CARTESIAN_POINT('',(0.001,0.,-0.0649923072370877));
#984=CARTESIAN_POINT('',(0.001,0.,-0.0319413525073689));
#985=CARTESIAN_POINT('',(0.001,0.,-0.0099498743710662));
#986=CARTESIAN_POINT('',(-4.7271214720368E-17,0.,1.17961196366423E-16));
#987=CARTESIAN_POINT('',(0.,0.005,0.));
#988=CARTESIAN_POINT('',(0.,0.005,0.000999999999999982));
#989=CARTESIAN_POINT('',(0.00894427190999916,0.005,0.00099999999999998));
#990=CARTESIAN_POINT('',(0.0324846117415616,0.005,0.000999999999999982));
#991=CARTESIAN_POINT('',(-2.08166817117217E-17,0.005,-1.25767452008318E-17));
#992=CARTESIAN_POINT('',(-0.0222629824654838,0.005,-0.0236771960278569));
#993=CARTESIAN_POINT('',(0.000707106781186541,0.005,-0.000707106781186541));
#994=CARTESIAN_POINT('',(-0.00561744853915022,0.005,-0.0070316621015233));
#995=CARTESIAN_POINT('',(-2.68882138776405E-17,0.005,-1.00830802041152E-17));
#996=CARTESIAN_POINT('',(0.,0.005,3.24531401774048E-19));
#997=CARTESIAN_POINT('',(0.,0.005,-0.0053));
#998=CARTESIAN_POINT('',(-4.7271214720368E-17,0.005,1.17961196366423E-16));
#999=CARTESIAN_POINT('',(0.006,0.005,-0.0319413525073689));
#1000=CARTESIAN_POINT('',(0.0183433062711112,0.005,-0.0268285876453498));
#1001=CARTESIAN_POINT('',(0.006,0.005,-1.87484341593358E-19));
#1002=CARTESIAN_POINT('',(0.006,0.005,-0.0596992462263972));
#1003=CARTESIAN_POINT('',(5.07406616723216E-17,0.005,-7.63278329429795E-17));
#1004=CARTESIAN_POINT('',(0.0379711011512915,0.005,-0.0464563825255302));
#1005=CARTESIAN_POINT('',(-0.00424264068711928,0.005,-0.00424264068711927));
#1006=CARTESIAN_POINT('',(0.,0.005,4.28626379701574E-18));
#1007=CARTESIAN_POINT('',(-0.0646715672757901,0.005,0.0267878402655563));
#1008=CARTESIAN_POINT('',(-0.00249999999999997,0.005,-0.0699553428981661));
#1009=CARTESIAN_POINT('',(-0.0591282900807224,0.005,0.0244917396713657));
#1010=CARTESIAN_POINT('',(0.,0.005,4.28626379701574E-18));
#1011=CARTESIAN_POINT('',(0.0267878402655563,0.005,0.0646715672757901));
#1012=CARTESIAN_POINT('',(0.0244917396713657,0.005,0.0591282900807224));
#1013=CARTESIAN_POINT('',(0.,0.005,4.28626379701574E-18));
#1014=CARTESIAN_POINT('',(0.0512336642964898,0.005,-0.0476981303905571));
#1015=CARTESIAN_POINT('',(0.0424201511812521,0.005,-0.0388846172753194));
#1016=CARTESIAN_POINT('',(0.0371160342372336,0.005,-0.033580500331301));
#1017=CARTESIAN_POINT('',(0.0360553740654539,0.005,-0.0346411605030807));
#1018=CARTESIAN_POINT('',(0.0335805003313009,0.005,-0.0371160342372336));
#1019=CARTESIAN_POINT('',(0.0388846172753194,0.005,-0.0424201511812521));
#1020=CARTESIAN_POINT('',(0.0476981303905571,0.005,-0.0512336642964898));
#1021=CARTESIAN_POINT('',(0.,0.005,4.28626379701574E-18));
#1022=CARTESIAN_POINT('',(0.0025,0.005,-0.0699553428981661));
#1023=CARTESIAN_POINT('',(0.0025,0.005,-0.0574911531184438));
#1024=CARTESIAN_POINT('',(0.0025,0.005,-0.0499899989998));
#1025=CARTESIAN_POINT('',(-0.000999999999999982,0.005,-0.0499899989998));
#1026=CARTESIAN_POINT('',(-0.00249999999999997,0.005,-0.0499899989998));
#1027=CARTESIAN_POINT('',(-0.00249999999999997,0.005,-0.0574911531184438));
#1028=CARTESIAN_POINT('',(4.16333634234433E-17,0.04,-1.11022302462516E-16));
#1029=CARTESIAN_POINT('',(4.16333634234433E-17,0.04,-1.11022302462516E-16));
#1030=CARTESIAN_POINT('',(0.0476981303905571,0.04,-0.0512336642964898));
#1031=CARTESIAN_POINT('',(0.0025,0.04,-0.0699553428981661));
#1032=CARTESIAN_POINT('',(0.0025,0.04,-0.0699553428981661));
#1033=CARTESIAN_POINT('',(0.0025,0.045,-0.0699553428981661));
#1034=CARTESIAN_POINT('',(4.16333634234433E-17,0.045,-1.11022302462516E-16));
#1035=CARTESIAN_POINT('',(0.0476981303905571,0.045,-0.0512336642964898));
#1036=CARTESIAN_POINT('',(0.0476981303905571,0.04,-0.0512336642964898));
#1037=CARTESIAN_POINT('',(0.,0.005,4.28626379701574E-18));
#1038=CARTESIAN_POINT('',(0.,0.005,4.28626379701574E-18));
#1039=CARTESIAN_POINT('',(0.001,0.005,-0.0699928567783885));
#1040=CARTESIAN_POINT('',(0.,0.005,4.28626379701574E-18));
#1041=CARTESIAN_POINT('',(0.0487853168814301,0.005,-0.0501995304438045));
#1042=CARTESIAN_POINT('',(0.,0.005,4.28626379701574E-18));
#1043=CARTESIAN_POINT('',(0.0501995304438039,0.005,-0.0487853168814308));
#1044=CARTESIAN_POINT('',(0.,0.005,4.28626379701574E-18));
#1045=CARTESIAN_POINT('',(0.,0.005,4.28626379701574E-18));
#1046=CARTESIAN_POINT('',(-0.000999999999999971,0.005,-0.0699928567783885));
#1047=CARTESIAN_POINT('',(0.,0.005,4.28626379701574E-18));
#1048=CARTESIAN_POINT('',(0.,-0.027,4.28626379701574E-18));
#1049=CARTESIAN_POINT('',(0.,-0.027,-0.07));
#1050=CARTESIAN_POINT('',(0.,-0.027,4.163799117101E-18));
#1051=CARTESIAN_POINT('',(0.,-0.0235,4.163799117101E-18));
#1052=CARTESIAN_POINT('',(0.,-0.0235,-0.068));
#1053=CARTESIAN_POINT('',(0.,-0.027,4.163799117101E-18));
#1054=CARTESIAN_POINT('',(0.,-0.027,-0.068));
#1055=CARTESIAN_POINT('',(0.,-0.027,0.));
#1056=CARTESIAN_POINT('',(-2.08166817117217E-17,0.01,-1.25767452008318E-17));
#1057=CARTESIAN_POINT('',(0.0324846117415616,0.01,0.000999999999999982));
#1058=CARTESIAN_POINT('',(0.0324846117415616,0.01,0.000999999999999982));
#1059=CARTESIAN_POINT('',(-2.08166817117217E-17,0.01,-1.25767452008318E-17));
#1060=CARTESIAN_POINT('',(-0.0222629824654838,0.01,-0.0236771960278569));
#1061=CARTESIAN_POINT('',(-0.0222629824654838,0.01,-0.0236771960278569));
#1062=CARTESIAN_POINT('',(-0.013940215502317,0.01,-0.0153544290646901));
#1063=CARTESIAN_POINT('',(-0.00561744853915022,0.01,-0.0070316621015233));
#1064=CARTESIAN_POINT('',(-0.00561744853915022,0.01,-0.0070316621015233));
#1065=CARTESIAN_POINT('',(-0.013940215502317,0.01,-0.0153544290646901));
#1066=CARTESIAN_POINT('',(-2.68882138776405E-17,0.01,-1.00830802041152E-17));
#1067=CARTESIAN_POINT('',(0.00894427190999916,0.01,0.00099999999999998));
#1068=CARTESIAN_POINT('',(0.00894427190999916,0.01,0.00099999999999998));
#1069=CARTESIAN_POINT('',(-2.68882138776405E-17,0.01,-1.00830802041152E-17));
#1070=CARTESIAN_POINT('',(0.0207144418257803,0.01,0.000999999999999982));
#1071=CARTESIAN_POINT('',(0.0207144418257803,0.01,0.000999999999999982));
#1072=CARTESIAN_POINT('',(-0.00694132069550561,0.01,-0.000389764173358425));
#1073=CARTESIAN_POINT('',(0.,0.0575,3.24531401774048E-19));
#1074=CARTESIAN_POINT('',(0.0494924236626173,0.045,-0.0494924236626173));
#1075=CARTESIAN_POINT('',(0.0501995304438038,0.005,-0.0487853168814308));
#1076=CARTESIAN_POINT('',(0.0477246567096509,0.005,-0.0512601906155837));
#1077=CARTESIAN_POINT('',(0.0477246567096509,0.045,-0.0512601906155837));
#1078=CARTESIAN_POINT('',(0.0477246567096509,0.045,-0.0512601906155837));
#1079=CARTESIAN_POINT('',(0.0494924236626173,0.045,-0.0494924236626173));
#1080=CARTESIAN_POINT('',(0.0512601906155837,0.045,-0.047724656709651));
#1081=CARTESIAN_POINT('',(0.0512601906155837,0.045,-0.047724656709651));
#1082=CARTESIAN_POINT('',(0.0512601906155837,0.005,-0.047724656709651));
#1083=CARTESIAN_POINT('',(0.0501995304438038,0.005,-0.0487853168814308));
#1084=CARTESIAN_POINT('',(2.16840434497101E-19,0.045,-0.0699928567783885));
#1085=CARTESIAN_POINT('',(-0.000999999999999986,0.005,-0.0699928567783885));
#1086=CARTESIAN_POINT('',(-0.00249999999999997,0.005,-0.0699928567783885));
#1087=CARTESIAN_POINT('',(-0.00249999999999997,0.045,-0.0699928567783885));
#1088=CARTESIAN_POINT('',(-0.00249999999999997,0.045,-0.0699928567783885));
#1089=CARTESIAN_POINT('',(2.16840434497101E-19,0.045,-0.0699928567783885));
#1090=CARTESIAN_POINT('',(0.0025,0.045,-0.0699928567783885));
#1091=CARTESIAN_POINT('',(0.0025,0.045,-0.0699928567783885));
#1092=CARTESIAN_POINT('',(0.0025,0.005,-0.0699928567783885));
#1093=CARTESIAN_POINT('',(-0.000999999999999986,0.005,-0.0699928567783885));
#1094=CARTESIAN_POINT('',(-8.89045781438114E-18,0.045,-6.71337985203024E-15));
#1095=CARTESIAN_POINT('',(0.000999999999999843,0.045,-0.0499899989998));
#1096=CARTESIAN_POINT('',(0.000999999999999843,0.045,-0.0499899989998));
#1097=CARTESIAN_POINT('',(0.000999999999999843,0.043,-0.0499899989998));
#1098=CARTESIAN_POINT('',(-8.89045781438114E-18,0.043,-6.71337985203024E-15));
#1099=CARTESIAN_POINT('',(0.0346411605031463,0.043,-0.0360553740653883));
#1100=CARTESIAN_POINT('',(0.0346411605031463,0.045,-0.0360553740653883));
#1101=CARTESIAN_POINT('',(0.0346411605031466,0.045,-0.036055374065388));
#1102=CARTESIAN_POINT('',(-8.89045781438114E-18,0.045,-6.71337985203024E-15));
#1103=CARTESIAN_POINT('',(-0.00694132069550561,0.045,-0.000389764173358425));
#1104=CARTESIAN_POINT('',(-0.00249999999999997,0.045,-0.0574911531184438));
#1105=CARTESIAN_POINT('',(-0.00249999999999997,0.045,-0.0499899989998));
#1106=CARTESIAN_POINT('',(-0.000999999999999982,0.045,-0.0499899989998));
#1107=CARTESIAN_POINT('',(0.0360553740654539,0.045,-0.0346411605030807));
#1108=CARTESIAN_POINT('',(0.0371160342372336,0.045,-0.0335805003313009));
#1109=CARTESIAN_POINT('',(0.0424201511812521,0.045,-0.0388846172753194));
#1110=CARTESIAN_POINT('',(0.0388846172753194,0.045,-0.0424201511812521));
#1111=CARTESIAN_POINT('',(0.0025,0.045,-0.0574911531184438));
#1112=CARTESIAN_POINT('',(0.000707106781186553,0.005,0.000707106781186553));
#1113=CARTESIAN_POINT('',(0.0424201511812521,0.005,-0.0388846172753194));
#1114=CARTESIAN_POINT('',(0.000707106781186553,0.005,0.000707106781186553));
#1115=CARTESIAN_POINT('',(0.0388846172753194,0.005,-0.0424201511812521));
#1116=CARTESIAN_POINT('',(0.0360553740654539,0.045,-0.0346411605030807));
#1117=CARTESIAN_POINT('',(0.0335805003313009,0.045,-0.0371160342372336));
#1118=CARTESIAN_POINT('',(0.0335805003313009,0.0429921291300394,-0.0371160342372336));
#1119=CARTESIAN_POINT('',(0.0371160342372336,0.045,-0.0335805003313009));
#1120=CARTESIAN_POINT('',(0.0346411605031463,0.043,-0.0360553740653883));
#1121=CARTESIAN_POINT('',(0.0342876029435456,0.0429984999823125,-0.0364089316249889));
#1122=CARTESIAN_POINT('',(0.0339340495573992,0.0429958751546052,-0.0367624850111353));
#1123=CARTESIAN_POINT('',(0.0335805003313009,0.0429921291300394,-0.0371160342372336));
#1124=CARTESIAN_POINT('',(0.0424201511812521,0.045,-0.0388846172753194));
#1125=CARTESIAN_POINT('',(0.0388846172753194,0.045,-0.0424201511812521));
#1126=CARTESIAN_POINT('',(0.0335805003313009,0.0429921291300394,-0.0371160342372337));
#1127=CARTESIAN_POINT('',(0.0382864138299567,0.0419951001324482,-0.0418219477358895));
#1128=CARTESIAN_POINT('',(0.0429922800258341,0.0409976247616657,-0.0465278139317668));
#1129=CARTESIAN_POINT('',(0.0476981303905562,0.04,-0.0512336642964889));
#1130=CARTESIAN_POINT('',(-0.000999999999999976,0.005,-5.78152191162547E-20));
#1131=CARTESIAN_POINT('',(0.0025,0.005,-0.0574911531184438));
#1132=CARTESIAN_POINT('',(-0.000999999999999976,0.005,-5.78152191162547E-20));
#1133=CARTESIAN_POINT('',(-0.00249999999999997,0.005,-0.0574911531184438));
#1134=CARTESIAN_POINT('',(-0.000999999999999982,0.045,-0.0499899989998));
#1135=CARTESIAN_POINT('',(-0.00249999999999997,0.045,-0.0499899989998));
#1136=CARTESIAN_POINT('',(0.0025,0.045,-0.0499899989998));
#1137=CARTESIAN_POINT('',(0.0025,0.0429921291300396,-0.0499899989998));
#1138=CARTESIAN_POINT('',(0.0025,0.0429921291300396,-0.0499899989998));
#1139=CARTESIAN_POINT('',(0.00200000588951611,0.0429958751546053,-0.0499899989998));
#1140=CARTESIAN_POINT('',(0.00150000589583578,0.0429984999823125,-0.0499899989998));
#1141=CARTESIAN_POINT('',(0.000999999999999843,0.043,-0.0499899989998));
#1142=CARTESIAN_POINT('',(-0.00249999999999997,0.045,-0.0574911531184438));
#1143=CARTESIAN_POINT('',(0.0025,0.045,-0.0574911531184438));
#1144=CARTESIAN_POINT('',(0.0025,0.04,-0.0699553428981666));
#1145=CARTESIAN_POINT('',(0.0025,0.0409976247616657,-0.0633002654898783));
#1146=CARTESIAN_POINT('',(0.0025,0.0419951001324484,-0.0566451656929537));
#1147=CARTESIAN_POINT('',(0.0025,0.0429921291300396,-0.0499899989998));
#1148=CARTESIAN_POINT('',(-8.89045781438114E-18,0.04,-6.71337985203024E-15));
#1149=CARTESIAN_POINT('',(0.0244917396713657,0.045,0.0591282900807224));
#1150=CARTESIAN_POINT('',(0.0244917396713657,0.045,0.0591282900807224));
#1151=CARTESIAN_POINT('',(0.0244917396713657,0.045,0.0531282900807224));
#1152=CARTESIAN_POINT('',(-0.00694132069550561,0.045,-0.000389764173358425));
#1153=CARTESIAN_POINT('',(0.0244917396713657,0.045,0.0591282900807224));
#1154=CARTESIAN_POINT('',(0.0244917396713657,0.045,0.0601282900807224));
#1155=CARTESIAN_POINT('',(-0.0591282900807224,0.045,0.0244917396713657));
#1156=CARTESIAN_POINT('',(-0.0591282900807224,0.045,0.0244917396713657));
#1157=CARTESIAN_POINT('',(-0.0591282900807224,0.045,0.0184917396713657));
#1158=CARTESIAN_POINT('',(-0.00694132069550561,0.045,-0.000389764173358425));
#1159=CARTESIAN_POINT('',(-0.0591282900807224,0.045,0.0244917396713657));
#1160=CARTESIAN_POINT('',(-0.0591282900807224,0.045,0.0254917396713658));
#1161=CARTESIAN_POINT('',(-0.0591282900807224,0.035,0.0244917396713657));
#1162=CARTESIAN_POINT('',(-0.0591282900807224,0.035,0.0244917396713657));
#1163=CARTESIAN_POINT('',(-0.0591282900807224,0.035,0.0254917396713658));
#1164=CARTESIAN_POINT('',(0.,0.035,0.));
#1165=CARTESIAN_POINT('',(0.0244917396713657,0.035,0.0591282900807224));
#1166=CARTESIAN_POINT('',(0.0244917396713657,0.035,0.0591282900807224));
#1167=CARTESIAN_POINT('',(0.0244917396713657,0.035,0.0601282900807224));
#1168=CARTESIAN_POINT('',(0.,0.035,0.));
#1169=CARTESIAN_POINT('',(0.001,0.005,-0.045820299366883));
#1170=CARTESIAN_POINT('',(0.006,0.005,-0.0319413525073689));
#1171=CARTESIAN_POINT('',(0.006,0.00457317988670343,-0.0299870695271719));
#1172=CARTESIAN_POINT('',(0.00591981752214797,0.00393257644236289,-0.0270597174805061));
#1173=CARTESIAN_POINT('',(0.00563224089879739,0.00307547092959687,-0.0231660765354603));
#1174=CARTESIAN_POINT('',(0.00531073851585185,0.00243012377885631,-0.0202518701073965));
#1175=CARTESIAN_POINT('',(0.00485928521045046,0.00178532680284563,-0.0173676148805646));
#1176=CARTESIAN_POINT('',(0.00433320793299393,0.00124624936519616,-0.0149944506086422));
#1177=CARTESIAN_POINT('',(0.00375414372958609,0.000812640875090765,-0.0131309627076137));
#1178=CARTESIAN_POINT('',(0.00318536410069072,0.000484802476434862,-0.0117581483479695));
#1179=CARTESIAN_POINT('',(0.00254292213510661,0.000220853593963034,-0.0107007035283918));
#1180=CARTESIAN_POINT('',(0.00176283842035953,4.23737002295081E-05,-0.0100432380272746));
#1181=CARTESIAN_POINT('',(0.00125531912285597,-2.49755578645158E-18,-0.00992421383372328));
#1182=CARTESIAN_POINT('',(0.001,-2.44032053261279E-18,-0.00994987437106619));
#1183=CARTESIAN_POINT('',(0.006,0.005,-0.0596992462263972));
#1184=CARTESIAN_POINT('',(0.006,0.0041788475241238,-0.0596992462263972));
#1185=CARTESIAN_POINT('',(0.00557630425825186,0.00261211863345076,-0.060169284221139));
#1186=CARTESIAN_POINT('',(0.00425823459194097,0.00105848436807595,-0.0616015871644061));
#1187=CARTESIAN_POINT('',(0.00269878904481034,0.000193109567105165,-0.0632514063121334));
#1188=CARTESIAN_POINT('',(0.00156571171322483,-2.58851454967257E-18,-0.064417779733883));
#1189=CARTESIAN_POINT('',(0.001,-2.65629532258949E-18,-0.0649923072370877));
#1190=CARTESIAN_POINT('',(-0.000707106781186539,0.005,-0.000707106781186538));
#1191=CARTESIAN_POINT('',(0.0063285168585486,0.,-0.00774273042092169));
#1192=CARTESIAN_POINT('',(0.00612939627801212,6.27747312467788E-20,-0.00790548152838684));
#1193=CARTESIAN_POINT('',(0.00585416356447597,4.27503368222226E-05,-0.00835091076103972));
#1194=CARTESIAN_POINT('',(0.00576897885442451,0.000221154257979853,-0.00936583516571037));
#1195=CARTESIAN_POINT('',(0.00606226552458681,0.000485006306279356,-0.0105675105729063));
#1196=CARTESIAN_POINT('',(0.00662796838630816,0.000811301769377731,-0.0119340315555881));
#1197=CARTESIAN_POINT('',(0.00753480531614897,0.00124460736743578,-0.0136603968677741));
#1198=CARTESIAN_POINT('',(0.00884126988988065,0.00178403091998286,-0.015712047098146));
#1199=CARTESIAN_POINT('',(0.0105683344672513,0.00243137038711824,-0.0180800341543873));
#1200=CARTESIAN_POINT('',(0.0124007764329765,0.00307630519453265,-0.0203663659339995));
#1201=CARTESIAN_POINT('',(0.0149482935089673,0.00393260838552515,-0.0233201365531672));
#1202=CARTESIAN_POINT('',(0.016961242839843,0.00457312531485083,-0.0254465242140816));
#1203=CARTESIAN_POINT('',(0.0183433062711112,0.005,-0.0268285876453498));
#1204=CARTESIAN_POINT('',(0.0379711011512915,0.005,-0.0464563825255302));
#1205=CARTESIAN_POINT('',(0.0379711011512915,0.0041788475241238,-0.0464563825255302));
#1206=CARTESIAN_POINT('',(0.0386030663369388,0.00261211863345075,-0.0464891514468794));
#1207=CARTESIAN_POINT('',(0.0405478734599612,0.00105848436807594,-0.0465699265716434));
#1208=CARTESIAN_POINT('',(0.0428171662883176,0.000193109567105162,-0.0466338303574983));
#1209=CARTESIAN_POINT('',(0.044443123509006,5.41020703551307E-18,-0.046657374248559));
#1210=CARTESIAN_POINT('',(0.0452493943911177,-1.35525271560689E-18,-0.0466636079534908));
#1211=CARTESIAN_POINT('',(5.07406616723216E-17,0.005,-7.63278329429795E-17));
#1212=CARTESIAN_POINT('',(5.07406616723216E-17,0.,-7.63278329429795E-17));
#1213=CARTESIAN_POINT('',(-4.7271214720368E-17,0.,1.17961196366423E-16));
#1214=CARTESIAN_POINT('',(0.,-0.0235,3.9801020972289E-18));
#1215=CARTESIAN_POINT('',(0.,-0.0235,3.9801020972289E-18));
#1216=CARTESIAN_POINT('',(0.,-0.0235,-0.065));
#1217=CARTESIAN_POINT('',(0.,-0.0235,0.));
#1218=MECHANICAL_DESIGN_GEOMETRIC_PRESENTATION_REPRESENTATION('',(#681),#1219);
#1219=(
GEOMETRIC_REPRESENTATION_CONTEXT(3)
GLOBAL_UNCERTAINTY_ASSIGNED_CONTEXT((#1220))
GLOBAL_UNIT_ASSIGNED_CONTEXT((#1223,#1222,#1221))
REPRESENTATION_CONTEXT('Container Base','TOP_LEVEL_ASSEMBLY_PART')
);
#1220=UNCERTAINTY_MEASURE_WITH_UNIT(LENGTH_MEASURE(2.00000000000418E-05),#1223,'DISTANCE_ACCURACY_VALUE','Maximum Tolerance applied to model');
#1221=(
NAMED_UNIT(*)
SI_UNIT($,.STERADIAN.)
SOLID_ANGLE_UNIT()
);
#1222=(
NAMED_UNIT(*)
PLANE_ANGLE_UNIT()
SI_UNIT($,.RADIAN.)
);
#1223=(
LENGTH_UNIT()
NAMED_UNIT(*)
SI_UNIT($,.METRE.)
);
#1224=PRODUCT_DEFINITION_SHAPE('','',#1225);
#1225=PRODUCT_DEFINITION('','',#1227,#1226);
#1226=PRODUCT_DEFINITION_CONTEXT('',#1233,'design');
#1227=PRODUCT_DEFINITION_FORMATION_WITH_SPECIFIED_SOURCE('','',#1229,.NOT_KNOWN.);
#1228=PRODUCT_RELATED_PRODUCT_CATEGORY('','',(#1229));
#1229=PRODUCT('Container Base','Container Base','Container Base',(#1231));
#1230=PRODUCT_CATEGORY('','');
#1231=PRODUCT_CONTEXT('',#1233,'mechanical');
#1232=APPLICATION_PROTOCOL_DEFINITION('international standard','ap242_managed_model_based_3d_engineering',2020,#1233);
#1233=APPLICATION_CONTEXT('managed model based 3d engineering');
ENDSEC;
END-ISO-10303-21;
