ISO-10303-21;
HEADER;
/*Generated by software containing ST-Developer
 * from STEP Tools, Inc. (www.steptools.com) 
 */
/*OPTION: using custom renumber hook */
/*description */
/*implementation_level */
FILE_DESCRIPTION(('STEP AP242 Edition 2','STEP AP242 Edition 2''CAx-IF Rec.Pracs.---Representation and Presentation of Product Manufa
cturing Information (PMI)---4.0---2014-10-13','STEP AP242 Edition 2''CAx-IF Rec.Pracs.---Representation and Presentation of Product Manufa
cturing Information (PMI)---4.0---2014-10-13''CAx-IF Rec.Pracs.---3D Tessellated Geometry---0.4---2014-09-14','STEP AP242 Edition 2''CAx-IF Rec.Pracs.---Representation and Presentation of Product Manufa
cturing Information (PMI)---4.0---2014-10-13''CAx-IF Rec.Pracs.---3D Tessellated Geometry---0.4---2014-09-14''2;1','STEP AP242 Edition 2''CAx-IF Rec.Pracs.---Representation and Presentation of Product Manufa
cturing Information (PMI)---4.0---2014-10-13''CAx-IF Rec.Pracs.---3D Tessellated Geometry---0.4---2014-09-14''2;1''CAx-IF Rec.Pracs.---User Defined Attributes---1.5---2016-08-15'),'2;1');
/*name */
/*time_stamp */
/*author */
/*organization */
/*preprocessor_version */
/*originating_system */
/*authorisation */
FILE_NAME('/vol/tmp/translate-12104636398870591841/Chamber Leaves.step','2026-03-10T15:40:13',(''),(''),'ST-DEVELOPER v20','ONSHAPE BY PTC INC, 1.211','  ');
FILE_SCHEMA(('AP242_MANAGED_MODEL_BASED_3D_ENGINEERING_MIM_LF { 1 0 10303 442 3 1 4 }'));
ENDSEC;
DATA;
#10=SHAPE_REPRESENTATION_RELATIONSHIP('','',#808,#11);
#11=ADVANCED_BREP_SHAPE_REPRESENTATION('',(#806),#1313);
#12=CYLINDRICAL_SURFACE('',#839,0.01);
#13=CYLINDRICAL_SURFACE('',#857,0.005);
#14=CIRCLE('',#811,0.01);
#15=CIRCLE('',#812,0.01);
#16=CIRCLE('',#813,0.01);
#17=CIRCLE('',#814,0.01);
#18=CIRCLE('',#815,0.01);
#19=CIRCLE('',#816,0.01);
#20=CIRCLE('',#817,0.01);
#21=CIRCLE('',#818,0.01);
#22=CIRCLE('',#820,0.005);
#23=CIRCLE('',#840,0.01);
#24=CIRCLE('',#841,0.0099999999999997);
#25=CIRCLE('',#842,0.01);
#26=CIRCLE('',#843,0.00999999999999978);
#27=CIRCLE('',#844,0.00999999999999978);
#28=CIRCLE('',#845,0.00999999999999968);
#29=CIRCLE('',#846,0.00999999999999983);
#30=CIRCLE('',#847,0.00999999999999981);
#31=CIRCLE('',#848,0.00999999999999983);
#32=CIRCLE('',#856,0.005);
#33=ORIENTED_EDGE('',*,*,#255,.F.);
#34=ORIENTED_EDGE('',*,*,#256,.F.);
#35=ORIENTED_EDGE('',*,*,#257,.T.);
#36=ORIENTED_EDGE('',*,*,#258,.T.);
#37=ORIENTED_EDGE('',*,*,#259,.F.);
#38=ORIENTED_EDGE('',*,*,#260,.F.);
#39=ORIENTED_EDGE('',*,*,#261,.T.);
#40=ORIENTED_EDGE('',*,*,#262,.T.);
#41=ORIENTED_EDGE('',*,*,#263,.F.);
#42=ORIENTED_EDGE('',*,*,#264,.F.);
#43=ORIENTED_EDGE('',*,*,#265,.T.);
#44=ORIENTED_EDGE('',*,*,#266,.T.);
#45=ORIENTED_EDGE('',*,*,#267,.T.);
#46=ORIENTED_EDGE('',*,*,#268,.T.);
#47=ORIENTED_EDGE('',*,*,#269,.F.);
#48=ORIENTED_EDGE('',*,*,#270,.T.);
#49=ORIENTED_EDGE('',*,*,#271,.T.);
#50=ORIENTED_EDGE('',*,*,#272,.T.);
#51=ORIENTED_EDGE('',*,*,#273,.F.);
#52=ORIENTED_EDGE('',*,*,#274,.T.);
#53=ORIENTED_EDGE('',*,*,#275,.T.);
#54=ORIENTED_EDGE('',*,*,#276,.T.);
#55=ORIENTED_EDGE('',*,*,#277,.F.);
#56=ORIENTED_EDGE('',*,*,#278,.T.);
#57=ORIENTED_EDGE('',*,*,#279,.T.);
#58=ORIENTED_EDGE('',*,*,#280,.T.);
#59=ORIENTED_EDGE('',*,*,#281,.F.);
#60=ORIENTED_EDGE('',*,*,#282,.T.);
#61=ORIENTED_EDGE('',*,*,#283,.F.);
#62=ORIENTED_EDGE('',*,*,#284,.F.);
#63=ORIENTED_EDGE('',*,*,#285,.T.);
#64=ORIENTED_EDGE('',*,*,#286,.T.);
#65=ORIENTED_EDGE('',*,*,#287,.F.);
#66=ORIENTED_EDGE('',*,*,#288,.T.);
#67=ORIENTED_EDGE('',*,*,#289,.T.);
#68=ORIENTED_EDGE('',*,*,#290,.F.);
#69=ORIENTED_EDGE('',*,*,#291,.F.);
#70=ORIENTED_EDGE('',*,*,#292,.F.);
#71=ORIENTED_EDGE('',*,*,#293,.T.);
#72=ORIENTED_EDGE('',*,*,#294,.T.);
#73=ORIENTED_EDGE('',*,*,#295,.F.);
#74=ORIENTED_EDGE('',*,*,#296,.F.);
#75=ORIENTED_EDGE('',*,*,#297,.F.);
#76=ORIENTED_EDGE('',*,*,#255,.T.);
#77=ORIENTED_EDGE('',*,*,#298,.T.);
#78=ORIENTED_EDGE('',*,*,#299,.F.);
#79=ORIENTED_EDGE('',*,*,#300,.F.);
#80=ORIENTED_EDGE('',*,*,#256,.T.);
#81=ORIENTED_EDGE('',*,*,#297,.T.);
#82=ORIENTED_EDGE('',*,*,#300,.T.);
#83=ORIENTED_EDGE('',*,*,#301,.T.);
#84=ORIENTED_EDGE('',*,*,#302,.F.);
#85=ORIENTED_EDGE('',*,*,#257,.F.);
#86=ORIENTED_EDGE('',*,*,#303,.F.);
#87=ORIENTED_EDGE('',*,*,#304,.F.);
#88=ORIENTED_EDGE('',*,*,#259,.T.);
#89=ORIENTED_EDGE('',*,*,#305,.T.);
#90=ORIENTED_EDGE('',*,*,#306,.F.);
#91=ORIENTED_EDGE('',*,*,#307,.F.);
#92=ORIENTED_EDGE('',*,*,#260,.T.);
#93=ORIENTED_EDGE('',*,*,#304,.T.);
#94=ORIENTED_EDGE('',*,*,#307,.T.);
#95=ORIENTED_EDGE('',*,*,#308,.T.);
#96=ORIENTED_EDGE('',*,*,#309,.F.);
#97=ORIENTED_EDGE('',*,*,#261,.F.);
#98=ORIENTED_EDGE('',*,*,#310,.F.);
#99=ORIENTED_EDGE('',*,*,#311,.F.);
#100=ORIENTED_EDGE('',*,*,#263,.T.);
#101=ORIENTED_EDGE('',*,*,#312,.T.);
#102=ORIENTED_EDGE('',*,*,#313,.F.);
#103=ORIENTED_EDGE('',*,*,#314,.F.);
#104=ORIENTED_EDGE('',*,*,#264,.T.);
#105=ORIENTED_EDGE('',*,*,#311,.T.);
#106=ORIENTED_EDGE('',*,*,#314,.T.);
#107=ORIENTED_EDGE('',*,*,#315,.T.);
#108=ORIENTED_EDGE('',*,*,#316,.F.);
#109=ORIENTED_EDGE('',*,*,#265,.F.);
#110=ORIENTED_EDGE('',*,*,#317,.T.);
#111=ORIENTED_EDGE('',*,*,#318,.T.);
#112=ORIENTED_EDGE('',*,*,#319,.F.);
#113=ORIENTED_EDGE('',*,*,#267,.F.);
#114=ORIENTED_EDGE('',*,*,#319,.T.);
#115=ORIENTED_EDGE('',*,*,#320,.T.);
#116=ORIENTED_EDGE('',*,*,#321,.F.);
#117=ORIENTED_EDGE('',*,*,#268,.F.);
#118=ORIENTED_EDGE('',*,*,#322,.F.);
#119=ORIENTED_EDGE('',*,*,#323,.F.);
#120=ORIENTED_EDGE('',*,*,#269,.T.);
#121=ORIENTED_EDGE('',*,*,#321,.T.);
#122=ORIENTED_EDGE('',*,*,#324,.T.);
#123=ORIENTED_EDGE('',*,*,#325,.T.);
#124=ORIENTED_EDGE('',*,*,#326,.F.);
#125=ORIENTED_EDGE('',*,*,#271,.F.);
#126=ORIENTED_EDGE('',*,*,#326,.T.);
#127=ORIENTED_EDGE('',*,*,#327,.T.);
#128=ORIENTED_EDGE('',*,*,#328,.F.);
#129=ORIENTED_EDGE('',*,*,#272,.F.);
#130=ORIENTED_EDGE('',*,*,#329,.F.);
#131=ORIENTED_EDGE('',*,*,#330,.F.);
#132=ORIENTED_EDGE('',*,*,#273,.T.);
#133=ORIENTED_EDGE('',*,*,#328,.T.);
#134=ORIENTED_EDGE('',*,*,#331,.T.);
#135=ORIENTED_EDGE('',*,*,#332,.T.);
#136=ORIENTED_EDGE('',*,*,#333,.F.);
#137=ORIENTED_EDGE('',*,*,#275,.F.);
#138=ORIENTED_EDGE('',*,*,#333,.T.);
#139=ORIENTED_EDGE('',*,*,#334,.T.);
#140=ORIENTED_EDGE('',*,*,#335,.F.);
#141=ORIENTED_EDGE('',*,*,#276,.F.);
#142=ORIENTED_EDGE('',*,*,#336,.F.);
#143=ORIENTED_EDGE('',*,*,#337,.F.);
#144=ORIENTED_EDGE('',*,*,#277,.T.);
#145=ORIENTED_EDGE('',*,*,#335,.T.);
#146=ORIENTED_EDGE('',*,*,#338,.T.);
#147=ORIENTED_EDGE('',*,*,#339,.F.);
#148=ORIENTED_EDGE('',*,*,#298,.F.);
#149=ORIENTED_EDGE('',*,*,#286,.F.);
#150=ORIENTED_EDGE('',*,*,#340,.T.);
#151=ORIENTED_EDGE('',*,*,#341,.F.);
#152=ORIENTED_EDGE('',*,*,#342,.F.);
#153=ORIENTED_EDGE('',*,*,#282,.F.);
#154=ORIENTED_EDGE('',*,*,#343,.T.);
#155=ORIENTED_EDGE('',*,*,#344,.F.);
#156=ORIENTED_EDGE('',*,*,#345,.F.);
#157=ORIENTED_EDGE('',*,*,#278,.F.);
#158=ORIENTED_EDGE('',*,*,#337,.T.);
#159=ORIENTED_EDGE('',*,*,#346,.F.);
#160=ORIENTED_EDGE('',*,*,#331,.F.);
#161=ORIENTED_EDGE('',*,*,#274,.F.);
#162=ORIENTED_EDGE('',*,*,#330,.T.);
#163=ORIENTED_EDGE('',*,*,#347,.F.);
#164=ORIENTED_EDGE('',*,*,#324,.F.);
#165=ORIENTED_EDGE('',*,*,#270,.F.);
#166=ORIENTED_EDGE('',*,*,#323,.T.);
#167=ORIENTED_EDGE('',*,*,#348,.F.);
#168=ORIENTED_EDGE('',*,*,#317,.F.);
#169=ORIENTED_EDGE('',*,*,#266,.F.);
#170=ORIENTED_EDGE('',*,*,#316,.T.);
#171=ORIENTED_EDGE('',*,*,#349,.F.);
#172=ORIENTED_EDGE('',*,*,#312,.F.);
#173=ORIENTED_EDGE('',*,*,#262,.F.);
#174=ORIENTED_EDGE('',*,*,#309,.T.);
#175=ORIENTED_EDGE('',*,*,#350,.F.);
#176=ORIENTED_EDGE('',*,*,#305,.F.);
#177=ORIENTED_EDGE('',*,*,#258,.F.);
#178=ORIENTED_EDGE('',*,*,#302,.T.);
#179=ORIENTED_EDGE('',*,*,#345,.T.);
#180=ORIENTED_EDGE('',*,*,#351,.T.);
#181=ORIENTED_EDGE('',*,*,#352,.F.);
#182=ORIENTED_EDGE('',*,*,#279,.F.);
#183=ORIENTED_EDGE('',*,*,#352,.T.);
#184=ORIENTED_EDGE('',*,*,#353,.T.);
#185=ORIENTED_EDGE('',*,*,#354,.F.);
#186=ORIENTED_EDGE('',*,*,#280,.F.);
#187=ORIENTED_EDGE('',*,*,#355,.F.);
#188=ORIENTED_EDGE('',*,*,#343,.F.);
#189=ORIENTED_EDGE('',*,*,#281,.T.);
#190=ORIENTED_EDGE('',*,*,#354,.T.);
#191=ORIENTED_EDGE('',*,*,#356,.F.);
#192=ORIENTED_EDGE('',*,*,#357,.F.);
#193=ORIENTED_EDGE('',*,*,#283,.T.);
#194=ORIENTED_EDGE('',*,*,#342,.T.);
#195=ORIENTED_EDGE('',*,*,#358,.F.);
#196=ORIENTED_EDGE('',*,*,#359,.F.);
#197=ORIENTED_EDGE('',*,*,#284,.T.);
#198=ORIENTED_EDGE('',*,*,#357,.T.);
#199=ORIENTED_EDGE('',*,*,#359,.T.);
#200=ORIENTED_EDGE('',*,*,#360,.T.);
#201=ORIENTED_EDGE('',*,*,#340,.F.);
#202=ORIENTED_EDGE('',*,*,#285,.F.);
#203=ORIENTED_EDGE('',*,*,#338,.F.);
#204=ORIENTED_EDGE('',*,*,#361,.T.);
#205=ORIENTED_EDGE('',*,*,#291,.T.);
#206=ORIENTED_EDGE('',*,*,#361,.F.);
#207=ORIENTED_EDGE('',*,*,#362,.F.);
#208=ORIENTED_EDGE('',*,*,#292,.T.);
#209=ORIENTED_EDGE('',*,*,#363,.T.);
#210=ORIENTED_EDGE('',*,*,#288,.F.);
#211=ORIENTED_EDGE('',*,*,#287,.T.);
#212=ORIENTED_EDGE('',*,*,#364,.F.);
#213=ORIENTED_EDGE('',*,*,#293,.F.);
#214=ORIENTED_EDGE('',*,*,#362,.T.);
#215=ORIENTED_EDGE('',*,*,#290,.T.);
#216=ORIENTED_EDGE('',*,*,#365,.F.);
#217=ORIENTED_EDGE('',*,*,#294,.F.);
#218=ORIENTED_EDGE('',*,*,#364,.T.);
#219=ORIENTED_EDGE('',*,*,#363,.F.);
#220=ORIENTED_EDGE('',*,*,#295,.T.);
#221=ORIENTED_EDGE('',*,*,#365,.T.);
#222=ORIENTED_EDGE('',*,*,#289,.F.);
#223=ORIENTED_EDGE('',*,*,#347,.T.);
#224=ORIENTED_EDGE('',*,*,#329,.T.);
#225=ORIENTED_EDGE('',*,*,#327,.F.);
#226=ORIENTED_EDGE('',*,*,#325,.F.);
#227=ORIENTED_EDGE('',*,*,#336,.T.);
#228=ORIENTED_EDGE('',*,*,#334,.F.);
#229=ORIENTED_EDGE('',*,*,#332,.F.);
#230=ORIENTED_EDGE('',*,*,#346,.T.);
#231=ORIENTED_EDGE('',*,*,#355,.T.);
#232=ORIENTED_EDGE('',*,*,#353,.F.);
#233=ORIENTED_EDGE('',*,*,#351,.F.);
#234=ORIENTED_EDGE('',*,*,#344,.T.);
#235=ORIENTED_EDGE('',*,*,#358,.T.);
#236=ORIENTED_EDGE('',*,*,#356,.T.);
#237=ORIENTED_EDGE('',*,*,#341,.T.);
#238=ORIENTED_EDGE('',*,*,#360,.F.);
#239=ORIENTED_EDGE('',*,*,#296,.T.);
#240=ORIENTED_EDGE('',*,*,#339,.T.);
#241=ORIENTED_EDGE('',*,*,#301,.F.);
#242=ORIENTED_EDGE('',*,*,#299,.T.);
#243=ORIENTED_EDGE('',*,*,#303,.T.);
#244=ORIENTED_EDGE('',*,*,#350,.T.);
#245=ORIENTED_EDGE('',*,*,#308,.F.);
#246=ORIENTED_EDGE('',*,*,#306,.T.);
#247=ORIENTED_EDGE('',*,*,#313,.T.);
#248=ORIENTED_EDGE('',*,*,#310,.T.);
#249=ORIENTED_EDGE('',*,*,#349,.T.);
#250=ORIENTED_EDGE('',*,*,#315,.F.);
#251=ORIENTED_EDGE('',*,*,#348,.T.);
#252=ORIENTED_EDGE('',*,*,#322,.T.);
#253=ORIENTED_EDGE('',*,*,#320,.F.);
#254=ORIENTED_EDGE('',*,*,#318,.F.);
#255=EDGE_CURVE('',#366,#367,#441,.T.);
#256=EDGE_CURVE('',#368,#366,#442,.T.);
#257=EDGE_CURVE('',#368,#369,#443,.T.);
#258=EDGE_CURVE('',#369,#370,#14,.T.);
#259=EDGE_CURVE('',#371,#370,#444,.T.);
#260=EDGE_CURVE('',#372,#371,#445,.T.);
#261=EDGE_CURVE('',#372,#373,#446,.T.);
#262=EDGE_CURVE('',#373,#374,#15,.T.);
#263=EDGE_CURVE('',#375,#374,#447,.T.);
#264=EDGE_CURVE('',#376,#375,#448,.T.);
#265=EDGE_CURVE('',#376,#377,#449,.T.);
#266=EDGE_CURVE('',#377,#378,#16,.T.);
#267=EDGE_CURVE('',#378,#379,#450,.T.);
#268=EDGE_CURVE('',#379,#380,#451,.T.);
#269=EDGE_CURVE('',#381,#380,#452,.T.);
#270=EDGE_CURVE('',#381,#382,#17,.T.);
#271=EDGE_CURVE('',#382,#383,#453,.T.);
#272=EDGE_CURVE('',#383,#384,#454,.T.);
#273=EDGE_CURVE('',#385,#384,#455,.T.);
#274=EDGE_CURVE('',#385,#386,#18,.T.);
#275=EDGE_CURVE('',#386,#387,#456,.T.);
#276=EDGE_CURVE('',#387,#388,#457,.T.);
#277=EDGE_CURVE('',#389,#388,#458,.T.);
#278=EDGE_CURVE('',#389,#390,#19,.T.);
#279=EDGE_CURVE('',#390,#391,#459,.T.);
#280=EDGE_CURVE('',#391,#392,#460,.T.);
#281=EDGE_CURVE('',#393,#392,#461,.T.);
#282=EDGE_CURVE('',#393,#394,#20,.T.);
#283=EDGE_CURVE('',#395,#394,#462,.T.);
#284=EDGE_CURVE('',#396,#395,#463,.T.);
#285=EDGE_CURVE('',#396,#397,#464,.T.);
#286=EDGE_CURVE('',#397,#367,#21,.T.);
#287=EDGE_CURVE('',#398,#399,#465,.T.);
#288=EDGE_CURVE('',#398,#400,#466,.T.);
#289=EDGE_CURVE('',#400,#401,#467,.T.);
#290=EDGE_CURVE('',#399,#401,#468,.T.);
#291=EDGE_CURVE('',#402,#402,#22,.T.);
#292=EDGE_CURVE('',#403,#404,#469,.T.);
#293=EDGE_CURVE('',#403,#405,#470,.T.);
#294=EDGE_CURVE('',#405,#406,#471,.T.);
#295=EDGE_CURVE('',#404,#406,#472,.T.);
#296=EDGE_CURVE('',#407,#408,#473,.T.);
#297=EDGE_CURVE('',#366,#407,#474,.T.);
#298=EDGE_CURVE('',#367,#408,#475,.T.);
#299=EDGE_CURVE('',#409,#407,#476,.T.);
#300=EDGE_CURVE('',#368,#409,#477,.T.);
#301=EDGE_CURVE('',#409,#410,#478,.T.);
#302=EDGE_CURVE('',#369,#410,#479,.T.);
#303=EDGE_CURVE('',#411,#412,#480,.T.);
#304=EDGE_CURVE('',#371,#411,#481,.T.);
#305=EDGE_CURVE('',#370,#412,#482,.T.);
#306=EDGE_CURVE('',#413,#411,#483,.T.);
#307=EDGE_CURVE('',#372,#413,#484,.T.);
#308=EDGE_CURVE('',#413,#414,#485,.T.);
#309=EDGE_CURVE('',#373,#414,#486,.T.);
#310=EDGE_CURVE('',#415,#416,#487,.T.);
#311=EDGE_CURVE('',#375,#415,#488,.T.);
#312=EDGE_CURVE('',#374,#416,#489,.T.);
#313=EDGE_CURVE('',#417,#415,#490,.T.);
#314=EDGE_CURVE('',#376,#417,#491,.T.);
#315=EDGE_CURVE('',#417,#418,#492,.T.);
#316=EDGE_CURVE('',#377,#418,#493,.T.);
#317=EDGE_CURVE('',#378,#419,#494,.T.);
#318=EDGE_CURVE('',#419,#420,#495,.T.);
#319=EDGE_CURVE('',#379,#420,#496,.T.);
#320=EDGE_CURVE('',#420,#421,#497,.T.);
#321=EDGE_CURVE('',#380,#421,#498,.T.);
#322=EDGE_CURVE('',#422,#421,#499,.T.);
#323=EDGE_CURVE('',#381,#422,#500,.T.);
#324=EDGE_CURVE('',#382,#423,#501,.T.);
#325=EDGE_CURVE('',#423,#424,#502,.T.);
#326=EDGE_CURVE('',#383,#424,#503,.T.);
#327=EDGE_CURVE('',#424,#425,#504,.T.);
#328=EDGE_CURVE('',#384,#425,#505,.T.);
#329=EDGE_CURVE('',#426,#425,#506,.T.);
#330=EDGE_CURVE('',#385,#426,#507,.T.);
#331=EDGE_CURVE('',#386,#427,#508,.T.);
#332=EDGE_CURVE('',#427,#428,#509,.T.);
#333=EDGE_CURVE('',#387,#428,#510,.T.);
#334=EDGE_CURVE('',#428,#429,#511,.T.);
#335=EDGE_CURVE('',#388,#429,#512,.T.);
#336=EDGE_CURVE('',#430,#429,#513,.T.);
#337=EDGE_CURVE('',#389,#430,#514,.T.);
#338=EDGE_CURVE('',#431,#431,#23,.T.);
#339=EDGE_CURVE('',#408,#410,#24,.T.);
#340=EDGE_CURVE('',#397,#432,#515,.T.);
#341=EDGE_CURVE('',#433,#432,#25,.T.);
#342=EDGE_CURVE('',#394,#433,#516,.T.);
#343=EDGE_CURVE('',#393,#434,#517,.T.);
#344=EDGE_CURVE('',#435,#434,#26,.T.);
#345=EDGE_CURVE('',#390,#435,#518,.T.);
#346=EDGE_CURVE('',#427,#430,#27,.T.);
#347=EDGE_CURVE('',#423,#426,#28,.T.);
#348=EDGE_CURVE('',#419,#422,#29,.T.);
#349=EDGE_CURVE('',#416,#418,#30,.T.);
#350=EDGE_CURVE('',#412,#414,#31,.T.);
#351=EDGE_CURVE('',#435,#436,#519,.T.);
#352=EDGE_CURVE('',#391,#436,#520,.T.);
#353=EDGE_CURVE('',#436,#437,#521,.T.);
#354=EDGE_CURVE('',#392,#437,#522,.T.);
#355=EDGE_CURVE('',#434,#437,#523,.T.);
#356=EDGE_CURVE('',#438,#433,#524,.T.);
#357=EDGE_CURVE('',#395,#438,#525,.T.);
#358=EDGE_CURVE('',#439,#438,#526,.T.);
#359=EDGE_CURVE('',#396,#439,#527,.T.);
#360=EDGE_CURVE('',#439,#432,#528,.T.);
#361=EDGE_CURVE('',#440,#440,#32,.T.);
#362=EDGE_CURVE('',#403,#398,#529,.T.);
#363=EDGE_CURVE('',#404,#400,#530,.T.);
#364=EDGE_CURVE('',#405,#399,#531,.T.);
#365=EDGE_CURVE('',#406,#401,#532,.T.);
#366=VERTEX_POINT('',#1087);
#367=VERTEX_POINT('',#1088);
#368=VERTEX_POINT('',#1090);
#369=VERTEX_POINT('',#1092);
#370=VERTEX_POINT('',#1094);
#371=VERTEX_POINT('',#1096);
#372=VERTEX_POINT('',#1098);
#373=VERTEX_POINT('',#1100);
#374=VERTEX_POINT('',#1102);
#375=VERTEX_POINT('',#1104);
#376=VERTEX_POINT('',#1106);
#377=VERTEX_POINT('',#1108);
#378=VERTEX_POINT('',#1110);
#379=VERTEX_POINT('',#1112);
#380=VERTEX_POINT('',#1114);
#381=VERTEX_POINT('',#1116);
#382=VERTEX_POINT('',#1118);
#383=VERTEX_POINT('',#1120);
#384=VERTEX_POINT('',#1122);
#385=VERTEX_POINT('',#1124);
#386=VERTEX_POINT('',#1126);
#387=VERTEX_POINT('',#1128);
#388=VERTEX_POINT('',#1130);
#389=VERTEX_POINT('',#1132);
#390=VERTEX_POINT('',#1134);
#391=VERTEX_POINT('',#1136);
#392=VERTEX_POINT('',#1138);
#393=VERTEX_POINT('',#1140);
#394=VERTEX_POINT('',#1142);
#395=VERTEX_POINT('',#1144);
#396=VERTEX_POINT('',#1146);
#397=VERTEX_POINT('',#1148);
#398=VERTEX_POINT('',#1151);
#399=VERTEX_POINT('',#1152);
#400=VERTEX_POINT('',#1154);
#401=VERTEX_POINT('',#1156);
#402=VERTEX_POINT('',#1160);
#403=VERTEX_POINT('',#1162);
#404=VERTEX_POINT('',#1163);
#405=VERTEX_POINT('',#1165);
#406=VERTEX_POINT('',#1167);
#407=VERTEX_POINT('',#1171);
#408=VERTEX_POINT('',#1172);
#409=VERTEX_POINT('',#1177);
#410=VERTEX_POINT('',#1181);
#411=VERTEX_POINT('',#1185);
#412=VERTEX_POINT('',#1186);
#413=VERTEX_POINT('',#1191);
#414=VERTEX_POINT('',#1195);
#415=VERTEX_POINT('',#1199);
#416=VERTEX_POINT('',#1200);
#417=VERTEX_POINT('',#1205);
#418=VERTEX_POINT('',#1209);
#419=VERTEX_POINT('',#1213);
#420=VERTEX_POINT('',#1215);
#421=VERTEX_POINT('',#1219);
#422=VERTEX_POINT('',#1223);
#423=VERTEX_POINT('',#1227);
#424=VERTEX_POINT('',#1229);
#425=VERTEX_POINT('',#1233);
#426=VERTEX_POINT('',#1237);
#427=VERTEX_POINT('',#1241);
#428=VERTEX_POINT('',#1243);
#429=VERTEX_POINT('',#1247);
#430=VERTEX_POINT('',#1251);
#431=VERTEX_POINT('',#1255);
#432=VERTEX_POINT('',#1258);
#433=VERTEX_POINT('',#1260);
#434=VERTEX_POINT('',#1263);
#435=VERTEX_POINT('',#1265);
#436=VERTEX_POINT('',#1274);
#437=VERTEX_POINT('',#1278);
#438=VERTEX_POINT('',#1284);
#439=VERTEX_POINT('',#1288);
#440=VERTEX_POINT('',#1294);
#441=LINE('',#1086,#533);
#442=LINE('',#1089,#534);
#443=LINE('',#1091,#535);
#444=LINE('',#1095,#536);
#445=LINE('',#1097,#537);
#446=LINE('',#1099,#538);
#447=LINE('',#1103,#539);
#448=LINE('',#1105,#540);
#449=LINE('',#1107,#541);
#450=LINE('',#1111,#542);
#451=LINE('',#1113,#543);
#452=LINE('',#1115,#544);
#453=LINE('',#1119,#545);
#454=LINE('',#1121,#546);
#455=LINE('',#1123,#547);
#456=LINE('',#1127,#548);
#457=LINE('',#1129,#549);
#458=LINE('',#1131,#550);
#459=LINE('',#1135,#551);
#460=LINE('',#1137,#552);
#461=LINE('',#1139,#553);
#462=LINE('',#1143,#554);
#463=LINE('',#1145,#555);
#464=LINE('',#1147,#556);
#465=LINE('',#1150,#557);
#466=LINE('',#1153,#558);
#467=LINE('',#1155,#559);
#468=LINE('',#1157,#560);
#469=LINE('',#1161,#561);
#470=LINE('',#1164,#562);
#471=LINE('',#1166,#563);
#472=LINE('',#1168,#564);
#473=LINE('',#1170,#565);
#474=LINE('',#1173,#566);
#475=LINE('',#1174,#567);
#476=LINE('',#1176,#568);
#477=LINE('',#1178,#569);
#478=LINE('',#1180,#570);
#479=LINE('',#1182,#571);
#480=LINE('',#1184,#572);
#481=LINE('',#1187,#573);
#482=LINE('',#1188,#574);
#483=LINE('',#1190,#575);
#484=LINE('',#1192,#576);
#485=LINE('',#1194,#577);
#486=LINE('',#1196,#578);
#487=LINE('',#1198,#579);
#488=LINE('',#1201,#580);
#489=LINE('',#1202,#581);
#490=LINE('',#1204,#582);
#491=LINE('',#1206,#583);
#492=LINE('',#1208,#584);
#493=LINE('',#1210,#585);
#494=LINE('',#1212,#586);
#495=LINE('',#1214,#587);
#496=LINE('',#1216,#588);
#497=LINE('',#1218,#589);
#498=LINE('',#1220,#590);
#499=LINE('',#1222,#591);
#500=LINE('',#1224,#592);
#501=LINE('',#1226,#593);
#502=LINE('',#1228,#594);
#503=LINE('',#1230,#595);
#504=LINE('',#1232,#596);
#505=LINE('',#1234,#597);
#506=LINE('',#1236,#598);
#507=LINE('',#1238,#599);
#508=LINE('',#1240,#600);
#509=LINE('',#1242,#601);
#510=LINE('',#1244,#602);
#511=LINE('',#1246,#603);
#512=LINE('',#1248,#604);
#513=LINE('',#1250,#605);
#514=LINE('',#1252,#606);
#515=LINE('',#1257,#607);
#516=LINE('',#1261,#608);
#517=LINE('',#1262,#609);
#518=LINE('',#1266,#610);
#519=LINE('',#1273,#611);
#520=LINE('',#1275,#612);
#521=LINE('',#1277,#613);
#522=LINE('',#1279,#614);
#523=LINE('',#1281,#615);
#524=LINE('',#1283,#616);
#525=LINE('',#1285,#617);
#526=LINE('',#1287,#618);
#527=LINE('',#1289,#619);
#528=LINE('',#1291,#620);
#529=LINE('',#1297,#621);
#530=LINE('',#1298,#622);
#531=LINE('',#1300,#623);
#532=LINE('',#1302,#624);
#533=VECTOR('',#874,1.);
#534=VECTOR('',#875,1.);
#535=VECTOR('',#876,1.);
#536=VECTOR('',#879,1.);
#537=VECTOR('',#880,1.);
#538=VECTOR('',#881,1.);
#539=VECTOR('',#884,1.);
#540=VECTOR('',#885,1.);
#541=VECTOR('',#886,1.);
#542=VECTOR('',#889,1.);
#543=VECTOR('',#890,1.);
#544=VECTOR('',#891,1.);
#545=VECTOR('',#894,1.);
#546=VECTOR('',#895,1.);
#547=VECTOR('',#896,1.);
#548=VECTOR('',#899,1.);
#549=VECTOR('',#900,1.);
#550=VECTOR('',#901,1.);
#551=VECTOR('',#904,1.);
#552=VECTOR('',#905,1.);
#553=VECTOR('',#906,1.);
#554=VECTOR('',#909,1.);
#555=VECTOR('',#910,1.);
#556=VECTOR('',#911,1.);
#557=VECTOR('',#914,1.);
#558=VECTOR('',#915,1.);
#559=VECTOR('',#916,1.);
#560=VECTOR('',#917,1.);
#561=VECTOR('',#922,1.);
#562=VECTOR('',#923,1.);
#563=VECTOR('',#924,1.);
#564=VECTOR('',#925,1.);
#565=VECTOR('',#928,1.);
#566=VECTOR('',#929,1.);
#567=VECTOR('',#930,1.);
#568=VECTOR('',#933,1.);
#569=VECTOR('',#934,1.);
#570=VECTOR('',#937,1.);
#571=VECTOR('',#938,1.);
#572=VECTOR('',#941,1.);
#573=VECTOR('',#942,1.);
#574=VECTOR('',#943,1.);
#575=VECTOR('',#946,1.);
#576=VECTOR('',#947,1.);
#577=VECTOR('',#950,1.);
#578=VECTOR('',#951,1.);
#579=VECTOR('',#954,1.);
#580=VECTOR('',#955,1.);
#581=VECTOR('',#956,1.);
#582=VECTOR('',#959,1.);
#583=VECTOR('',#960,1.);
#584=VECTOR('',#963,1.);
#585=VECTOR('',#964,1.);
#586=VECTOR('',#967,1.);
#587=VECTOR('',#968,1.);
#588=VECTOR('',#969,1.);
#589=VECTOR('',#972,1.);
#590=VECTOR('',#973,1.);
#591=VECTOR('',#976,1.);
#592=VECTOR('',#977,1.);
#593=VECTOR('',#980,1.);
#594=VECTOR('',#981,1.);
#595=VECTOR('',#982,1.);
#596=VECTOR('',#985,1.);
#597=VECTOR('',#986,1.);
#598=VECTOR('',#989,1.);
#599=VECTOR('',#990,1.);
#600=VECTOR('',#993,1.);
#601=VECTOR('',#994,1.);
#602=VECTOR('',#995,1.);
#603=VECTOR('',#998,1.);
#604=VECTOR('',#999,1.);
#605=VECTOR('',#1002,1.);
#606=VECTOR('',#1003,1.);
#607=VECTOR('',#1010,1.);
#608=VECTOR('',#1013,1.);
#609=VECTOR('',#1014,1.);
#610=VECTOR('',#1017,1.);
#611=VECTOR('',#1030,1.);
#612=VECTOR('',#1031,1.);
#613=VECTOR('',#1034,1.);
#614=VECTOR('',#1035,1.);
#615=VECTOR('',#1038,1.);
#616=VECTOR('',#1041,1.);
#617=VECTOR('',#1042,1.);
#618=VECTOR('',#1045,1.);
#619=VECTOR('',#1046,1.);
#620=VECTOR('',#1049,1.);
#621=VECTOR('',#1058,1.);
#622=VECTOR('',#1059,1.);
#623=VECTOR('',#1062,1.);
#624=VECTOR('',#1065,1.);
#625=EDGE_LOOP('',(#33,#34,#35,#36,#37,#38,#39,#40,#41,#42,#43,#44,#45,#46,#47,#48,#49,#50,#51,#52,#53,#54,#55,#56,#57,#58,#59,#60,#61,#62,#63,#64));
#626=EDGE_LOOP('',(#65,#66,#67,#68));
#627=EDGE_LOOP('',(#69));
#628=EDGE_LOOP('',(#70,#71,#72,#73));
#629=EDGE_LOOP('',(#74,#75,#76,#77));
#630=EDGE_LOOP('',(#78,#79,#80,#81));
#631=EDGE_LOOP('',(#82,#83,#84,#85));
#632=EDGE_LOOP('',(#86,#87,#88,#89));
#633=EDGE_LOOP('',(#90,#91,#92,#93));
#634=EDGE_LOOP('',(#94,#95,#96,#97));
#635=EDGE_LOOP('',(#98,#99,#100,#101));
#636=EDGE_LOOP('',(#102,#103,#104,#105));
#637=EDGE_LOOP('',(#106,#107,#108,#109));
#638=EDGE_LOOP('',(#110,#111,#112,#113));
#639=EDGE_LOOP('',(#114,#115,#116,#117));
#640=EDGE_LOOP('',(#118,#119,#120,#121));
#641=EDGE_LOOP('',(#122,#123,#124,#125));
#642=EDGE_LOOP('',(#126,#127,#128,#129));
#643=EDGE_LOOP('',(#130,#131,#132,#133));
#644=EDGE_LOOP('',(#134,#135,#136,#137));
#645=EDGE_LOOP('',(#138,#139,#140,#141));
#646=EDGE_LOOP('',(#142,#143,#144,#145));
#647=EDGE_LOOP('',(#146));
#648=EDGE_LOOP('',(#147,#148,#149,#150,#151,#152,#153,#154,#155,#156,#157,#158,#159,#160,#161,#162,#163,#164,#165,#166,#167,#168,#169,#170,#171,#172,#173,#174,#175,#176,#177,#178));
#649=EDGE_LOOP('',(#179,#180,#181,#182));
#650=EDGE_LOOP('',(#183,#184,#185,#186));
#651=EDGE_LOOP('',(#187,#188,#189,#190));
#652=EDGE_LOOP('',(#191,#192,#193,#194));
#653=EDGE_LOOP('',(#195,#196,#197,#198));
#654=EDGE_LOOP('',(#199,#200,#201,#202));
#655=EDGE_LOOP('',(#203));
#656=EDGE_LOOP('',(#204));
#657=EDGE_LOOP('',(#205));
#658=EDGE_LOOP('',(#206));
#659=EDGE_LOOP('',(#207,#208,#209,#210));
#660=EDGE_LOOP('',(#211,#212,#213,#214));
#661=EDGE_LOOP('',(#215,#216,#217,#218));
#662=EDGE_LOOP('',(#219,#220,#221,#222));
#663=EDGE_LOOP('',(#223,#224,#225,#226));
#664=EDGE_LOOP('',(#227,#228,#229,#230));
#665=EDGE_LOOP('',(#231,#232,#233,#234));
#666=EDGE_LOOP('',(#235,#236,#237,#238));
#667=EDGE_LOOP('',(#239,#240,#241,#242));
#668=EDGE_LOOP('',(#243,#244,#245,#246));
#669=EDGE_LOOP('',(#247,#248,#249,#250));
#670=EDGE_LOOP('',(#251,#252,#253,#254));
#671=FACE_BOUND('',#625,.T.);
#672=FACE_BOUND('',#626,.T.);
#673=FACE_BOUND('',#627,.T.);
#674=FACE_BOUND('',#628,.T.);
#675=FACE_BOUND('',#629,.T.);
#676=FACE_BOUND('',#630,.T.);
#677=FACE_BOUND('',#631,.T.);
#678=FACE_BOUND('',#632,.T.);
#679=FACE_BOUND('',#633,.T.);
#680=FACE_BOUND('',#634,.T.);
#681=FACE_BOUND('',#635,.T.);
#682=FACE_BOUND('',#636,.T.);
#683=FACE_BOUND('',#637,.T.);
#684=FACE_BOUND('',#638,.T.);
#685=FACE_BOUND('',#639,.T.);
#686=FACE_BOUND('',#640,.T.);
#687=FACE_BOUND('',#641,.T.);
#688=FACE_BOUND('',#642,.T.);
#689=FACE_BOUND('',#643,.T.);
#690=FACE_BOUND('',#644,.T.);
#691=FACE_BOUND('',#645,.T.);
#692=FACE_BOUND('',#646,.T.);
#693=FACE_BOUND('',#647,.T.);
#694=FACE_BOUND('',#648,.T.);
#695=FACE_BOUND('',#649,.T.);
#696=FACE_BOUND('',#650,.T.);
#697=FACE_BOUND('',#651,.T.);
#698=FACE_BOUND('',#652,.T.);
#699=FACE_BOUND('',#653,.T.);
#700=FACE_BOUND('',#654,.T.);
#701=FACE_BOUND('',#655,.T.);
#702=FACE_BOUND('',#656,.T.);
#703=FACE_BOUND('',#657,.T.);
#704=FACE_BOUND('',#658,.T.);
#705=FACE_BOUND('',#659,.T.);
#706=FACE_BOUND('',#660,.T.);
#707=FACE_BOUND('',#661,.T.);
#708=FACE_BOUND('',#662,.T.);
#709=FACE_BOUND('',#663,.T.);
#710=FACE_BOUND('',#664,.T.);
#711=FACE_BOUND('',#665,.T.);
#712=FACE_BOUND('',#666,.T.);
#713=FACE_BOUND('',#667,.T.);
#714=FACE_BOUND('',#668,.T.);
#715=FACE_BOUND('',#669,.T.);
#716=FACE_BOUND('',#670,.T.);
#717=PLANE('',#810);
#718=PLANE('',#819);
#719=PLANE('',#821);
#720=PLANE('',#822);
#721=PLANE('',#823);
#722=PLANE('',#824);
#723=PLANE('',#825);
#724=PLANE('',#826);
#725=PLANE('',#827);
#726=PLANE('',#828);
#727=PLANE('',#829);
#728=PLANE('',#830);
#729=PLANE('',#831);
#730=PLANE('',#832);
#731=PLANE('',#833);
#732=PLANE('',#834);
#733=PLANE('',#835);
#734=PLANE('',#836);
#735=PLANE('',#837);
#736=PLANE('',#838);
#737=PLANE('',#849);
#738=PLANE('',#850);
#739=PLANE('',#851);
#740=PLANE('',#852);
#741=PLANE('',#853);
#742=PLANE('',#854);
#743=PLANE('',#855);
#744=PLANE('',#858);
#745=PLANE('',#859);
#746=PLANE('',#860);
#747=PLANE('',#861);
#748=PLANE('',#862);
#749=PLANE('',#863);
#750=PLANE('',#864);
#751=PLANE('',#865);
#752=PLANE('',#866);
#753=PLANE('',#867);
#754=PLANE('',#868);
#755=PLANE('',#869);
#756=ADVANCED_FACE('',(#671,#672),#717,.T.);
#757=ADVANCED_FACE('',(#673,#674),#718,.F.);
#758=ADVANCED_FACE('',(#675),#719,.T.);
#759=ADVANCED_FACE('',(#676),#720,.T.);
#760=ADVANCED_FACE('',(#677),#721,.F.);
#761=ADVANCED_FACE('',(#678),#722,.T.);
#762=ADVANCED_FACE('',(#679),#723,.T.);
#763=ADVANCED_FACE('',(#680),#724,.F.);
#764=ADVANCED_FACE('',(#681),#725,.T.);
#765=ADVANCED_FACE('',(#682),#726,.T.);
#766=ADVANCED_FACE('',(#683),#727,.F.);
#767=ADVANCED_FACE('',(#684),#728,.F.);
#768=ADVANCED_FACE('',(#685),#729,.F.);
#769=ADVANCED_FACE('',(#686),#730,.T.);
#770=ADVANCED_FACE('',(#687),#731,.F.);
#771=ADVANCED_FACE('',(#688),#732,.F.);
#772=ADVANCED_FACE('',(#689),#733,.T.);
#773=ADVANCED_FACE('',(#690),#734,.F.);
#774=ADVANCED_FACE('',(#691),#735,.F.);
#775=ADVANCED_FACE('',(#692),#736,.T.);
#776=ADVANCED_FACE('',(#693,#694),#12,.T.);
#777=ADVANCED_FACE('',(#695),#737,.F.);
#778=ADVANCED_FACE('',(#696),#738,.F.);
#779=ADVANCED_FACE('',(#697),#739,.T.);
#780=ADVANCED_FACE('',(#698),#740,.T.);
#781=ADVANCED_FACE('',(#699),#741,.T.);
#782=ADVANCED_FACE('',(#700),#742,.F.);
#783=ADVANCED_FACE('',(#701,#702),#743,.F.);
#784=ADVANCED_FACE('',(#703,#704),#13,.T.);
#785=ADVANCED_FACE('',(#705),#744,.T.);
#786=ADVANCED_FACE('',(#706),#745,.F.);
#787=ADVANCED_FACE('',(#707),#746,.F.);
#788=ADVANCED_FACE('',(#708),#747,.T.);
#789=ADVANCED_FACE('',(#709),#748,.F.);
#790=ADVANCED_FACE('',(#710),#749,.F.);
#791=ADVANCED_FACE('',(#711),#750,.F.);
#792=ADVANCED_FACE('',(#712),#751,.F.);
#793=ADVANCED_FACE('',(#713),#752,.F.);
#794=ADVANCED_FACE('',(#714),#753,.F.);
#795=ADVANCED_FACE('',(#715),#754,.F.);
#796=ADVANCED_FACE('',(#716),#755,.F.);
#797=CLOSED_SHELL('',(#756,#757,#758,#759,#760,#761,#762,#763,#764,#765,#766,#767,#768,#769,#770,#771,#772,#773,#774,#775,#776,#777,#778,#779,#780,#781,#782,#783,#784,#785,#786,#787,#788,#789,#790,#791,#792,#793,#794,#795,#796));
#798=STYLED_ITEM('',(#799),#806);
#799=PRESENTATION_STYLE_ASSIGNMENT((#800));
#800=SURFACE_STYLE_USAGE(.BOTH.,#801);
#801=SURFACE_SIDE_STYLE('',(#802));
#802=SURFACE_STYLE_FILL_AREA(#803);
#803=FILL_AREA_STYLE('',(#804));
#804=FILL_AREA_STYLE_COLOUR('',#805);
#805=COLOUR_RGB('',0.654901960784314,0.823529411764706,0.576470588235294);
#806=MANIFOLD_SOLID_BREP('Chamber Leaves',#797);
#807=SHAPE_DEFINITION_REPRESENTATION(#1318,#808);
#808=SHAPE_REPRESENTATION('Chamber Leaves',(#809),#1313);
#809=AXIS2_PLACEMENT_3D('',#1084,#870,#871);
#810=AXIS2_PLACEMENT_3D('',#1085,#872,#873);
#811=AXIS2_PLACEMENT_3D('',#1093,#877,#878);
#812=AXIS2_PLACEMENT_3D('',#1101,#882,#883);
#813=AXIS2_PLACEMENT_3D('',#1109,#887,#888);
#814=AXIS2_PLACEMENT_3D('',#1117,#892,#893);
#815=AXIS2_PLACEMENT_3D('',#1125,#897,#898);
#816=AXIS2_PLACEMENT_3D('',#1133,#902,#903);
#817=AXIS2_PLACEMENT_3D('',#1141,#907,#908);
#818=AXIS2_PLACEMENT_3D('',#1149,#912,#913);
#819=AXIS2_PLACEMENT_3D('',#1158,#918,#919);
#820=AXIS2_PLACEMENT_3D('',#1159,#920,#921);
#821=AXIS2_PLACEMENT_3D('',#1169,#926,#927);
#822=AXIS2_PLACEMENT_3D('',#1175,#931,#932);
#823=AXIS2_PLACEMENT_3D('',#1179,#935,#936);
#824=AXIS2_PLACEMENT_3D('',#1183,#939,#940);
#825=AXIS2_PLACEMENT_3D('',#1189,#944,#945);
#826=AXIS2_PLACEMENT_3D('',#1193,#948,#949);
#827=AXIS2_PLACEMENT_3D('',#1197,#952,#953);
#828=AXIS2_PLACEMENT_3D('',#1203,#957,#958);
#829=AXIS2_PLACEMENT_3D('',#1207,#961,#962);
#830=AXIS2_PLACEMENT_3D('',#1211,#965,#966);
#831=AXIS2_PLACEMENT_3D('',#1217,#970,#971);
#832=AXIS2_PLACEMENT_3D('',#1221,#974,#975);
#833=AXIS2_PLACEMENT_3D('',#1225,#978,#979);
#834=AXIS2_PLACEMENT_3D('',#1231,#983,#984);
#835=AXIS2_PLACEMENT_3D('',#1235,#987,#988);
#836=AXIS2_PLACEMENT_3D('',#1239,#991,#992);
#837=AXIS2_PLACEMENT_3D('',#1245,#996,#997);
#838=AXIS2_PLACEMENT_3D('',#1249,#1000,#1001);
#839=AXIS2_PLACEMENT_3D('',#1253,#1004,#1005);
#840=AXIS2_PLACEMENT_3D('',#1254,#1006,#1007);
#841=AXIS2_PLACEMENT_3D('',#1256,#1008,#1009);
#842=AXIS2_PLACEMENT_3D('',#1259,#1011,#1012);
#843=AXIS2_PLACEMENT_3D('',#1264,#1015,#1016);
#844=AXIS2_PLACEMENT_3D('',#1267,#1018,#1019);
#845=AXIS2_PLACEMENT_3D('',#1268,#1020,#1021);
#846=AXIS2_PLACEMENT_3D('',#1269,#1022,#1023);
#847=AXIS2_PLACEMENT_3D('',#1270,#1024,#1025);
#848=AXIS2_PLACEMENT_3D('',#1271,#1026,#1027);
#849=AXIS2_PLACEMENT_3D('',#1272,#1028,#1029);
#850=AXIS2_PLACEMENT_3D('',#1276,#1032,#1033);
#851=AXIS2_PLACEMENT_3D('',#1280,#1036,#1037);
#852=AXIS2_PLACEMENT_3D('',#1282,#1039,#1040);
#853=AXIS2_PLACEMENT_3D('',#1286,#1043,#1044);
#854=AXIS2_PLACEMENT_3D('',#1290,#1047,#1048);
#855=AXIS2_PLACEMENT_3D('',#1292,#1050,#1051);
#856=AXIS2_PLACEMENT_3D('',#1293,#1052,#1053);
#857=AXIS2_PLACEMENT_3D('',#1295,#1054,#1055);
#858=AXIS2_PLACEMENT_3D('',#1296,#1056,#1057);
#859=AXIS2_PLACEMENT_3D('',#1299,#1060,#1061);
#860=AXIS2_PLACEMENT_3D('',#1301,#1063,#1064);
#861=AXIS2_PLACEMENT_3D('',#1303,#1066,#1067);
#862=AXIS2_PLACEMENT_3D('',#1304,#1068,#1069);
#863=AXIS2_PLACEMENT_3D('',#1305,#1070,#1071);
#864=AXIS2_PLACEMENT_3D('',#1306,#1072,#1073);
#865=AXIS2_PLACEMENT_3D('',#1307,#1074,#1075);
#866=AXIS2_PLACEMENT_3D('',#1308,#1076,#1077);
#867=AXIS2_PLACEMENT_3D('',#1309,#1078,#1079);
#868=AXIS2_PLACEMENT_3D('',#1310,#1080,#1081);
#869=AXIS2_PLACEMENT_3D('',#1311,#1082,#1083);
#870=DIRECTION('',(0.,0.,1.));
#871=DIRECTION('',(1.,0.,0.));
#872=DIRECTION('',(0.,-1.,0.));
#873=DIRECTION('',(1.,0.,0.));
#874=DIRECTION('',(0.,0.,-1.));
#875=DIRECTION('',(1.,0.,0.));
#876=DIRECTION('',(0.,0.,-1.));
#877=DIRECTION('',(0.,-1.,0.));
#878=DIRECTION('',(0.,0.,-1.));
#879=DIRECTION('',(0.707106781186548,0.,-0.707106781186548));
#880=DIRECTION('',(0.707106781186548,0.,0.707106781186548));
#881=DIRECTION('',(0.707106781186548,0.,-0.707106781186548));
#882=DIRECTION('',(0.,-1.,0.));
#883=DIRECTION('',(0.,0.,-1.));
#884=DIRECTION('',(1.,0.,0.));
#885=DIRECTION('',(0.,0.,1.));
#886=DIRECTION('',(1.,0.,0.));
#887=DIRECTION('',(0.,-1.,0.));
#888=DIRECTION('',(0.,0.,-1.));
#889=DIRECTION('',(-0.707106781186548,0.,-0.707106781186548));
#890=DIRECTION('',(0.707106781186549,0.,-0.707106781186546));
#891=DIRECTION('',(-0.707106781186548,0.,-0.707106781186548));
#892=DIRECTION('',(0.,-1.,0.));
#893=DIRECTION('',(0.,0.,-1.));
#894=DIRECTION('',(0.,0.,-1.));
#895=DIRECTION('',(1.,0.,0.));
#896=DIRECTION('',(0.,0.,-1.));
#897=DIRECTION('',(0.,-1.,0.));
#898=DIRECTION('',(0.,0.,-1.));
#899=DIRECTION('',(0.707106781186548,0.,-0.707106781186548));
#900=DIRECTION('',(0.707106781186549,0.,0.707106781186546));
#901=DIRECTION('',(0.707106781186547,0.,-0.707106781186548));
#902=DIRECTION('',(0.,-1.,0.));
#903=DIRECTION('',(0.,0.,-1.));
#904=DIRECTION('',(1.,0.,0.));
#905=DIRECTION('',(0.,0.,1.));
#906=DIRECTION('',(1.,0.,0.));
#907=DIRECTION('',(0.,-1.,0.));
#908=DIRECTION('',(0.,0.,-1.));
#909=DIRECTION('',(-0.707106781186548,0.,-0.707106781186548));
#910=DIRECTION('',(0.707106781186548,0.,-0.707106781186548));
#911=DIRECTION('',(-0.707106781186548,0.,-0.707106781186548));
#912=DIRECTION('',(0.,-1.,0.));
#913=DIRECTION('',(0.,0.,-1.));
#914=DIRECTION('',(-1.,0.,0.));
#915=DIRECTION('',(2.55106393526001E-16,0.,-1.));
#916=DIRECTION('',(-1.,0.,0.));
#917=DIRECTION('',(2.55106393526001E-16,0.,-1.));
#918=DIRECTION('',(0.,-1.,0.));
#919=DIRECTION('',(1.,0.,0.));
#920=DIRECTION('',(0.,-1.,0.));
#921=DIRECTION('',(0.,0.,-1.));
#922=DIRECTION('',(2.55106393526001E-16,0.,-1.));
#923=DIRECTION('',(-1.,0.,0.));
#924=DIRECTION('',(2.55106393526001E-16,0.,-1.));
#925=DIRECTION('',(-1.,0.,0.));
#926=DIRECTION('',(1.,0.,0.));
#927=DIRECTION('',(0.,0.,-1.));
#928=DIRECTION('',(0.,0.,-1.));
#929=DIRECTION('',(0.,1.,0.));
#930=DIRECTION('',(0.,1.,0.));
#931=DIRECTION('',(0.,0.,1.));
#932=DIRECTION('',(1.,0.,0.));
#933=DIRECTION('',(1.,0.,0.));
#934=DIRECTION('',(0.,1.,0.));
#935=DIRECTION('',(1.,0.,0.));
#936=DIRECTION('',(0.,0.,-1.));
#937=DIRECTION('',(0.,0.,-1.));
#938=DIRECTION('',(0.,1.,0.));
#939=DIRECTION('',(0.707106781186548,0.,0.707106781186548));
#940=DIRECTION('',(0.707106781186548,0.,-0.707106781186548));
#941=DIRECTION('',(0.707106781186548,0.,-0.707106781186548));
#942=DIRECTION('',(0.,1.,0.));
#943=DIRECTION('',(0.,1.,0.));
#944=DIRECTION('',(-0.707106781186548,0.,0.707106781186548));
#945=DIRECTION('',(0.707106781186548,0.,0.707106781186548));
#946=DIRECTION('',(0.707106781186548,0.,0.707106781186548));
#947=DIRECTION('',(0.,1.,0.));
#948=DIRECTION('',(0.707106781186548,0.,0.707106781186548));
#949=DIRECTION('',(0.707106781186548,0.,-0.707106781186548));
#950=DIRECTION('',(0.707106781186548,0.,-0.707106781186548));
#951=DIRECTION('',(0.,1.,0.));
#952=DIRECTION('',(0.,0.,1.));
#953=DIRECTION('',(1.,0.,0.));
#954=DIRECTION('',(1.,0.,0.));
#955=DIRECTION('',(0.,1.,0.));
#956=DIRECTION('',(0.,1.,0.));
#957=DIRECTION('',(-1.,0.,0.));
#958=DIRECTION('',(0.,0.,1.));
#959=DIRECTION('',(0.,0.,1.));
#960=DIRECTION('',(0.,1.,0.));
#961=DIRECTION('',(0.,0.,1.));
#962=DIRECTION('',(1.,0.,0.));
#963=DIRECTION('',(1.,0.,0.));
#964=DIRECTION('',(0.,1.,0.));
#965=DIRECTION('',(0.707106781186548,0.,-0.707106781186548));
#966=DIRECTION('',(-0.707106781186548,0.,-0.707106781186548));
#967=DIRECTION('',(0.,1.,0.));
#968=DIRECTION('',(-0.707106781186548,0.,-0.707106781186548));
#969=DIRECTION('',(0.,1.,0.));
#970=DIRECTION('',(0.707106781186546,0.,0.707106781186549));
#971=DIRECTION('',(0.707106781186549,0.,-0.707106781186546));
#972=DIRECTION('',(0.707106781186549,0.,-0.707106781186546));
#973=DIRECTION('',(0.,1.,0.));
#974=DIRECTION('',(0.707106781186548,0.,-0.707106781186548));
#975=DIRECTION('',(-0.707106781186548,0.,-0.707106781186548));
#976=DIRECTION('',(-0.707106781186548,0.,-0.707106781186548));
#977=DIRECTION('',(0.,1.,0.));
#978=DIRECTION('',(1.,0.,0.));
#979=DIRECTION('',(0.,0.,-1.));
#980=DIRECTION('',(0.,1.,0.));
#981=DIRECTION('',(0.,0.,-1.));
#982=DIRECTION('',(0.,1.,0.));
#983=DIRECTION('',(0.,0.,1.));
#984=DIRECTION('',(1.,0.,0.));
#985=DIRECTION('',(1.,0.,0.));
#986=DIRECTION('',(0.,1.,0.));
#987=DIRECTION('',(1.,0.,0.));
#988=DIRECTION('',(0.,0.,-1.));
#989=DIRECTION('',(0.,0.,-1.));
#990=DIRECTION('',(0.,1.,0.));
#991=DIRECTION('',(0.707106781186548,0.,0.707106781186548));
#992=DIRECTION('',(0.707106781186548,0.,-0.707106781186548));
#993=DIRECTION('',(0.,1.,0.));
#994=DIRECTION('',(0.707106781186548,0.,-0.707106781186548));
#995=DIRECTION('',(0.,1.,0.));
#996=DIRECTION('',(-0.707106781186546,0.,0.707106781186549));
#997=DIRECTION('',(0.707106781186549,0.,0.707106781186546));
#998=DIRECTION('',(0.707106781186549,0.,0.707106781186546));
#999=DIRECTION('',(0.,1.,0.));
#1000=DIRECTION('',(0.707106781186548,0.,0.707106781186547));
#1001=DIRECTION('',(0.707106781186547,0.,-0.707106781186548));
#1002=DIRECTION('',(0.707106781186547,0.,-0.707106781186548));
#1003=DIRECTION('',(0.,1.,0.));
#1004=DIRECTION('',(0.,1.,0.));
#1005=DIRECTION('',(0.,0.,1.));
#1006=DIRECTION('',(0.,-1.,0.));
#1007=DIRECTION('',(0.,0.,-1.));
#1008=DIRECTION('',(0.,-1.,0.));
#1009=DIRECTION('',(0.,0.,-1.));
#1010=DIRECTION('',(0.,1.,0.));
#1011=DIRECTION('',(0.,-1.,0.));
#1012=DIRECTION('',(0.,0.,-1.));
#1013=DIRECTION('',(0.,1.,0.));
#1014=DIRECTION('',(0.,1.,0.));
#1015=DIRECTION('',(0.,-1.,0.));
#1016=DIRECTION('',(0.,0.,-1.));
#1017=DIRECTION('',(0.,1.,0.));
#1018=DIRECTION('',(0.,-1.,0.));
#1019=DIRECTION('',(0.,0.,-1.));
#1020=DIRECTION('',(0.,-1.,0.));
#1021=DIRECTION('',(0.,0.,-1.));
#1022=DIRECTION('',(0.,-1.,0.));
#1023=DIRECTION('',(0.,0.,-1.));
#1024=DIRECTION('',(0.,-1.,0.));
#1025=DIRECTION('',(0.,0.,-1.));
#1026=DIRECTION('',(0.,-1.,0.));
#1027=DIRECTION('',(0.,0.,-1.));
#1028=DIRECTION('',(0.,0.,1.));
#1029=DIRECTION('',(1.,0.,0.));
#1030=DIRECTION('',(1.,0.,0.));
#1031=DIRECTION('',(0.,1.,0.));
#1032=DIRECTION('',(-1.,0.,0.));
#1033=DIRECTION('',(0.,0.,1.));
#1034=DIRECTION('',(0.,0.,1.));
#1035=DIRECTION('',(0.,1.,0.));
#1036=DIRECTION('',(0.,0.,1.));
#1037=DIRECTION('',(1.,0.,0.));
#1038=DIRECTION('',(1.,0.,0.));
#1039=DIRECTION('',(0.707106781186548,0.,-0.707106781186548));
#1040=DIRECTION('',(-0.707106781186548,0.,-0.707106781186548));
#1041=DIRECTION('',(-0.707106781186548,0.,-0.707106781186548));
#1042=DIRECTION('',(0.,1.,0.));
#1043=DIRECTION('',(0.707106781186548,0.,0.707106781186548));
#1044=DIRECTION('',(0.707106781186548,0.,-0.707106781186548));
#1045=DIRECTION('',(0.707106781186548,0.,-0.707106781186548));
#1046=DIRECTION('',(0.,1.,0.));
#1047=DIRECTION('',(0.707106781186548,0.,-0.707106781186548));
#1048=DIRECTION('',(-0.707106781186548,0.,-0.707106781186548));
#1049=DIRECTION('',(-0.707106781186548,0.,-0.707106781186548));
#1050=DIRECTION('',(0.,-1.,0.));
#1051=DIRECTION('',(1.,0.,0.));
#1052=DIRECTION('',(0.,-1.,0.));
#1053=DIRECTION('',(0.,0.,-1.));
#1054=DIRECTION('',(0.,-1.,0.));
#1055=DIRECTION('',(0.,0.,-1.));
#1056=DIRECTION('',(-1.,0.,-2.55106393526001E-16));
#1057=DIRECTION('',(-2.55106393526001E-16,0.,1.));
#1058=DIRECTION('',(0.,-1.,0.));
#1059=DIRECTION('',(0.,-1.,0.));
#1060=DIRECTION('',(0.,0.,1.));
#1061=DIRECTION('',(1.,0.,0.));
#1062=DIRECTION('',(0.,-1.,0.));
#1063=DIRECTION('',(-1.,0.,-2.55106393526001E-16));
#1064=DIRECTION('',(-2.55106393526001E-16,0.,1.));
#1065=DIRECTION('',(0.,-1.,0.));
#1066=DIRECTION('',(0.,0.,1.));
#1067=DIRECTION('',(1.,0.,0.));
#1068=DIRECTION('',(0.,-1.,0.));
#1069=DIRECTION('',(1.,0.,0.));
#1070=DIRECTION('',(0.,-1.,0.));
#1071=DIRECTION('',(1.,0.,0.));
#1072=DIRECTION('',(0.,-1.,0.));
#1073=DIRECTION('',(1.,0.,0.));
#1074=DIRECTION('',(0.,-1.,0.));
#1075=DIRECTION('',(1.,0.,0.));
#1076=DIRECTION('',(0.,-1.,0.));
#1077=DIRECTION('',(1.,0.,0.));
#1078=DIRECTION('',(0.,-1.,0.));
#1079=DIRECTION('',(1.,0.,0.));
#1080=DIRECTION('',(0.,-1.,0.));
#1081=DIRECTION('',(1.,0.,0.));
#1082=DIRECTION('',(0.,-1.,0.));
#1083=DIRECTION('',(1.,0.,0.));
#1084=CARTESIAN_POINT('',(0.,0.,0.));
#1085=CARTESIAN_POINT('',(1.38777878078145E-17,-0.02,0.));
#1086=CARTESIAN_POINT('',(0.001,-0.02,0.0364709686815803));
#1087=CARTESIAN_POINT('',(0.001,-0.02,0.0629920629920945));
#1088=CARTESIAN_POINT('',(0.001,-0.02,0.0099498743710662));
#1089=CARTESIAN_POINT('',(0.,-0.02,0.0629920629920945));
#1090=CARTESIAN_POINT('',(-0.001,-0.02,0.0629920629920945));
#1091=CARTESIAN_POINT('',(-0.001,-0.02,0.0364709686815803));
#1092=CARTESIAN_POINT('',(-0.001,-0.02,0.0099498743710662));
#1093=CARTESIAN_POINT('',(-3.46944695195361E-18,-0.02,8.23993651088983E-18));
#1094=CARTESIAN_POINT('',(-0.00632851685854859,-0.02,0.0077427304209217));
#1095=CARTESIAN_POINT('',(-0.0250817624900011,-0.02,0.0264959760523742));
#1096=CARTESIAN_POINT('',(-0.0438350081214536,-0.02,0.0452492216838268));
#1097=CARTESIAN_POINT('',(-0.0445421149026402,-0.02,0.0445421149026402));
#1098=CARTESIAN_POINT('',(-0.0452492216838267,-0.02,0.0438350081214537));
#1099=CARTESIAN_POINT('',(-0.0264959760523742,-0.02,0.0250817624900011));
#1100=CARTESIAN_POINT('',(-0.0077427304209217,-0.02,0.00632851685854859));
#1101=CARTESIAN_POINT('',(6.07153216591882E-18,-0.02,-8.45677694538693E-18));
#1102=CARTESIAN_POINT('',(-0.0099498743710662,-0.02,0.000999999999999979));
#1103=CARTESIAN_POINT('',(-0.0364709686815803,-0.02,0.000999999999999982));
#1104=CARTESIAN_POINT('',(-0.0629920629920945,-0.02,0.000999999999999982));
#1105=CARTESIAN_POINT('',(-0.0629920629920945,-0.02,0.));
#1106=CARTESIAN_POINT('',(-0.0629920629920945,-0.02,-0.001));
#1107=CARTESIAN_POINT('',(-0.0364709686815803,-0.02,-0.00100000000000003));
#1108=CARTESIAN_POINT('',(-0.0099498743710662,-0.02,-0.00100000000000003));
#1109=CARTESIAN_POINT('',(1.90819582357449E-17,-0.02,1.16009632455949E-17));
#1110=CARTESIAN_POINT('',(-0.00774273042092171,-0.02,-0.00632851685854858));
#1111=CARTESIAN_POINT('',(-0.0264959760523743,-0.02,-0.0250817624900011));
#1112=CARTESIAN_POINT('',(-0.0452492216838267,-0.02,-0.0438350081214537));
#1113=CARTESIAN_POINT('',(-0.0445421149026402,-0.02,-0.0445421149026402));
#1114=CARTESIAN_POINT('',(-0.0438350081214537,-0.02,-0.0452492216838267));
#1115=CARTESIAN_POINT('',(-0.0250817624900011,-0.02,-0.0264959760523742));
#1116=CARTESIAN_POINT('',(-0.00632851685854861,-0.02,-0.00774273042092169));
#1117=CARTESIAN_POINT('',(1.32272665043232E-17,-0.02,1.99493199737333E-17));
#1118=CARTESIAN_POINT('',(-0.001,-0.02,-0.0099498743710662));
#1119=CARTESIAN_POINT('',(-0.001,-0.02,-0.0364709686815803));
#1120=CARTESIAN_POINT('',(-0.001,-0.02,-0.0629920629920945));
#1121=CARTESIAN_POINT('',(0.,-0.02,-0.0629920629920945));
#1122=CARTESIAN_POINT('',(0.001,-0.02,-0.0629920629920945));
#1123=CARTESIAN_POINT('',(0.001,-0.02,-0.0364709686815803));
#1124=CARTESIAN_POINT('',(0.001,-0.02,-0.0099498743710662));
#1125=CARTESIAN_POINT('',(-1.40946282423116E-18,-0.02,6.07153216591882E-18));
#1126=CARTESIAN_POINT('',(0.00632851685854859,-0.02,-0.0077427304209217));
#1127=CARTESIAN_POINT('',(0.0250817624900011,-0.02,-0.0264959760523742));
#1128=CARTESIAN_POINT('',(0.0438350081214536,-0.02,-0.0452492216838267));
#1129=CARTESIAN_POINT('',(0.0445421149026402,-0.02,-0.0445421149026402));
#1130=CARTESIAN_POINT('',(0.0452492216838268,-0.02,-0.0438350081214536));
#1131=CARTESIAN_POINT('',(0.0264959760523742,-0.02,-0.0250817624900011));
#1132=CARTESIAN_POINT('',(0.0077427304209217,-0.02,-0.00632851685854859));
#1133=CARTESIAN_POINT('',(-1.77809156287623E-17,-0.02,2.81892564846231E-18));
#1134=CARTESIAN_POINT('',(0.0099498743710662,-0.02,-0.00100000000000003));
#1135=CARTESIAN_POINT('',(0.0364709686815803,-0.02,-0.00100000000000003));
#1136=CARTESIAN_POINT('',(0.0629920629920945,-0.02,-0.00100000000000003));
#1137=CARTESIAN_POINT('',(0.0629920629920945,-0.02,0.));
#1138=CARTESIAN_POINT('',(0.0629920629920945,-0.02,0.001));
#1139=CARTESIAN_POINT('',(0.0364709686815803,-0.02,0.000999999999999982));
#1140=CARTESIAN_POINT('',(0.0099498743710662,-0.02,0.000999999999999982));
#1141=CARTESIAN_POINT('',(-2.12503625807159E-17,-0.02,-1.17093834628434E-17));
#1142=CARTESIAN_POINT('',(0.00774273042092168,-0.02,0.00632851685854861));
#1143=CARTESIAN_POINT('',(0.0264959760523742,-0.02,0.0250817624900011));
#1144=CARTESIAN_POINT('',(0.0452492216838267,-0.02,0.0438350081214537));
#1145=CARTESIAN_POINT('',(0.0445421149026402,-0.02,0.0445421149026402));
#1146=CARTESIAN_POINT('',(0.0438350081214536,-0.02,0.0452492216838267));
#1147=CARTESIAN_POINT('',(0.0250817624900011,-0.02,0.0264959760523743));
#1148=CARTESIAN_POINT('',(0.00632851685854857,-0.02,0.00774273042092171));
#1149=CARTESIAN_POINT('',(-3.25260651745651E-18,-0.02,-4.33680868994202E-19));
#1150=CARTESIAN_POINT('',(1.38777878078145E-17,-0.02,0.0017));
#1151=CARTESIAN_POINT('',(0.0027,-0.02,0.0017));
#1152=CARTESIAN_POINT('',(-0.0027,-0.02,0.0017));
#1153=CARTESIAN_POINT('',(0.0027,-0.02,6.88787262520199E-19));
#1154=CARTESIAN_POINT('',(0.0027,-0.02,-0.0017));
#1155=CARTESIAN_POINT('',(1.38777878078145E-17,-0.02,-0.0017));
#1156=CARTESIAN_POINT('',(-0.0027,-0.02,-0.0017));
#1157=CARTESIAN_POINT('',(-0.0027,-0.02,-6.88787262520206E-19));
#1158=CARTESIAN_POINT('',(1.38777878078145E-17,0.005,0.));
#1159=CARTESIAN_POINT('',(-2.16840434497101E-19,0.005,-3.03576608295941E-18));
#1160=CARTESIAN_POINT('',(-2.16840434497101E-19,0.005,-0.005));
#1161=CARTESIAN_POINT('',(0.0027,0.005,6.88787262520199E-19));
#1162=CARTESIAN_POINT('',(0.0027,0.005,0.0017));
#1163=CARTESIAN_POINT('',(0.0027,0.005,-0.0017));
#1164=CARTESIAN_POINT('',(1.38777878078145E-17,0.005,0.0017));
#1165=CARTESIAN_POINT('',(-0.0027,0.005,0.0017));
#1166=CARTESIAN_POINT('',(-0.0027,0.005,-6.88787262520206E-19));
#1167=CARTESIAN_POINT('',(-0.0027,0.005,-0.0017));
#1168=CARTESIAN_POINT('',(1.38777878078145E-17,0.005,-0.0017));
#1169=CARTESIAN_POINT('',(0.001,-0.02,0.0364709686815803));
#1170=CARTESIAN_POINT('',(0.001,-0.001,0.0364709686815803));
#1171=CARTESIAN_POINT('',(0.001,-0.001,0.0629920629920945));
#1172=CARTESIAN_POINT('',(0.001,-0.001,0.0099498743710662));
#1173=CARTESIAN_POINT('',(0.001,-0.02,0.0629920629920945));
#1174=CARTESIAN_POINT('',(0.001,-0.02,0.0099498743710662));
#1175=CARTESIAN_POINT('',(0.,-0.02,0.0629920629920945));
#1176=CARTESIAN_POINT('',(0.,-0.001,0.0629920629920945));
#1177=CARTESIAN_POINT('',(-0.001,-0.001,0.0629920629920945));
#1178=CARTESIAN_POINT('',(-0.001,-0.02,0.0629920629920945));
#1179=CARTESIAN_POINT('',(-0.001,-0.02,0.0364709686815803));
#1180=CARTESIAN_POINT('',(-0.001,-0.001,0.0364709686815803));
#1181=CARTESIAN_POINT('',(-0.001,-0.001,0.0099498743710662));
#1182=CARTESIAN_POINT('',(-0.001,-0.02,0.0099498743710662));
#1183=CARTESIAN_POINT('',(-0.0250817624900011,-0.02,0.0264959760523742));
#1184=CARTESIAN_POINT('',(-0.0250817624900011,-0.001,0.0264959760523742));
#1185=CARTESIAN_POINT('',(-0.0438350081214536,-0.001,0.0452492216838268));
#1186=CARTESIAN_POINT('',(-0.00632851685854859,-0.001,0.0077427304209217));
#1187=CARTESIAN_POINT('',(-0.0438350081214536,-0.02,0.0452492216838268));
#1188=CARTESIAN_POINT('',(-0.00632851685854859,-0.02,0.0077427304209217));
#1189=CARTESIAN_POINT('',(-0.0445421149026402,-0.02,0.0445421149026402));
#1190=CARTESIAN_POINT('',(-0.0445421149026402,-0.001,0.0445421149026402));
#1191=CARTESIAN_POINT('',(-0.0452492216838267,-0.001,0.0438350081214537));
#1192=CARTESIAN_POINT('',(-0.0452492216838267,-0.02,0.0438350081214537));
#1193=CARTESIAN_POINT('',(-0.0264959760523742,-0.02,0.0250817624900011));
#1194=CARTESIAN_POINT('',(-0.0264959760523742,-0.001,0.0250817624900011));
#1195=CARTESIAN_POINT('',(-0.0077427304209217,-0.001,0.00632851685854859));
#1196=CARTESIAN_POINT('',(-0.0077427304209217,-0.02,0.00632851685854859));
#1197=CARTESIAN_POINT('',(-0.0364709686815803,-0.02,0.000999999999999982));
#1198=CARTESIAN_POINT('',(-0.0364709686815803,-0.001,0.000999999999999982));
#1199=CARTESIAN_POINT('',(-0.0629920629920945,-0.001,0.000999999999999982));
#1200=CARTESIAN_POINT('',(-0.0099498743710662,-0.001,0.000999999999999979));
#1201=CARTESIAN_POINT('',(-0.0629920629920945,-0.02,0.000999999999999982));
#1202=CARTESIAN_POINT('',(-0.0099498743710662,-0.02,0.000999999999999979));
#1203=CARTESIAN_POINT('',(-0.0629920629920945,-0.02,0.));
#1204=CARTESIAN_POINT('',(-0.0629920629920945,-0.001,0.));
#1205=CARTESIAN_POINT('',(-0.0629920629920945,-0.001,-0.001));
#1206=CARTESIAN_POINT('',(-0.0629920629920945,-0.02,-0.001));
#1207=CARTESIAN_POINT('',(-0.0364709686815803,-0.02,-0.00100000000000003));
#1208=CARTESIAN_POINT('',(-0.0364709686815803,-0.001,-0.00100000000000003));
#1209=CARTESIAN_POINT('',(-0.0099498743710662,-0.001,-0.00100000000000003));
#1210=CARTESIAN_POINT('',(-0.0099498743710662,-0.02,-0.00100000000000003));
#1211=CARTESIAN_POINT('',(-0.0264959760523743,-0.02,-0.0250817624900011));
#1212=CARTESIAN_POINT('',(-0.00774273042092171,-0.02,-0.00632851685854858));
#1213=CARTESIAN_POINT('',(-0.00774273042092171,-0.001,-0.00632851685854858));
#1214=CARTESIAN_POINT('',(-0.0264959760523743,-0.001,-0.0250817624900011));
#1215=CARTESIAN_POINT('',(-0.0452492216838267,-0.001,-0.0438350081214537));
#1216=CARTESIAN_POINT('',(-0.0452492216838267,-0.02,-0.0438350081214537));
#1217=CARTESIAN_POINT('',(-0.0445421149026402,-0.02,-0.0445421149026402));
#1218=CARTESIAN_POINT('',(-0.0445421149026402,-0.001,-0.0445421149026402));
#1219=CARTESIAN_POINT('',(-0.0438350081214537,-0.001,-0.0452492216838267));
#1220=CARTESIAN_POINT('',(-0.0438350081214537,-0.02,-0.0452492216838267));
#1221=CARTESIAN_POINT('',(-0.0250817624900011,-0.02,-0.0264959760523742));
#1222=CARTESIAN_POINT('',(-0.0250817624900011,-0.001,-0.0264959760523742));
#1223=CARTESIAN_POINT('',(-0.00632851685854861,-0.001,-0.00774273042092169));
#1224=CARTESIAN_POINT('',(-0.00632851685854861,-0.02,-0.00774273042092169));
#1225=CARTESIAN_POINT('',(-0.001,-0.02,-0.0364709686815803));
#1226=CARTESIAN_POINT('',(-0.001,-0.02,-0.0099498743710662));
#1227=CARTESIAN_POINT('',(-0.001,-0.001,-0.0099498743710662));
#1228=CARTESIAN_POINT('',(-0.001,-0.001,-0.0364709686815803));
#1229=CARTESIAN_POINT('',(-0.001,-0.001,-0.0629920629920945));
#1230=CARTESIAN_POINT('',(-0.001,-0.02,-0.0629920629920945));
#1231=CARTESIAN_POINT('',(0.,-0.02,-0.0629920629920945));
#1232=CARTESIAN_POINT('',(0.,-0.001,-0.0629920629920945));
#1233=CARTESIAN_POINT('',(0.001,-0.001,-0.0629920629920945));
#1234=CARTESIAN_POINT('',(0.001,-0.02,-0.0629920629920945));
#1235=CARTESIAN_POINT('',(0.001,-0.02,-0.0364709686815803));
#1236=CARTESIAN_POINT('',(0.001,-0.001,-0.0364709686815803));
#1237=CARTESIAN_POINT('',(0.001,-0.001,-0.0099498743710662));
#1238=CARTESIAN_POINT('',(0.001,-0.02,-0.0099498743710662));
#1239=CARTESIAN_POINT('',(0.0250817624900011,-0.02,-0.0264959760523742));
#1240=CARTESIAN_POINT('',(0.00632851685854859,-0.02,-0.0077427304209217));
#1241=CARTESIAN_POINT('',(0.00632851685854859,-0.001,-0.0077427304209217));
#1242=CARTESIAN_POINT('',(0.0250817624900011,-0.001,-0.0264959760523742));
#1243=CARTESIAN_POINT('',(0.0438350081214536,-0.001,-0.0452492216838267));
#1244=CARTESIAN_POINT('',(0.0438350081214536,-0.02,-0.0452492216838267));
#1245=CARTESIAN_POINT('',(0.0445421149026402,-0.02,-0.0445421149026402));
#1246=CARTESIAN_POINT('',(0.0445421149026402,-0.001,-0.0445421149026402));
#1247=CARTESIAN_POINT('',(0.0452492216838268,-0.001,-0.0438350081214536));
#1248=CARTESIAN_POINT('',(0.0452492216838268,-0.02,-0.0438350081214536));
#1249=CARTESIAN_POINT('',(0.0264959760523742,-0.02,-0.0250817624900011));
#1250=CARTESIAN_POINT('',(0.0264959760523742,-0.001,-0.0250817624900011));
#1251=CARTESIAN_POINT('',(0.0077427304209217,-0.001,-0.00632851685854859));
#1252=CARTESIAN_POINT('',(0.0077427304209217,-0.02,-0.00632851685854859));
#1253=CARTESIAN_POINT('',(-1.77809156287623E-17,-0.02,2.81892564846231E-18));
#1254=CARTESIAN_POINT('',(-1.77809156287623E-17,0.,2.81892564846231E-18));
#1255=CARTESIAN_POINT('',(-1.77809156287623E-17,0.,-0.01));
#1256=CARTESIAN_POINT('',(-6.50521303491303E-19,-0.001,3.00974523081976E-16));
#1257=CARTESIAN_POINT('',(0.00632851685854857,-0.02,0.00774273042092171));
#1258=CARTESIAN_POINT('',(0.00632851685854857,-0.001,0.00774273042092171));
#1259=CARTESIAN_POINT('',(6.02816407901941E-17,-0.001,5.160802341031E-17));
#1260=CARTESIAN_POINT('',(0.00774273042092168,-0.001,0.00632851685854861));
#1261=CARTESIAN_POINT('',(0.00774273042092168,-0.02,0.00632851685854861));
#1262=CARTESIAN_POINT('',(0.0099498743710662,-0.02,0.000999999999999982));
#1263=CARTESIAN_POINT('',(0.0099498743710662,-0.001,0.000999999999999982));
#1264=CARTESIAN_POINT('',(2.22044604925032E-16,-0.001,2.49366499671666E-18));
#1265=CARTESIAN_POINT('',(0.0099498743710662,-0.001,-0.00100000000000003));
#1266=CARTESIAN_POINT('',(0.0099498743710662,-0.02,-0.00100000000000003));
#1267=CARTESIAN_POINT('',(1.53089346754953E-16,-0.001,-1.56125112837912E-16));
#1268=CARTESIAN_POINT('',(-1.84314369322536E-18,-0.001,-3.21791204793698E-16));
#1269=CARTESIAN_POINT('',(-1.18394877235417E-16,-0.001,-1.23165366794353E-16));
#1270=CARTESIAN_POINT('',(-1.93421667571414E-16,-0.001,-1.40946282423116E-18));
#1271=CARTESIAN_POINT('',(-1.17527515497429E-16,-0.001,1.196959198424E-16));
#1272=CARTESIAN_POINT('',(0.0364709686815803,-0.02,-0.00100000000000003));
#1273=CARTESIAN_POINT('',(0.0364709686815803,-0.001,-0.00100000000000003));
#1274=CARTESIAN_POINT('',(0.0629920629920945,-0.001,-0.00100000000000003));
#1275=CARTESIAN_POINT('',(0.0629920629920945,-0.02,-0.00100000000000003));
#1276=CARTESIAN_POINT('',(0.0629920629920945,-0.02,0.));
#1277=CARTESIAN_POINT('',(0.0629920629920945,-0.001,0.));
#1278=CARTESIAN_POINT('',(0.0629920629920945,-0.001,0.001));
#1279=CARTESIAN_POINT('',(0.0629920629920945,-0.02,0.001));
#1280=CARTESIAN_POINT('',(0.0364709686815803,-0.02,0.000999999999999982));
#1281=CARTESIAN_POINT('',(0.0364709686815803,-0.001,0.000999999999999982));
#1282=CARTESIAN_POINT('',(0.0264959760523742,-0.02,0.0250817624900011));
#1283=CARTESIAN_POINT('',(0.0264959760523742,-0.001,0.0250817624900011));
#1284=CARTESIAN_POINT('',(0.0452492216838267,-0.001,0.0438350081214537));
#1285=CARTESIAN_POINT('',(0.0452492216838267,-0.02,0.0438350081214537));
#1286=CARTESIAN_POINT('',(0.0445421149026402,-0.02,0.0445421149026402));
#1287=CARTESIAN_POINT('',(0.0445421149026402,-0.001,0.0445421149026402));
#1288=CARTESIAN_POINT('',(0.0438350081214536,-0.001,0.0452492216838267));
#1289=CARTESIAN_POINT('',(0.0438350081214536,-0.02,0.0452492216838267));
#1290=CARTESIAN_POINT('',(0.0250817624900011,-0.02,0.0264959760523743));
#1291=CARTESIAN_POINT('',(0.0250817624900011,-0.001,0.0264959760523743));
#1292=CARTESIAN_POINT('',(1.38777878078145E-17,0.,0.));
#1293=CARTESIAN_POINT('',(-2.16840434497101E-19,0.,-3.03576608295941E-18));
#1294=CARTESIAN_POINT('',(-2.16840434497101E-19,0.,-0.005));
#1295=CARTESIAN_POINT('',(-2.16840434497101E-19,0.005,-3.03576608295941E-18));
#1296=CARTESIAN_POINT('',(0.0027,0.0293,0.));
#1297=CARTESIAN_POINT('',(0.0027,0.0293,0.0017));
#1298=CARTESIAN_POINT('',(0.0027,0.0293,-0.0017));
#1299=CARTESIAN_POINT('',(-6.50521303491303E-19,0.0293,0.0017));
#1300=CARTESIAN_POINT('',(-0.0027,0.0293,0.0017));
#1301=CARTESIAN_POINT('',(-0.0027,0.0293,0.));
#1302=CARTESIAN_POINT('',(-0.0027,0.0293,-0.0017));
#1303=CARTESIAN_POINT('',(4.33680868994202E-19,0.0293,-0.0017));
#1304=CARTESIAN_POINT('',(1.38777878078145E-17,-0.001,0.));
#1305=CARTESIAN_POINT('',(1.38777878078145E-17,-0.001,0.));
#1306=CARTESIAN_POINT('',(1.38777878078145E-17,-0.001,0.));
#1307=CARTESIAN_POINT('',(1.38777878078145E-17,-0.001,0.));
#1308=CARTESIAN_POINT('',(1.38777878078145E-17,-0.001,0.));
#1309=CARTESIAN_POINT('',(1.38777878078145E-17,-0.001,0.));
#1310=CARTESIAN_POINT('',(1.38777878078145E-17,-0.001,0.));
#1311=CARTESIAN_POINT('',(1.38777878078145E-17,-0.001,0.));
#1312=MECHANICAL_DESIGN_GEOMETRIC_PRESENTATION_REPRESENTATION('',(#798),#1313);
#1313=(
GEOMETRIC_REPRESENTATION_CONTEXT(3)
GLOBAL_UNCERTAINTY_ASSIGNED_CONTEXT((#1314))
GLOBAL_UNIT_ASSIGNED_CONTEXT((#1317,#1316,#1315))
REPRESENTATION_CONTEXT('Chamber Leaves','TOP_LEVEL_ASSEMBLY_PART')
);
#1314=UNCERTAINTY_MEASURE_WITH_UNIT(LENGTH_MEASURE(1.E-08),#1317,'DISTANCE_ACCURACY_VALUE','Maximum Tolerance applied to model');
#1315=(
NAMED_UNIT(*)
SI_UNIT($,.STERADIAN.)
SOLID_ANGLE_UNIT()
);
#1316=(
NAMED_UNIT(*)
PLANE_ANGLE_UNIT()
SI_UNIT($,.RADIAN.)
);
#1317=(
LENGTH_UNIT()
NAMED_UNIT(*)
SI_UNIT($,.METRE.)
);
#1318=PRODUCT_DEFINITION_SHAPE('','',#1319);
#1319=PRODUCT_DEFINITION('','',#1321,#1320);
#1320=PRODUCT_DEFINITION_CONTEXT('',#1327,'design');
#1321=PRODUCT_DEFINITION_FORMATION_WITH_SPECIFIED_SOURCE('','',#1323,.NOT_KNOWN.);
#1322=PRODUCT_RELATED_PRODUCT_CATEGORY('','',(#1323));
#1323=PRODUCT('Chamber Leaves','Chamber Leaves','Chamber Leaves',(#1325));
#1324=PRODUCT_CATEGORY('','');
#1325=PRODUCT_CONTEXT('',#1327,'mechanical');
#1326=APPLICATION_PROTOCOL_DEFINITION('international standard','ap242_managed_model_based_3d_engineering',2020,#1327);
#1327=APPLICATION_CONTEXT('managed model based 3d engineering');
ENDSEC;
END-ISO-10303-21;
